<svg xmlns="http://www.w3.org/2000/svg" viewBox="0 0 34.86 48.57"><defs><style>.cls-1{fill:#e6d4e7;}.cls-1,.cls-2,.cls-3,.cls-4,.cls-5,.cls-6,.cls-7,.cls-8,.cls-9{fill-rule:evenodd;}.cls-2{fill:#cea6cc;}.cls-3{fill:#0d131a;}.cls-4{fill:#9b7fa6;}.cls-5{fill:#836b8d;}.cls-6{fill:#fff;}.cls-7{fill:#dbdcdc;}.cls-8{fill:#a586bc;}.cls-9{fill:#8f75a3;}</style></defs><title>Asset 22@</title><g id="Layer_2" data-name="Layer 2"><g id="Layer_1-2" data-name="Layer 1"><path class="cls-1" d="M20.43,9.52a.46.46,0,0,1,.37-.07.68.68,0,0,1,.39.16.55.55,0,0,1,0,.86,1.55,1.55,0,0,0-.4.94,2.51,2.51,0,0,0,.25.94c.16.37.1.56-.17.57s-.55-.18-.83-.57a2.09,2.09,0,0,1-.28-1.55,1.73,1.73,0,0,1,.63-1.28Z"/><path class="cls-1" d="M26.23,21.87a6.48,6.48,0,0,1,2.08,2.41,10.59,10.59,0,0,1,1.12,3.93,10,10,0,0,1-.35,3.95,6.93,6.93,0,0,1-1.2,2.29,3.4,3.4,0,0,0-.6,1.87,8.25,8.25,0,0,0,0,1.63A1.79,1.79,0,0,0,28,39c.17.14.55.42,1.15.82L30.92,41l1.52.87a1.2,1.2,0,0,1,1.24,0,1,1,0,0,1,.56.93.92.92,0,0,1-.61.89,2,2,0,0,1-1,.1.83.83,0,0,1-.51.61,3,3,0,0,1-1.43.21,4.66,4.66,0,0,1-1.44-.28,1.8,1.8,0,0,1-.83-.59,12.55,12.55,0,0,0-1.08-1.3c-.59-.65-1-1-1.26-1a1.75,1.75,0,0,1-1.09.13,1.24,1.24,0,0,1-.7-.54,1.09,1.09,0,0,1,.15-1.28,2,2,0,0,1,.23-.77l.4-.93a4.16,4.16,0,0,0,.15-1.93,2.61,2.61,0,0,0-.87-1.7c-.36-.29-.56-1.17-.61-2.64A28.28,28.28,0,0,1,24,27.19a19.59,19.59,0,0,1,.9-4.07c.43-1.13.86-1.54,1.32-1.25Z"/><path class="cls-1" d="M26.44,40.44a1.19,1.19,0,0,1-.35.94l-1.64-1.69a.93.93,0,0,1,.75-.26,1.35,1.35,0,0,1,.8.31,1.06,1.06,0,0,1,.44.7Z"/><path class="cls-1" d="M27,15.92a10.68,10.68,0,0,0,.49,1.71,6.39,6.39,0,0,0,.82,1.6c.33.44.87,1.11,1.64,2s1.34,1.53,1.63,1.81a16.5,16.5,0,0,1,1.64.87,3.48,3.48,0,0,1,1.2.95,4.15,4.15,0,0,1,.31,1.06,2.29,2.29,0,0,1-.06,1.2,4.85,4.85,0,0,1-.56,1.05,1.79,1.79,0,0,1-.71.69,1.56,1.56,0,0,1-.91.12.79.79,0,0,1-.58-.67.92.92,0,0,1-.64-.08.75.75,0,0,1-.38-.53.9.9,0,0,1,.1-.65l.26-.37a4.53,4.53,0,0,1-.42-.75,2,2,0,0,1-.19-.89c-.16-.2-.75-.88-1.76-2a14.29,14.29,0,0,1-1.52-1.86l-.66-1.27a13.51,13.51,0,0,1-.76-1.67,1.66,1.66,0,0,1,.37-1.61,3.22,3.22,0,0,1,.69-.69Z"/><path class="cls-1" d="M33.32,26.87l-.8-1.23.58.48c.25.23.36.38.32.46l-.1.29Z"/><path class="cls-1" d="M33.42,28a.75.75,0,0,1-.5.41.91.91,0,0,1-.69,0,.78.78,0,0,1-.44-.68,1.7,1.7,0,0,1-.52-.94A9.8,9.8,0,0,0,31,25.56l1.45-.33a3.41,3.41,0,0,0,0,.77,1.76,1.76,0,0,0,.15.69,1.21,1.21,0,0,1,.48.15.65.65,0,0,1,.36.47,1,1,0,0,1-.07.64Z"/><path class="cls-2" d="M21.39,10.15a1.15,1.15,0,0,0-1.1.69A4.16,4.16,0,0,0,20,12.29a2.23,2.23,0,0,1-.24-1.53,1.72,1.72,0,0,1,.63-1.24c.1-.07.26,0,.49.15a3.57,3.57,0,0,1,.47.48Z"/><path class="cls-2" d="M24.91,23.12c.43-1.13.86-1.54,1.32-1.25l.54.42a15.67,15.67,0,0,0,0,4.74c.08.65.21,1.46.39,2.42l.42,2.32c-.24.47-.62,1.12-1.12,1.94a3.87,3.87,0,0,0-.6,1.62,10.33,10.33,0,0,1-.34,2.81l-.2.45a3.28,3.28,0,0,0-.16.83.69.69,0,0,0-.34.52.81.81,0,0,0,.13.54,1,1,0,0,0,.72.51,1.08,1.08,0,0,0,.75-.21l1.16,1.14,1.3,1.24a2.54,2.54,0,0,0,1.72.66,2.46,2.46,0,0,0,2-.65l.87,0,.71-.31a.91.91,0,0,1-.64.77,2.06,2.06,0,0,1-.94.09.83.83,0,0,1-.51.61,3,3,0,0,1-1.43.21,4.66,4.66,0,0,1-1.44-.28,1.8,1.8,0,0,1-.83-.59,12.55,12.55,0,0,0-1.08-1.3c-.59-.65-1-1-1.26-1a1.75,1.75,0,0,1-1.09.13,1.24,1.24,0,0,1-.7-.54,1.09,1.09,0,0,1,.15-1.28,2,2,0,0,1,.23-.77l.4-.93a4.16,4.16,0,0,0,.15-1.93,2.61,2.61,0,0,0-.87-1.7c-.36-.29-.56-1.17-.61-2.64A28.28,28.28,0,0,1,24,27.19a19.59,19.59,0,0,1,.9-4.07Z"/><path class="cls-2" d="M27.35,21.16l-.66-1.27a13.51,13.51,0,0,1-.76-1.67,1.61,1.61,0,0,1,.3-1.51A13,13,0,0,0,28.12,21a11.69,11.69,0,0,0,2.06,2.53,3.77,3.77,0,0,1,.82.93l.29.64.26,1a3.66,3.66,0,0,0,.44,1.1.82.82,0,0,0,.58.85c.35.14.62.1.78-.13a.63.63,0,0,0,0-.76.77.77,0,0,0-.57-.37c-.18,0-.29-.24-.32-.67a1.84,1.84,0,0,1,.11-.92,1.36,1.36,0,0,1,1,.63A1.73,1.73,0,0,1,34,27a3.33,3.33,0,0,1-.72,1.28c-.4.51-.54.76-.44.77a.79.79,0,0,1-.93-.69.92.92,0,0,1-.64-.08.75.75,0,0,1-.38-.53.9.9,0,0,1,.1-.65l.26-.37a4.53,4.53,0,0,1-.42-.75,2,2,0,0,1-.19-.89c-.16-.2-.75-.88-1.76-2a14.29,14.29,0,0,1-1.52-1.86Z"/><path class="cls-2" d="M33.42,26.58l-.1.29-.8-1.23.58.48c.25.23.36.38.32.46Z"/><path class="cls-3" d="M21.19,9.73a.63.63,0,0,0-.36-.19.4.4,0,0,0-.35.05,1.45,1.45,0,0,0-.49.71,2.46,2.46,0,0,0-.19.89,1.9,1.9,0,0,0,.35,1.11,1.63,1.63,0,0,0,.5.46c.15.08.26.1.34.06s.1-.21,0-.44a2.33,2.33,0,0,1-.22-1.19,2.14,2.14,0,0,1,.51-1c.11-.14.14-.25.09-.31l-.19-.14Zm-.81-.28a.6.6,0,0,1,.47-.09.9.9,0,0,1,.47.25.72.72,0,0,1,.21.45.5.5,0,0,1-.18.45,1.48,1.48,0,0,0-.2,1.8.66.66,0,0,1,.06.48.3.3,0,0,1-.14.17.5.5,0,0,1-.47,0A1.69,1.69,0,0,1,20,12.4a2.38,2.38,0,0,1-.32-.82,2.76,2.76,0,0,1,0-1,1.68,1.68,0,0,1,.72-1.14Z"/><path class="cls-3" d="M26.17,22c-.23-.15-.47-.06-.7.27a7.59,7.59,0,0,0-.95,2.58A30.28,30.28,0,0,0,24,28.63a24.23,24.23,0,0,0-.08,3.64q.12,1.66.54,2A2.63,2.63,0,0,1,25.31,36a4.17,4.17,0,0,1-.14,2,3,3,0,0,1-.34.58,1.38,1.38,0,0,0-.17.88c.16,0,.19,0,.09.08a.91.91,0,0,0-.51.76,1.09,1.09,0,0,0,.14.63,1.22,1.22,0,0,0,.71.52,1.17,1.17,0,0,0,1-.22c.19-.13.26-.16.23-.08l-.1.15c.3,0,.78.43,1.42,1.19a10.23,10.23,0,0,1,.88,1.14,1.83,1.83,0,0,0,.84.57,4.83,4.83,0,0,0,1.36.26,3,3,0,0,0,1.38-.2.74.74,0,0,0,.47-.55l0-.09h.08a1.89,1.89,0,0,0,.63,0,1.15,1.15,0,0,0,.58-.24.82.82,0,0,0,.28-.64A.78.78,0,0,0,34,42.3a1.09,1.09,0,0,0-.37-.37,1.38,1.38,0,0,0-1.17,0,.59.59,0,0,0-.17.07l-.15,0s0,0,0-.1l.07-.1c-.21-.1-.69-.37-1.44-.83s-1.36-.83-1.76-1.09l-.2-.14a7.8,7.8,0,0,1-1-.78,1.69,1.69,0,0,1-.56-1,7.67,7.67,0,0,1-.06-1.77,3.43,3.43,0,0,1,.63-1.81A6.86,6.86,0,0,0,29,32.21a9.59,9.59,0,0,0,.37-4,10.45,10.45,0,0,0-1-3.78A6.22,6.22,0,0,0,26.17,22Zm-.86.16c.31-.43.64-.53,1-.32a6.71,6.71,0,0,1,2.21,2.57,10.61,10.61,0,0,1,1.11,3.87,11.22,11.22,0,0,1,.06,1.15,8.56,8.56,0,0,1-.49,3.09,8.23,8.23,0,0,1-1.1,1.91,3.82,3.82,0,0,0-.71,2.36,9.72,9.72,0,0,0,.06,1.2,1.52,1.52,0,0,0,.59.93,11.78,11.78,0,0,0,1.06.74l.71.45,1.46.94,1.2.73a1.54,1.54,0,0,1,.71-.16,1.46,1.46,0,0,1,.7.19,1.21,1.21,0,0,1,.43.44,1.06,1.06,0,0,1,.16.56,1.08,1.08,0,0,1-.38.78,1.68,1.68,0,0,1-1.26.29c0,.22-.2.41-.53.58a3.59,3.59,0,0,1-1.69.25,4.77,4.77,0,0,1-1.38-.21,1.53,1.53,0,0,1-.82-.56,17.87,17.87,0,0,0-1.13-1.41c-.55-.63-.93-1-1.16-1a1.54,1.54,0,0,1-1,.19,1.31,1.31,0,0,1-.83-.57,1,1,0,0,1-.17-.54,1.18,1.18,0,0,1,.31-.91v-.39a1,1,0,0,1,.11-.42l.25-.39A2.34,2.34,0,0,0,25,38a4.36,4.36,0,0,0,.23-1.31,3.22,3.22,0,0,0-.28-1.31,2.57,2.57,0,0,0-.74-1,1.9,1.9,0,0,1-.44-1.21c0-.44-.07-1.14-.07-2.1,0-.79,0-1.61.11-2.46a31.87,31.87,0,0,1,.54-3.7,7.92,7.92,0,0,1,1-2.81Z"/><path class="cls-3" d="M24.4,39.63a1,1,0,0,1,.86-.28,1.58,1.58,0,0,1,.88.4,1.26,1.26,0,0,1,.38.92.74.74,0,0,1-.36.77c-.19.09-.32.12-.38.08s0-.08.08-.14a.75.75,0,0,0,.46-.75,1,1,0,0,0-.29-.76,1.25,1.25,0,0,0-.76-.37.88.88,0,0,0-.76.24l-.11-.11Z"/><path class="cls-3" d="M31.53,42.48a1.59,1.59,0,0,1,1,.37.9.9,0,0,1,.29.45.86.86,0,0,1,0,.61c-.09.2-.15.26-.19.19a.57.57,0,0,1,0-.37.73.73,0,0,0-.22-.73,1.58,1.58,0,0,0-.88-.31l-.88,0c-.1,0-.15,0-.16,0s.07-.09.23-.15a2,2,0,0,1,.89-.08Z"/><path class="cls-3" d="M26.93,16.09a3.5,3.5,0,0,0-.59.64,1.77,1.77,0,0,0-.39,1,1.22,1.22,0,0,0,.07.41,19.08,19.08,0,0,0,1.12,2.36l.29.58a6.82,6.82,0,0,0,.72.94l1.16,1.32,1.25,1.46.12.18.06.34a1.88,1.88,0,0,0,.17.54c.1.18.18.28.26.3l.15.66a.54.54,0,0,0-.19.13.71.71,0,0,0-.18.54.75.75,0,0,0,.36.63.91.91,0,0,0,.57.07l.1-.09v.17a.75.75,0,0,0,.35.53,1.07,1.07,0,0,0,1-.06,2.06,2.06,0,0,0,.65-.65,5.08,5.08,0,0,0,.57-1,1.7,1.7,0,0,0,.09-.59,4.07,4.07,0,0,0-.1-.9,2.34,2.34,0,0,0-.25-.69,4,4,0,0,0-1.34-1c-.8-.42-1.28-.68-1.45-.78a12.2,12.2,0,0,1-1.61-1.72c-.72-.86-1.28-1.57-1.7-2.13a6.64,6.64,0,0,1-.79-1.52,10.28,10.28,0,0,1-.5-1.68Zm0-.25.13-.08,0,.15a10,10,0,0,0,.5,1.7,6.6,6.6,0,0,0,.8,1.56c.38.53.93,1.22,1.67,2.09A13.34,13.34,0,0,0,31.64,23a14.32,14.32,0,0,0,1.34.68,4.3,4.3,0,0,1,1.51,1.17,1.93,1.93,0,0,1,.26.7,4.51,4.51,0,0,1,.11,1,1.82,1.82,0,0,1-.11.66,4.94,4.94,0,0,1-.57,1.09,1.82,1.82,0,0,1-.77.75,1.38,1.38,0,0,1-1.17.05,1,1,0,0,1-.41-.63,1,1,0,0,1-.65-.12.83.83,0,0,1-.42-.57.91.91,0,0,1,.09-.66l.27-.38,0-.22a2.08,2.08,0,0,1-.38-.51,3.06,3.06,0,0,1-.16-.76L30.49,25l-.09-.13L30,24.44l-.84-.88c-.44-.5-.86-1-1.25-1.48A11,11,0,0,1,27,20.92q-.21-.39-.57-1.2c-.23-.52-.43-1-.59-1.47a1.35,1.35,0,0,1-.09-.5,2.11,2.11,0,0,1,.56-1.32,4.2,4.2,0,0,1,.61-.59Z"/><path class="cls-3" d="M33.46,26.4a.06.06,0,0,1,.09,0s0,.08,0,.17a.58.58,0,0,0-.12.28V27c-.1,0-.15-.07-.15-.13a.35.35,0,0,1,.05-.18l.06-.12a3,3,0,0,0-.72-.71l-.12-.06,0-.26.31.27a4.83,4.83,0,0,1,.6.61Z"/><path class="cls-3" d="M33.52,27.12a.68.68,0,0,1,.11.39,1,1,0,0,1-.18.59.9.9,0,0,1-.5.35l-.41.05a.89.89,0,0,1-.45-.15.87.87,0,0,1-.41-.66,1.44,1.44,0,0,1-.42-.64,6.76,6.76,0,0,1-.16-.74L31,25.49c0-.1,0-.14,0-.13s.08.06.12.17.11.43.17.76a4.41,4.41,0,0,0,.16.7,1.47,1.47,0,0,0,.4.58l0,.05a.68.68,0,0,0,.36.56.89.89,0,0,0,.59.09.69.69,0,0,0,.51-.38,1,1,0,0,0,0-.51.58.58,0,0,0-.26-.4,1,1,0,0,0-.4-.17l-.09,0-.09-.11a2.63,2.63,0,0,1-.14-1.31A.61.61,0,0,1,32.5,25c0-.09.07,0,.08.21V26a1.56,1.56,0,0,0,.19.65,1.08,1.08,0,0,1,.74.47Z"/><path class="cls-1" d="M24,14.79a5.64,5.64,0,0,1,1.62,2,4.14,4.14,0,0,1,.11,1.3c0,.24-.07.58-.15,1a4.08,4.08,0,0,0,.74,2.63,13.9,13.9,0,0,1,2.08,5.17,8.75,8.75,0,0,1-.7,4.76,4.25,4.25,0,0,1-1.51,1.69,9,9,0,0,1-2.78,1.33A10.54,10.54,0,0,1,15.72,34q-3.61-1.72-4.63-6.58a30.5,30.5,0,0,1-.28-7.76,21.85,21.85,0,0,0-.17-5.6A6.45,6.45,0,0,0,8.1,10a3,3,0,0,0-2-.67,2.66,2.66,0,0,0-1.68.87,5.1,5.1,0,0,0-1.14,2,8.11,8.11,0,0,0-.41,2.69,11.15,11.15,0,0,0,1.54,5.92c.28.44.78,1.15,1.52,2.13s1.28,1.75,1.68,2.4a5.3,5.3,0,0,1,.86,2.35A1.75,1.75,0,0,1,8,29.13a1.62,1.62,0,0,1-1.31.42,3.33,3.33,0,0,1-1.71-.72,10.93,10.93,0,0,1-3-4.43,20,20,0,0,1-1.7-7.28,9.67,9.67,0,0,1,1.65-6.07A6.9,6.9,0,0,1,6.77,7.91a6.14,6.14,0,0,1,4.78,1.26A7.11,7.11,0,0,1,14,12.51a14.84,14.84,0,0,1,.45,1.89L15,17a18.35,18.35,0,0,0,1.41,4.8,3.58,3.58,0,0,0,.69.87,2.16,2.16,0,0,0,1,.56c.88.2,1.58-.4,2.11-1.8A5,5,0,0,0,20,18.6L19.06,16c-.69-1.94-.79-3.15-.29-3.64s1.18-.31,2.31.3A14.42,14.42,0,0,1,24,14.79Z"/><path class="cls-2" d="M24,14.79a5.64,5.64,0,0,1,1.62,2,3.86,3.86,0,0,1,.09,1.43l-.16,1.11a2.85,2.85,0,0,0-1.95-.08,4,4,0,0,0-1.76.75,3,3,0,0,0-.69.95c-.08.17-.23.53-.44,1.08a2.83,2.83,0,0,1-1.27,1.7.74.74,0,0,1-1.05-.43c.72,0,1.3-.64,1.76-1.84A5,5,0,0,0,20,18.6L19.06,16c-.69-1.94-.79-3.15-.29-3.64s1.18-.31,2.31.3A14.42,14.42,0,0,1,24,14.79Z"/><path class="cls-4" d="M8.1,10a3,3,0,0,0-2-.67,2.66,2.66,0,0,0-1.68.87,5.1,5.1,0,0,0-1.14,2,8.11,8.11,0,0,0-.41,2.69,11.15,11.15,0,0,0,1.54,5.92c.28.44.78,1.15,1.52,2.13s1.28,1.75,1.68,2.4a5.3,5.3,0,0,1,.86,2.35A1.75,1.75,0,0,1,8,29.13a1.62,1.62,0,0,1-1.31.42,3.33,3.33,0,0,1-1.71-.72,10.93,10.93,0,0,1-3-4.43,20,20,0,0,1-1.7-7.28,9.67,9.67,0,0,1,1.65-6.07A6.9,6.9,0,0,1,6.77,7.91a6.14,6.14,0,0,1,4.78,1.26A7.11,7.11,0,0,1,14,12.51a14.84,14.84,0,0,1,.45,1.89L15,17a18.35,18.35,0,0,0,1.41,4.8A3.18,3.18,0,0,0,17.46,23a1.39,1.39,0,0,0,1.54.11l.28,2.07a10.88,10.88,0,0,0,.49,2,2.39,2.39,0,0,0,.33.64,3.42,3.42,0,0,0,.78,1c.81.65,1.38,0,1.72-1.9.51-2.84,1.37-4.27,2.6-4.31a3.49,3.49,0,0,1,2.29,1.21,10.93,10.93,0,0,1,1.07,4,7.33,7.33,0,0,1-.84,3.79,5.22,5.22,0,0,1-1.66,1.82,8.54,8.54,0,0,1-2.77,1.31A10.53,10.53,0,0,1,15.72,34q-3.61-1.72-4.63-6.58a30.5,30.5,0,0,1-.28-7.76,21.85,21.85,0,0,0-.17-5.6A6.45,6.45,0,0,0,8.1,10Z"/><path class="cls-5" d="M16.39,21.83A3.18,3.18,0,0,0,17.48,23a1.41,1.41,0,0,0,1.52.1,1.17,1.17,0,0,1-.08.81.88.88,0,0,0-.06.7,4.6,4.6,0,0,1-2.1-1.12,2.06,2.06,0,0,1-.37-1.64Z"/><path class="cls-5" d="M8.1,10a3,3,0,0,0-2-.67,2.66,2.66,0,0,0-1.68.87,5.1,5.1,0,0,0-1.14,2,8.11,8.11,0,0,0-.41,2.69,11.15,11.15,0,0,0,1.54,5.92c.28.44.78,1.15,1.52,2.13s1.28,1.75,1.68,2.4.58,1,.64,1.12a3.57,3.57,0,0,1,.24,1.37c-.35.61-1,.52-2-.26a9.26,9.26,0,0,1-2-2.23,18.13,18.13,0,0,1-2.07-4.91,17.21,17.21,0,0,1-.56-7.16A5.23,5.23,0,0,1,3,10.47,4.58,4.58,0,0,1,6,9.12q3-.34,4.82,3.05a14,14,0,0,1,1.12,5.66c.07,1.44.1,3.32.08,5.65a12,12,0,0,0,1.39,4.92A9.06,9.06,0,0,0,17,32.56a9.85,9.85,0,0,0,5.34,1.11,9,9,0,0,0,5.35-2.06,5.22,5.22,0,0,1-1.66,1.82,8.54,8.54,0,0,1-2.77,1.31A10.53,10.53,0,0,1,15.72,34q-3.61-1.72-4.63-6.58a30.5,30.5,0,0,1-.28-7.76,21.85,21.85,0,0,0-.17-5.6A6.45,6.45,0,0,0,8.1,10Z"/><path class="cls-1" d="M21.22,10.11l2.25,1,.23.67c.17.4.39.64.67.7l.69-.24A5.94,5.94,0,0,1,26,12a1,1,0,0,1,1,.62,4.5,4.5,0,0,1,.43,1.26,5.67,5.67,0,0,1-.47,2.69,4.58,4.58,0,0,1-1.17,2.17.23.23,0,0,1-.28,0l-.31-.29a.9.9,0,0,0-1.09-.1l-.74.47a1.49,1.49,0,0,1-.85.29,2.18,2.18,0,0,1-1.16-.77,3.1,3.1,0,0,1-.9-1.79,3.88,3.88,0,0,0,.07-2,2.59,2.59,0,0,0-.68-1.47.64.64,0,0,0-.89,0,2.5,2.5,0,0,0-.69.9,2.2,2.2,0,0,1,0-1.74,2.49,2.49,0,0,1,.79-.85,1.33,1.33,0,0,1,1.14-.07,8.77,8.77,0,0,1,1.31.55,1.78,1.78,0,0,0,0-1,1.77,1.77,0,0,0-.25-.77Z"/><path class="cls-2" d="M19,11.37a1.33,1.33,0,0,1,1.14-.07,8.77,8.77,0,0,1,1.31.55,1.78,1.78,0,0,0,0-1,1.77,1.77,0,0,0-.25-.77l2.37.57,0,.41a2,2,0,0,1,0,.52c-.13.67-.59.87-1.37.62l-.83-.32a6.2,6.2,0,0,0-1-.3c-.44-.08-.72-.07-.83,0s0,.44.46.88a2.6,2.6,0,0,1,.58,1A5.74,5.74,0,0,1,21,15.44a4.35,4.35,0,0,0,.57,1.82c.37.71.7,1.1,1,1.18a1.4,1.4,0,0,0,.86-.06,1.66,1.66,0,0,0,.53-.36,1,1,0,0,1,.63-.25.84.84,0,0,1,.77.23,1.28,1.28,0,0,0,.38.29.51.51,0,0,0,.45,0,1.68,1.68,0,0,1-.38.45.23.23,0,0,1-.28,0l-.31-.29a.9.9,0,0,0-1.09-.1l-.74.47a1.49,1.49,0,0,1-.85.29,2.18,2.18,0,0,1-1.16-.77,3.1,3.1,0,0,1-.9-1.79,3.88,3.88,0,0,0,.07-2,2.59,2.59,0,0,0-.68-1.47.64.64,0,0,0-.89,0,2.5,2.5,0,0,0-.69.9,2.2,2.2,0,0,1,0-1.74,2.49,2.49,0,0,1,.79-.85Z"/><path class="cls-3" d="M19.07,16.54,19,16a9.78,9.78,0,0,1-.59-2.44l.17-.09a8.69,8.69,0,0,0,.59,2.48l.18.5L20.2,19a4,4,0,0,1,.05,2.43c-.47,1.2-1.07,1.83-1.79,1.89a1.9,1.9,0,0,1-1.3-.48,3.44,3.44,0,0,1-.87-1,12.09,12.09,0,0,1-1-2.77c-.19-.75-.42-1.88-.7-3.4l-.35-1.8a12,12,0,0,0-.34-1.32,7.09,7.09,0,0,0-2.41-3.27A6.11,6.11,0,0,0,6.78,8,6.83,6.83,0,0,0,4,9a7.33,7.33,0,0,0-2.13,2.1A9,9,0,0,0,.63,13.91a10.7,10.7,0,0,0-.36,3.21A19.68,19.68,0,0,0,2,24.48,10.85,10.85,0,0,0,5,28.77a3.33,3.33,0,0,0,1.6.69,1.6,1.6,0,0,0,1.3-.36,1.69,1.69,0,0,0,.46-1.5,5.62,5.62,0,0,0-.84-2.21c-.27-.44-.57-.89-.9-1.36l-.9-1.2a18.19,18.19,0,0,1-2.06-3.22,11.56,11.56,0,0,1-.89-4.72,8,8,0,0,1,.6-3.29A3.86,3.86,0,0,1,5,9.6c-.8.21-1,.22-.7,0a4.29,4.29,0,0,1,1.12-.41,3.11,3.11,0,0,1,1.29,0,3.83,3.83,0,0,1,1.4.7A6.73,6.73,0,0,1,10.72,14a21.92,21.92,0,0,1,.17,5.6,31,31,0,0,0,.25,7.54c.66,3.33,2.19,5.56,4.61,6.71a10.21,10.21,0,0,0,3.74,1,14.42,14.42,0,0,0,3.94-.41A7,7,0,0,0,26,33.34a5.06,5.06,0,0,0,1.68-1.91,7.87,7.87,0,0,0,.71-4.61,14,14,0,0,0-2.11-5.1,5,5,0,0,1-.75-1.8,4.15,4.15,0,0,1,.05-1.24l.34,0a2.68,2.68,0,0,0-.13,1.41,5,5,0,0,0,.73,1.67A14.67,14.67,0,0,1,28.72,27a7.65,7.65,0,0,1-.95,4.92A5.65,5.65,0,0,1,26.2,33.6a6.93,6.93,0,0,1-2.47,1.21,13.13,13.13,0,0,1-4.19.42,11.46,11.46,0,0,1-3.93-1.12q-3.7-1.77-4.73-6.75a30,30,0,0,1-.3-7.57,23.1,23.1,0,0,0-.13-5.59A6.34,6.34,0,0,0,8,10.13a3.89,3.89,0,0,0-1.23-.65,2.41,2.41,0,0,0-1.13,0Q3,10.88,3,15.14a10.34,10.34,0,0,0,1,4.61,13,13,0,0,0,1,1.63L6.1,22.89l1,1.24a16.23,16.23,0,0,1,1,1.4,4.41,4.41,0,0,1,.76,2.31,2.08,2.08,0,0,1-.65,1.59,1.81,1.81,0,0,1-1.49.39,3.57,3.57,0,0,1-1.78-.73A10.7,10.7,0,0,1,1.74,24.8,20.35,20.35,0,0,1,0,17.25a11.75,11.75,0,0,1,.32-3.32A9,9,0,0,1,1.58,11a8.14,8.14,0,0,1,2.2-2.18,6.89,6.89,0,0,1,2.79-1,6.73,6.73,0,0,1,4.91,1.08,6.91,6.91,0,0,1,2.62,3.41,24.43,24.43,0,0,1,.81,3.33c.31,1.71.53,2.81.65,3.32a10.73,10.73,0,0,0,.93,2.76,2.89,2.89,0,0,0,.81.9,1.8,1.8,0,0,0,1.19.4,1.28,1.28,0,0,0,.82-.37A4.14,4.14,0,0,0,20,21.46,3.87,3.87,0,0,0,19.92,19c-.09-.33-.37-1.14-.85-2.45Z"/><path class="cls-3" d="M24.8,22.5a2,2,0,0,1,1.59.18,3,3,0,0,1,.83.71,2.26,2.26,0,0,1,.37.62c.08.21,0,.17-.17-.13a3,3,0,0,0-.88-.87,2,2,0,0,0-1.63-.29A2.25,2.25,0,0,0,23.59,24a10.28,10.28,0,0,0-.9,2.93c-.27,1.52-.7,2.25-1.31,2.2-.35,0-.72-.33-1.13-.89a3.33,3.33,0,0,1-.56-1h0a9.58,9.58,0,0,1-.4-1.51c-.06-.31-.13-.79-.21-1.43l-.18-1.1.2-.12.14,1.19c.08.64.15,1.11.21,1.42a10.17,10.17,0,0,0,.39,1.49v0a3.38,3.38,0,0,0,.55,1c.4.56.75.83,1.06.82.47,0,.82-.71,1.06-2.07a11.1,11.1,0,0,1,.91-3A2.48,2.48,0,0,1,24.8,22.5Z"/><path class="cls-3" d="M23.7,14.22a5.31,5.31,0,0,1,.23.65,1.87,1.87,0,0,1,.06.73,2.71,2.71,0,0,1-.25.82,4.34,4.34,0,0,0-.3.84.85.85,0,0,1-.12.35s0-.1,0-.33a3.88,3.88,0,0,1,.27-1,2.26,2.26,0,0,0,.21-.75,3.06,3.06,0,0,0-.22-1.2c-.06-.16-.07-.25,0-.27s.11,0,.17.18Z"/><path class="cls-3" d="M24.76,14.25c.06-.26.1-.24.14.08a4,4,0,0,1,0,.85,1.4,1.4,0,0,0,.15.66l.23.45.13.37a3.53,3.53,0,0,1,.11.76c0,.1,0,.13-.05.08a.29.29,0,0,1-.09-.21l-.14-.59a2.17,2.17,0,0,0-.29-.64,1.6,1.6,0,0,1-.23-.74,3.45,3.45,0,0,1,0-1.07Z"/><path class="cls-1" d="M28.66,1.29c.38.35.53.6.43.75a8.49,8.49,0,0,0-.49,1,3.76,3.76,0,0,0-.35,1.21,4.28,4.28,0,0,1,.28.85,1.13,1.13,0,0,1-.07.69,2.54,2.54,0,0,1-.41.59l-.39.46A4.34,4.34,0,0,1,27.8,8.1a2.78,2.78,0,0,1-.2,1.21,2.45,2.45,0,0,1-.69.68l-.61.43a3.2,3.2,0,0,1-.36.87,1,1,0,0,1-.57.34l-1,.2a1.68,1.68,0,0,1-.78,0,1.79,1.79,0,0,1-.33-.18l-.13-.11-.14.09a.25.25,0,0,1-.29-.07L22.25,11a2.75,2.75,0,0,0-.41-.49l-.31-.38c-.52-.22-1-.43-1.32-.61a3.75,3.75,0,0,1-1.29-.92,2.26,2.26,0,0,1-.39-1.21,3.45,3.45,0,0,1,.25-1.54,5.09,5.09,0,0,0,.45-3,5,5,0,0,0-.53-1.16L18.23.9a.43.43,0,0,1,0-.41A.57.57,0,0,1,18.57.2a2.74,2.74,0,0,1,1-.12c.52,0,.8.07.85.2a6.68,6.68,0,0,0,.38.78,3.35,3.35,0,0,0,.53.77,5.64,5.64,0,0,1,2.11-.38,4.64,4.64,0,0,1,2.87.67A1.35,1.35,0,0,0,27,1.83a1.06,1.06,0,0,0,.39-.43A1.92,1.92,0,0,1,27.5,1q.12-.25.33-.21a2.28,2.28,0,0,1,.83.55Z"/><path class="cls-2" d="M18.93.7a5.5,5.5,0,0,0,.38.8,3.48,3.48,0,0,1,.58,1.81l-.31,2.2a8,8,0,0,0-.06,2.14,2.73,2.73,0,0,0,1,1.49,12.06,12.06,0,0,0,1.61,1.13,4.46,4.46,0,0,1,1.16,1,2.52,2.52,0,0,0,.69.66.82.82,0,0,1-.62-.17l-.2-.2-.14.09a.25.25,0,0,1-.29-.07L22.25,11a2.75,2.75,0,0,0-.41-.49l-.38.06a1,1,0,0,1-.07-.27c0-.17-.07-.26-.11-.28-.6-.27-1-.48-1.28-.62a3.21,3.21,0,0,1-1.08-.8,2.26,2.26,0,0,1-.39-1.21,3.45,3.45,0,0,1,.25-1.54,5.09,5.09,0,0,0,.45-3,5,5,0,0,0-.53-1.16L18.23.9a.43.43,0,0,1,0-.41A.57.57,0,0,1,18.57.2,1.49,1.49,0,0,1,19,.11a.62.62,0,0,0-.05.59Z"/><path class="cls-2" d="M27.35,1.4A1.92,1.92,0,0,1,27.5,1q.12-.25.33-.21a1.64,1.64,0,0,1,.53.31.33.33,0,0,0-.35.07,1.88,1.88,0,0,0-.22.38,1.82,1.82,0,0,1-.9,1c-.09,0-.24,0-.44-.19s-.36-.32-.1-.14A1.35,1.35,0,0,0,27,1.83a1.06,1.06,0,0,0,.39-.43Z"/><path class="cls-6" d="M27.46,7.06c.1-.1.11.09,0,.58a3.49,3.49,0,0,1-.22.89L27,9a1.08,1.08,0,0,1-.57.35,2.9,2.9,0,0,1,1.05-2.24Z"/><path class="cls-7" d="M27.49,7.51a5.54,5.54,0,0,1-.89.74A6.35,6.35,0,0,1,27,7.66a4.45,4.45,0,0,1,.48-.6q.09-.09,0,.45Z"/><path class="cls-6" d="M21.36,6c.25,0,.57.34,1,1a4.64,4.64,0,0,1,.72,1.84C22.89,9,22.52,9,22,8.73A2.17,2.17,0,0,1,21,8,2,2,0,0,1,21,6.8c.13-.53.25-.79.34-.78Z"/><path class="cls-7" d="M21.36,6c.23,0,.53.32.9.94A5.16,5.16,0,0,1,23,8.71a2.82,2.82,0,0,0-.81-1.28l-1-1c.09-.28.17-.42.23-.41Z"/><path class="cls-8" d="M21.67,6.24l.3.41a4.51,4.51,0,0,1,.48.85,1.93,1.93,0,0,1-.2.87c-.15.25-.32.3-.51.13a1.09,1.09,0,0,1-.34-.88,4,4,0,0,1,.27-1.38Z"/><path class="cls-9" d="M22.45,7.5l0,.27c-.15-.19-.32-.38-.52-.59l-.41-.4a4.26,4.26,0,0,1,.17-.54l.3.41a4.51,4.51,0,0,1,.48.85Z"/><path class="cls-8" d="M27.14,7.42A3.18,3.18,0,0,1,27,8.49q-.22.67-.51.39a2.94,2.94,0,0,1,.39-1c.11-.18.22-.34.31-.46Z"/><path class="cls-9" d="M27.1,7.86l-.42.31A3.73,3.73,0,0,1,27,7.63l.15-.21,0,.44Z"/><path class="cls-3" d="M23.94,7c0-.12,0-.18,0-.19s.08,0,.09.15a3.09,3.09,0,0,1,.05.78,3.1,3.1,0,0,1-.25,1c0,.07-.05.1-.09.08s0-.07,0-.14A2.61,2.61,0,0,0,24,7.68a3.58,3.58,0,0,0,0-.7Z"/><path class="cls-3" d="M20.9,7.55a4.41,4.41,0,0,1,.11-1,2.9,2.9,0,0,1,.24-.73l.17.16a4,4,0,0,0-.25.77,3.62,3.62,0,0,0-.16.83c0,.14,0,.2-.06.19s-.05-.07-.05-.19Z"/><path class="cls-3" d="M21.14,8.23c-.06-.08-.09-.13-.07-.15s.07,0,.15.1a1.89,1.89,0,0,0,.48.4,3.37,3.37,0,0,0,.72.28l.23.09h-.23a2.32,2.32,0,0,1-.73-.24,1.89,1.89,0,0,1-.55-.47Z"/><path class="cls-3" d="M24.13,11.34a.06.06,0,0,1,0-.08s.05,0,.11,0a.32.32,0,0,1,.13.08l.05.11s0,.06,0,.06,0,0-.07,0l-.18-.13Z"/><path class="cls-3" d="M27.36,8.14a4.88,4.88,0,0,0,.09-1.07.2.2,0,0,1,.06-.15h.07v.49a4.11,4.11,0,0,1-.12.71c0,.1-.06.15-.08.16s0,0,0-.15Z"/><path class="cls-3" d="M26.39,9.29a1.61,1.61,0,0,0,.33-.16A1.15,1.15,0,0,0,27,8.84c.08-.1.13-.15.14-.14l-.07.16a1.21,1.21,0,0,1-.35.37,1.39,1.39,0,0,1-.35.17l0-.11Z"/><path class="cls-3" d="M26.93,8.39a3.76,3.76,0,0,0,.15-.8,3.5,3.5,0,0,0-.59,1.26.16.16,0,0,0,.15.05c.1-.05.2-.22.29-.51Zm.17-1,.1-.12v.15a4,4,0,0,1-.09.87c-.09.39-.23.62-.43.71a.27.27,0,0,1-.28-.09h0v0a3,3,0,0,1,.4-1,3.33,3.33,0,0,1,.32-.48Z"/><path class="cls-3" d="M21,5.57c0-.07.07-.05.26.07a3.93,3.93,0,0,1,1,1.15,5.2,5.2,0,0,1,.85,2c0,.2,0,.14-.14-.18a8.73,8.73,0,0,0-1-1.89,5.44,5.44,0,0,0-.8-.92A.59.59,0,0,1,21,5.57Z"/><path class="cls-3" d="M22.14,7.54a1,1,0,0,1-.07.4c-.05.11-.11.17-.18.17s-.13-.06-.18-.17a1,1,0,0,1-.07-.4,1,1,0,0,1,.07-.4c.05-.11.11-.17.18-.17s.13.06.18.17a1,1,0,0,1,.07.4Z"/><path class="cls-3" d="M26.84,8.29l-.09.33c0,.08-.08.13-.11.12s-.05-.06-.05-.15a1.42,1.42,0,0,1,0-.34,1.48,1.48,0,0,1,.11-.32c0-.09.08-.13.1-.13s.05.06.06.16l-.05.33Z"/><path class="cls-6" d="M21.91,7.23a.29.29,0,0,1-.06.19.14.14,0,0,1-.13.08.15.15,0,0,1-.13-.08.33.33,0,0,1,0-.38A.15.15,0,0,1,21.72,7a.14.14,0,0,1,.13.08.29.29,0,0,1,.06.19Z"/><path class="cls-3" d="M28.85,2.26a.5.5,0,0,0,0-.6,2.45,2.45,0,0,0-.49-.48,1.86,1.86,0,0,0-.55-.34c-.16,0-.29.11-.38.43l-.06.16a1.22,1.22,0,0,1-.3.46.88.88,0,0,1-.61.26q.43.39.45.48c0,.06,0,.05-.15,0l-.28-.24a2,2,0,0,0-.44-.29,5.7,5.7,0,0,0-2.69-.52,5,5,0,0,0-1.9.34l.06.1.29.24q.11.07.09.12s-.05,0-.12,0a1.33,1.33,0,0,1-.6-.5,3.25,3.25,0,0,1-.56-1,1.62,1.62,0,0,0-.28-.55C20.31.23,20,.19,19.59.18a3.1,3.1,0,0,0-1,.09.5.5,0,0,0-.33.28.35.35,0,0,0,0,.31l.17.29.45.75a4.44,4.44,0,0,1,.38.91,3.16,3.16,0,0,1,0,1.55l-.45,1.56a4.72,4.72,0,0,0-.27,1.64,2.07,2.07,0,0,0,.38,1,5.88,5.88,0,0,0,2.31,1.33c.11,0,.19.16.24.36a7.6,7.6,0,0,1,.13,1.49l.33.18c.23.13.35.23.36.28s-.06.05-.22,0l-.68-.32a2.68,2.68,0,0,0-2.73-.21,1.44,1.44,0,0,0-.58.82,2.14,2.14,0,0,0,.07,1.19,1.88,1.88,0,0,1,.45-.54,1.4,1.4,0,0,1,.64-.36.7.7,0,0,1,.63.21,2.3,2.3,0,0,1,.57,1,4.55,4.55,0,0,1,.22,1.43,3,3,0,0,1-.08.52,1.53,1.53,0,0,0-.07.57,2.76,2.76,0,0,0,.85,1.58c.47.51.84.77,1.11.79a1.21,1.21,0,0,0,.57-.11,2.53,2.53,0,0,0,.59-.3,4.35,4.35,0,0,1,.4-.25,1.16,1.16,0,0,1,.75-.14,1.35,1.35,0,0,1,.44.27.94.94,0,0,0,.39.21.24.24,0,0,0,.28-.12,11.1,11.1,0,0,0,1-2.05,8.85,8.85,0,0,0,.44-1.76A3,3,0,0,0,27,13q-.45-1-1-.93a4.15,4.15,0,0,0-.61.14l-.53.18a2.75,2.75,0,0,1-.65.21h-.28c-.05,0,0-.07.23-.15-.15,0-.29-.19-.43-.46a1.5,1.5,0,0,1-.59-.32l-.33,0a.7.7,0,0,1-.31-.22l-.28-.4a3.85,3.85,0,0,0-.31-.4.44.44,0,0,1-.15-.2s0,0,.13,0a2.14,2.14,0,0,1,.42.47l.34.43a.51.51,0,0,0,.38.19l-.1-.17a1.48,1.48,0,0,0-.46-.54c-.08,0-.12-.06-.12-.1s0,0,.09,0a1,1,0,0,1,.34.21l.22.27a1.43,1.43,0,0,0,.93.64,3.08,3.08,0,0,0,1.43-.27,1.33,1.33,0,0,0,.56-.44,2.48,2.48,0,0,0,.31-.71c.12-.43.19-.59.2-.47a1.35,1.35,0,0,1,0,.35,2.09,2.09,0,0,0,1.14-1A3,3,0,0,0,27.69,8a7.09,7.09,0,0,1,0-1.15,4,4,0,0,0-1.27,2.48.26.26,0,0,1-.06.2s-.07,0-.07-.24a3.16,3.16,0,0,1,.76-2q.11-.13.72-.81a3.6,3.6,0,0,0,.58-.78,1.35,1.35,0,0,0,0-.79,2.67,2.67,0,0,0-.22-.69l-.25-.39c-.08-.13-.11-.2-.06-.19s.22.12.31.31a5.05,5.05,0,0,1,.35-1.13,2.6,2.6,0,0,1,.32-.59Zm.32-.47a.44.44,0,0,1,0,.32L29,2.42a4.46,4.46,0,0,0-.36.73,3.43,3.43,0,0,0-.28,1.05,2.77,2.77,0,0,1,.35,1.07,1.08,1.08,0,0,1-.07.5,3,3,0,0,1-.33.5,3.15,3.15,0,0,1-.39.41,6.85,6.85,0,0,0,0,1.39,2.92,2.92,0,0,1-.14,1.3,1.75,1.75,0,0,1-.51.68,2.5,2.5,0,0,1-.85.42,2.78,2.78,0,0,1-.37.85,1.53,1.53,0,0,1-.61.39,3.59,3.59,0,0,1-1.45.32.78.78,0,0,0,.43.35l.22-.08.68-.25a3.32,3.32,0,0,1,.79-.17c.45,0,.84.31,1.17,1a3,3,0,0,1,.26,2,15.49,15.49,0,0,1-.73,2.37,9.09,9.09,0,0,1-.65,1.2c-.17.27-.34.37-.51.31l-.35-.2-.32-.22a.72.72,0,0,0-.26-.15.93.93,0,0,0-.56.13,3.31,3.31,0,0,0-.38.24,6.62,6.62,0,0,1-.62.38,1.21,1.21,0,0,1-.62.16,2.38,2.38,0,0,1-1.19-.77,3.49,3.49,0,0,1-1-1.48,1,1,0,0,1,0-.49l.13-.43a3.65,3.65,0,0,0-.07-1.48,3,3,0,0,0-.57-1.37.78.78,0,0,0-.27-.1l-.36,0a1.82,1.82,0,0,0-.7.57l-.45.53a3.29,3.29,0,0,1-.21-1.53,1.59,1.59,0,0,1,.53-1c.68-.56,1.7-.5,3.07.17a2.39,2.39,0,0,0,0-.78,3.35,3.35,0,0,0-.16-.83,7.74,7.74,0,0,1-1.49-.62,3.21,3.21,0,0,1-1.11-.81,1.87,1.87,0,0,1-.41-1.09A5.85,5.85,0,0,1,18.53,6l.53-1.79a3.1,3.1,0,0,0,.09-1.37A3.66,3.66,0,0,0,18.77,2l-.44-.71L18.07.92a.49.49,0,0,1,0-.43A.53.53,0,0,1,18.2.24,1.43,1.43,0,0,1,18.48.1,3.13,3.13,0,0,1,19.54,0a1.68,1.68,0,0,1,1,.21,1.65,1.65,0,0,1,.34.66,2.38,2.38,0,0,0,.5.86,6,6,0,0,1,2-.41,5.23,5.23,0,0,1,3,.69,1.28,1.28,0,0,0,.51-.23.83.83,0,0,0,.28-.3L27.32,1c.09-.3.27-.42.52-.36a1.76,1.76,0,0,1,.67.34,2,2,0,0,1,.66.79Z"/><path class="cls-1" d="M19.35,22.5a1.24,1.24,0,0,1,1.54,0,3.47,3.47,0,0,1,1,1.8,10.84,10.84,0,0,1,.38,2.87,13.33,13.33,0,0,1-.36,3.25,5.87,5.87,0,0,1-1,2l-.67.9c-.29.38-.52.73-.71,1a15.26,15.26,0,0,0-2.33,7.06,13.77,13.77,0,0,0,.31,3.76,1.18,1.18,0,0,1,.67,1.56,1.4,1.4,0,0,1-1.13.92,1.47,1.47,0,0,1-1.39-.34l-.59.06-.71.16a1.35,1.35,0,0,1-1.15.75,1.7,1.7,0,0,1-1.62-.62,1.32,1.32,0,0,1-.23-1.37,1.34,1.34,0,0,1,1-1A24,24,0,0,0,13.61,43c.39-.92.66-1.52.81-1.82a12.94,12.94,0,0,0,.95-3.33,10.81,10.81,0,0,0,.31-3.31,4.83,4.83,0,0,0-.44-1.17,7.74,7.74,0,0,1-.57-1.84,7.77,7.77,0,0,1,1.17-5.12,10.24,10.24,0,0,1,3.51-3.95Z"/><path class="cls-2" d="M17.61,24a19.05,19.05,0,0,0-1.11,4.54,23.26,23.26,0,0,0,.09,4.81,10.68,10.68,0,0,1,0,3.07,27,27,0,0,1-1.36,4.12c-.25.66-.61,1.8-1.06,3.43-.33,1.17-.57,1.77-.71,1.82a2,2,0,0,0-1.08.74c-.42.55-.34,1.16.23,1.84a1.81,1.81,0,0,1-1-.59,1.27,1.27,0,0,1-.38-1.19,2.86,2.86,0,0,1,1.34-1.4,7.74,7.74,0,0,0,.76-1.57c.52-1.21.88-2,1.07-2.37a12.94,12.94,0,0,0,.95-3.33,10.81,10.81,0,0,0,.31-3.31,4.83,4.83,0,0,0-.44-1.17,7.74,7.74,0,0,1-.57-1.84,6.93,6.93,0,0,1,.59-3.93A12.36,12.36,0,0,1,17.61,24Z"/><path class="cls-2" d="M17.82,47.39a1.64,1.64,0,0,1-1.09.38,1.36,1.36,0,0,1-1-.37l-.59.06-.71.16,0-.3a1.42,1.42,0,0,0-.13-.52,1.83,1.83,0,0,1,.74-.23c.43-.07.67,0,.73.1a1.19,1.19,0,0,0,.78.66,2.94,2.94,0,0,0,1.34.06Z"/><path class="cls-1" d="M17.22,42.14a.77.77,0,0,1,.43.27A1.51,1.51,0,0,1,18,43a1.36,1.36,0,0,1-.57,1.53l-.19-2.38Z"/><path class="cls-2" d="M17.41,44.52l0-.44a1.93,1.93,0,0,0,.6-.33,1.64,1.64,0,0,1-.56.77Z"/><path class="cls-3" d="M20.78,22.57a1.17,1.17,0,0,0-1.39,0,10.19,10.19,0,0,0-3.5,3.92,7.68,7.68,0,0,0-1.13,5,7.89,7.89,0,0,0,.32,1.21c.08.2.19.47.34.78l.21.5a2.38,2.38,0,0,1,.15.52,11.13,11.13,0,0,1-.31,3.31,12.62,12.62,0,0,1-1,3.38q-.25.51-.66,1.47l-.6,1.37a6.6,6.6,0,0,1-.57,1.07l-.6.52a1.69,1.69,0,0,0-.58.73,1.59,1.59,0,0,0-.1.71,1.16,1.16,0,0,0,.26.62,1.64,1.64,0,0,0,1.57.53,1.56,1.56,0,0,0,.64-.25,1.44,1.44,0,0,0,.4-.45.67.67,0,0,0,0-.53c0-.17-.06-.26,0-.25s.2.15.25.36l0,.31a3.71,3.71,0,0,1,1-.15c-.16-.21-.22-.33-.19-.38s.07,0,.13.05l.29.34a1.08,1.08,0,0,0,.58.31,1.67,1.67,0,0,0,.77,0c.58-.14.92-.39,1-.77a1.39,1.39,0,0,0,0-.88,1.07,1.07,0,0,0-.62-.63,1.28,1.28,0,0,0-.64-.07c-.18,0-.26,0-.23,0s.19-.15.41-.16h.31a14.79,14.79,0,0,1,0-5.47,16,16,0,0,1,2.12-5.32,7.56,7.56,0,0,1,.6-.83l.59-.75a9.11,9.11,0,0,0,.71-1,5.08,5.08,0,0,0,.45-1.26,13,13,0,0,0,.25-4.77c-.22-1.6-.65-2.63-1.3-3.1Zm-1.48-.15a1.33,1.33,0,0,1,1.59,0A3.28,3.28,0,0,1,22,24.13a9.69,9.69,0,0,1,.39,3.11q0,2-.09,2.49a5.32,5.32,0,0,1-1.28,3c-.24.26-.48.54-.72.83a6.41,6.41,0,0,0-.67,1A21.8,21.8,0,0,0,18,38.35a13.79,13.79,0,0,0-.64,4c0,.57,0,1,0,1.4a11.28,11.28,0,0,0,.19,1.4l0,.07a1.43,1.43,0,0,1,.9,1.18,1.28,1.28,0,0,1-.43,1.07,1.91,1.91,0,0,1-1,.39,1.74,1.74,0,0,1-1.47-.36l-.56.07-.65.14a1.47,1.47,0,0,1-.45.52,1.82,1.82,0,0,1-.7.29A1.93,1.93,0,0,1,11.39,48a1.17,1.17,0,0,1-.3-.61,1.54,1.54,0,0,1,.13-1,2.4,2.4,0,0,1,.53-.73l.69-.53a2.1,2.1,0,0,0,.46-.84l.45-1.19,1-2.26a18.66,18.66,0,0,0,.88-3.14,16.13,16.13,0,0,0,.36-3.1,2,2,0,0,0-.23-.61l-.47-1a4.8,4.8,0,0,1-.59-2.37A11,11,0,0,1,16,25.85a10.35,10.35,0,0,1,3.29-3.43Z"/><path class="cls-3" d="M17.21,42.23l0-.17a1.07,1.07,0,0,1,.49.24,1.39,1.39,0,0,1,.44,1.42,1.27,1.27,0,0,1-.71.87l-.1-.14a1.49,1.49,0,0,0,.55-.79,1.22,1.22,0,0,0,0-.6,1.31,1.31,0,0,0-.3-.57.74.74,0,0,0-.4-.26Z"/><path class="cls-1" d="M19.7,16.06l0,0a8.74,8.74,0,0,0-1.93,2.06,12.77,12.77,0,0,0-1.42,2.23,21.76,21.76,0,0,0-.82,3A14.62,14.62,0,0,0,15,26.3a1.24,1.24,0,0,0,.56.86l.77.6a1.81,1.81,0,0,1,.27.91c.05.49.09.76.1.79a3.17,3.17,0,0,1,.22.53,1.63,1.63,0,0,1,0,.54.71.71,0,0,1-.48.48,1.29,1.29,0,0,1-.77.06,1.6,1.6,0,0,1,.09.64.89.89,0,0,1-.34.62.94.94,0,0,1-.83.23.9.9,0,0,1-.62-.37,3.09,3.09,0,0,1-1-1,1.14,1.14,0,0,1-1.62.51,1.35,1.35,0,0,1-.67-.7c-.08-.17-.21-.5-.37-1a2.75,2.75,0,0,1-.15-.79,1.05,1.05,0,0,1,.2-.63l.75-.94a4.65,4.65,0,0,0,.79-1.41c.15-.47.56-1.57,1.25-3.29s1.09-2.71,1.39-3.41a15,15,0,0,1,1.33-2.21l1.59-2.25a5.62,5.62,0,0,1,.89-1.37c.39-.45.68-.69.9-.72a.45.45,0,0,1,.52.22,4.47,4.47,0,0,1,.31,1.22A2,2,0,0,1,20,15.73a.8.8,0,0,1-.29.33ZM12.12,28.77c-.25.22-.37.37-.35.45l.15.44.33,0a1,1,0,0,1,.55.3l-.08-1-.06-.52c-.1,0-.28,0-.54.26Zm2.4.9c-.08.46,0,.76.13.92H15a.66.66,0,0,1,.33.11,2.29,2.29,0,0,1-.16-.48.79.79,0,0,1,.34-.67A1.34,1.34,0,0,0,15,29l-.25,0c-.07,0-.15.24-.22.66Z"/><path class="cls-2" d="M20.17,15.09a1.18,1.18,0,0,0-.51-.9.72.72,0,0,0-.84,0,12,12,0,0,0-1.88,2.29,15,15,0,0,0-1.81,3,31,31,0,0,0-1,3.66c-.39,1.87-.5,3-.31,3.49a2.74,2.74,0,0,0,.42.81A8.13,8.13,0,0,0,15,28a3,3,0,0,1,.86,1.17c.18.43.19.7,0,.78a.82.82,0,0,0-.37.34,1,1,0,0,0,0,.7.8.8,0,0,1-.32-.68,1,1,0,0,1,.3-.73.39.39,0,0,0-.09-.17l-.19-.22a1.13,1.13,0,0,0-.43-.32,1.16,1.16,0,0,0-.5-.11c-.17,0-.33.15-.48.4a2.45,2.45,0,0,0-.26,1.1,3.13,3.13,0,0,0,.07.87,1.89,1.89,0,0,0,.43.48,4.53,4.53,0,0,0,.63.5,2,2,0,0,0,.84.26,1.55,1.55,0,0,1-1.37,0,4.17,4.17,0,0,1-.66-.57,3,3,0,0,1-.42-.54,1.26,1.26,0,0,1-.22-.61V29.48a1.81,1.81,0,0,0-.1-.59,3.75,3.75,0,0,0-.22-.65c-.06-.13-.25,0-.55.23a2,2,0,0,0-.5.6c0,.09,0,.31.08.66a1.69,1.69,0,0,0,.28.64s.15,0,.33,0a.69.69,0,0,1,.59.2,3,3,0,0,0,.21.66l-.09.19a1.06,1.06,0,0,1-.49.33,1.1,1.1,0,0,1-.89-.09,1.2,1.2,0,0,1-.65-.57,8.46,8.46,0,0,1-.35-.88,5.8,5.8,0,0,1-.24-.88c-.06-.36.16-.78.66-1.24a3.89,3.89,0,0,0,.58-.84l.45-.88c.05-.1.24-.68.59-1.73a16.35,16.35,0,0,1,.79-2.08q.19-.37.72-1.77a8.21,8.21,0,0,1,.76-1.66l1-1.59c.5-.77.86-1.29,1.07-1.55a10.27,10.27,0,0,0,.84-1.4,8.45,8.45,0,0,1,.72-1.19,1.25,1.25,0,0,1,.68-.41.69.69,0,0,1,.65.16,2,2,0,0,1,.32.67,2.09,2.09,0,0,1,.07,1.27Z"/><path class="cls-3" d="M19.62,16c.14-.09.2-.1.2,0a.27.27,0,0,1-.12.18,10.59,10.59,0,0,0-1.94,2.1,11.5,11.5,0,0,0-1.37,2.16,20.79,20.79,0,0,0-.82,3,16.25,16.25,0,0,0-.48,2.86.82.82,0,0,0,.31.56l.58.44a2.11,2.11,0,0,1,.53.47.9.9,0,0,1,.17.53l0,.65a1.71,1.71,0,0,0,.13.53,2.28,2.28,0,0,1,.21.52,1.58,1.58,0,0,1,0,.52.78.78,0,0,1-.13.28l-.25.23a1.25,1.25,0,0,1-.86.18,1.18,1.18,0,0,1,.07.64,1,1,0,0,1-.29.51,1.23,1.23,0,0,1-.74.24,1,1,0,0,1-.91-.31L13.57,32,13,31.33a1.15,1.15,0,0,1-.69.55,1.51,1.51,0,0,1-1-.1,1.37,1.37,0,0,1-.68-.67,7.22,7.22,0,0,1-.43-1.2,4,4,0,0,1-.15-.78.93.93,0,0,1,.23-.58l.82-1.08a4.73,4.73,0,0,0,.71-1.23c.13-.48.54-1.58,1.21-3.31s1.08-2.73,1.39-3.42A18.1,18.1,0,0,1,16,17.09L17.42,15c.37-.74.62-1.2.74-1.38.37-.55.74-.82,1.11-.82h.14a.7.7,0,0,1,.19.1c.06,0,.06.05,0,0l-.33,0a2.28,2.28,0,0,0-1,1c-.18.29-.4.68-.66,1.18L16.14,17.2a19.1,19.1,0,0,0-1.49,2.39c-.28.65-.74,1.79-1.37,3.41s-1.08,2.8-1.22,3.28a8,8,0,0,1-1.45,2.31,1,1,0,0,0-.25.47,1.42,1.42,0,0,0,.09.69A10.34,10.34,0,0,0,10.9,31a1.15,1.15,0,0,0,.5.57,1.36,1.36,0,0,0,.85.11,1,1,0,0,0,.67-.52h.15a7.73,7.73,0,0,0,1,1,1.3,1.3,0,0,0,.69.24.75.75,0,0,0,.6-.14.81.81,0,0,0,.33-.56,1.49,1.49,0,0,0-.07-.59l.1-.1a1,1,0,0,0,.8-.12.71.71,0,0,0,.28-.38,1.2,1.2,0,0,0-.1-1,1.65,1.65,0,0,1-.13-.55l-.08-.63a1.18,1.18,0,0,0-.19-.52,2.44,2.44,0,0,0-.51-.43c-.3-.22-.5-.38-.61-.48a1.1,1.1,0,0,1-.33-.66,15.81,15.81,0,0,1,.53-2.86,25.33,25.33,0,0,1,.87-3,12.66,12.66,0,0,1,1.36-2.22,8.22,8.22,0,0,1,2-2.11Z"/><path class="cls-3" d="M11.93,29.18l.06.38.31.06a1.64,1.64,0,0,1,.4.19,11.24,11.24,0,0,0-.16-1.18,2.49,2.49,0,0,0-.44.32c-.12.11-.18.19-.17.23Zm.57-.81c0-.21,0-.3.08-.27a1.37,1.37,0,0,1,.1.25l.1.33.08.53,0,1c0,.25,0,.3-.07.13l-.1-.32a.89.89,0,0,0-.74-.3.46.46,0,0,1-.08.28s-.06,0-.05-.14a1.55,1.55,0,0,0-.09-.44l-.08-.25c0-.07.07-.2.26-.38l.55-.46Z"/><path class="cls-3" d="M14.8,29.08a1.7,1.7,0,0,0-.23.7,1,1,0,0,0,.12.69.85.85,0,0,1,.42.06.86.86,0,0,1,.3-1,1.64,1.64,0,0,0-.36-.32.82.82,0,0,0-.25-.13Zm.83.5c0,.11.06.19,0,.23s-.1,0-.15-.12a.74.74,0,0,0-.21.54,1.48,1.48,0,0,0,.1.41l-.12.12a.45.45,0,0,0-.25-.1h-.29c.12.14.15.21.1.22s-.18-.1-.33-.35a1,1,0,0,1-.14-.38,1.15,1.15,0,0,1,0-.51,2.71,2.71,0,0,1,.21-.57.3.3,0,0,1,.18-.16.5.5,0,0,1,.36.1,1.61,1.61,0,0,1,.49.58Z"/><path class="cls-3" d="M15.2,30.39c0-.06.06,0,.1.05a1.72,1.72,0,0,0,.2.35.59.59,0,0,0,.48.26.33.33,0,0,1,.21,0s0,.05-.05.08a.58.58,0,0,1-.5,0,.69.69,0,0,1-.31-.26.67.67,0,0,1-.14-.3.52.52,0,0,1,0-.22Z"/><path class="cls-3" d="M12.89,30l0,.56A1.19,1.19,0,0,0,13,31a1.88,1.88,0,0,0,.32.49c.1.18.1.25,0,.22a.92.92,0,0,1-.34-.33,1.42,1.42,0,0,1-.22-.42.76.76,0,0,1,0-.27v-.83a1.18,1.18,0,0,1,.06-.41c0-.07.08.12.13.57Z"/></g></g></svg>