<svg xmlns="http://www.w3.org/2000/svg" viewBox="0 0 51.96 44"><defs><style>.cls-1{fill:#e95520;}.cls-1,.cls-2,.cls-3,.cls-4,.cls-5,.cls-6,.cls-7,.cls-8{fill-rule:evenodd;}.cls-2{fill:#0d131a;}.cls-3{fill:#faed00;}.cls-4{fill:#3e4e57;}.cls-5{fill:#fff;}.cls-6{fill:#d7cd00;}.cls-7{fill:#ca4819;}.cls-8{fill:#27333a;}</style></defs><title>Asset 66@</title><g id="Layer_2" data-name="Layer 2"><g id="Layer_1-2" data-name="Layer 1"><path class="cls-1" d="M36.12.67v1L37.6.86a22.45,22.45,0,0,0-1.34,2.05l-1.59,2.7L32.5,9.48a37.57,37.57,0,0,1-2,3.44,8,8,0,0,1-2.73,1.95A25.39,25.39,0,0,1,24,16.39c.21,2.71-.28,4.8-1.46,6.25a7.67,7.67,0,0,1-3.72,2.2,8.46,8.46,0,0,1-3.73.58,7,7,0,0,1-3.23-1.34,3.64,3.64,0,0,1-1.57-2.68,18.55,18.55,0,0,0-.27-2.15,11.42,11.42,0,0,1,0-2.67,28.23,28.23,0,0,1-3.5-2.11A12,12,0,0,1,3.4,11.7,21.54,21.54,0,0,1,1.56,6.64,56.11,56.11,0,0,1,.13.21,2.74,2.74,0,0,0,.6.87l.54.51,0-1.06a10.77,10.77,0,0,0,1.65,2A16.06,16.06,0,0,0,4.48,3.87,28.05,28.05,0,0,1,7.64,6.69l0-.7L8.67,7.06c0-.48,0-.84.07-1.07a21.76,21.76,0,0,1,1.49,3.13c.44,1.08.79,2.07,1.06,3l9.9-.09a19.44,19.44,0,0,1,2-3.4,12.67,12.67,0,0,1,1.56-1.81,7.71,7.71,0,0,0,1-1.15,8.38,8.38,0,0,0,.83-1.38l.05,1.21a3.82,3.82,0,0,1,.71-.64l-.14,1A10.43,10.43,0,0,1,30.65,3.6a21.44,21.44,0,0,1,3-1,3.92,3.92,0,0,0,1.47-.85,6.19,6.19,0,0,0,1-1.08Z"/><path class="cls-1" d="M29.77,22.12a4.92,4.92,0,0,1,2.79,2.48,9.59,9.59,0,0,1,1.34,5A5.91,5.91,0,0,0,34.4,32a4.65,4.65,0,0,0,1.1,1.61,2.39,2.39,0,0,1,.73,1.22,3,3,0,0,1,0,1.26,21.83,21.83,0,0,1-.68,2.51l-1,2.83a2.14,2.14,0,0,1-1.21,1.34,4,4,0,0,1-2,.13c-.81-.12-1.23-.53-1.26-1.25a2.82,2.82,0,0,1,1-2.1,2.23,2.23,0,0,0,.44-1.11,7.5,7.5,0,0,0,.09-1.53,1.91,1.91,0,0,0-.17-.89,1,1,0,0,0-.55-.36,8.54,8.54,0,0,1-2.41-1.47,5.44,5.44,0,0,1-1.54-1.82,4.5,4.5,0,0,1,.95-.18,2.85,2.85,0,0,0-1.12-.25l.11-6.34,2.92-3.44Z"/><path class="cls-1" d="M22.73,31.05l3.16,2.37c.37.3.45.81.23,1.56a18.52,18.52,0,0,1-.82,2.09,12.87,12.87,0,0,1-1.37,2.42,2.9,2.9,0,0,1-1.56,1.09,3.45,3.45,0,0,1-1.54,0,1.18,1.18,0,0,1-1.08-1,1.76,1.76,0,0,1,.55-1.49,5,5,0,0,0,1-2.32,14.68,14.68,0,0,0-2,1.11c-.54.35-1,.71-1.52,1.07a5.44,5.44,0,0,1-1.85.95,17.05,17.05,0,0,1-.32,2,8.51,8.51,0,0,1-.49,1.52,2.31,2.31,0,0,1-1.28,1.27,2.92,2.92,0,0,1-1.7.13c-.81-.15-1.26-.53-1.34-1.14a2.69,2.69,0,0,1,.64-1.82,5.77,5.77,0,0,0,.67-2.65A10.8,10.8,0,0,0,12,35l2.55-3.25,8.19-.74Z"/><path class="cls-2" d="M17.49,21.46a4,4,0,0,1,0-1.13,2.46,2.46,0,0,1,.4-1.1,2.53,2.53,0,0,1,1.56-1l1.56-.06A3.08,3.08,0,0,1,21.13,20a2.22,2.22,0,0,1-.94,1.49,2.51,2.51,0,0,1-1.42.39,2.17,2.17,0,0,1-1.28-.4Z"/><path class="cls-2" d="M10.7,18.4a1.56,1.56,0,0,1,.89.07,2.42,2.42,0,0,1,1,.68,3.25,3.25,0,0,1,.67,2.26,1.42,1.42,0,0,1-.85.35,1.59,1.59,0,0,1-1.14-.27,1.88,1.88,0,0,1-.64-1.14,3.6,3.6,0,0,1,.06-2Z"/><path class="cls-3" d="M44.72,2.28a6.6,6.6,0,0,0,.41,1.94,3.37,3.37,0,0,0,1,1.07,6.22,6.22,0,0,1,2.36,3,6.58,6.58,0,0,1,.31,3.35l.51-.8.4-.75a7.79,7.79,0,0,1-.32,4A2,2,0,0,1,50,13.7a1.81,1.81,0,0,1,.47-.1,3,3,0,0,0-.43.74l.74-.16a2.46,2.46,0,0,1,.94,0A2.84,2.84,0,0,0,50,16.05l-.19,1.08a4.15,4.15,0,0,1-.33,1.09,2.31,2.31,0,0,0,.78-.83,5.34,5.34,0,0,1,0,2.12,3.36,3.36,0,0,0,0,1.75,2.46,2.46,0,0,1,.1,1.37,4.24,4.24,0,0,1-.8,1.86,3.49,3.49,0,0,1,1,.15,3.44,3.44,0,0,1-1.16.9,4.51,4.51,0,0,1,1.14.62,4.9,4.9,0,0,0-1,.23,2.82,2.82,0,0,0-1,.59l.92.08a1.06,1.06,0,0,1,.68.61,1.68,1.68,0,0,1,.53.38,1.28,1.28,0,0,1,.36.6,4.36,4.36,0,0,0-1.5-.19,5.21,5.21,0,0,0-1.75.39,10,10,0,0,1-3.66,3.51,2.19,2.19,0,0,1,.69.2,3,3,0,0,1,.72.43,3.7,3.7,0,0,0-1.25-.13,3.34,3.34,0,0,0-1.29.27,4.41,4.41,0,0,1-1.2.35,3.81,3.81,0,0,1-1.39,0,5.23,5.23,0,0,1,.91,1.11,3.25,3.25,0,0,0-1.85-.53,6,6,0,0,1-1.12,0,2.88,2.88,0,0,1-1-.23,5.24,5.24,0,0,0,1.09.71l-1.25-.15a4.64,4.64,0,0,1-1.44-.51,6.3,6.3,0,0,1-1.83-4.44,9.2,9.2,0,0,0-1.37-4.88,5.55,5.55,0,0,0-2.77-2.43,4.2,4.2,0,0,1,1-1.05,3,3,0,0,0-1.7.32A3.53,3.53,0,0,1,30,20.32a2.28,2.28,0,0,0-1.6.78,14.5,14.5,0,0,1,.1-1.65c.08-.79.16-1.37.23-1.73a5.06,5.06,0,0,0-.7.91q-.47.72-.63,1.05a2.35,2.35,0,0,0-.27-1.12c-.15-.28-.29-.44-.42-.47a1.59,1.59,0,0,0-.49-1,1,1,0,0,0-.8-.34L25,16.05a17.71,17.71,0,0,0,3.44-1.59,11.8,11.8,0,0,0,1.82-1.32A4.17,4.17,0,0,0,31.09,12l.82-1.48a2.23,2.23,0,0,0,1.66-.74A4.14,4.14,0,0,0,34.39,8a7.74,7.74,0,0,1,.16,1.3,1.36,1.36,0,0,0,.59-.67,3.94,3.94,0,0,1-.09,1.65l.65-.5a3.46,3.46,0,0,1,1.16-.5,1.36,1.36,0,0,0-.36.46,1.85,1.85,0,0,0-.19.87A3,3,0,0,1,37.74,10a2.8,2.8,0,0,1,1,.25A2.32,2.32,0,0,0,40.7,10a3.08,3.08,0,0,1-.57.9,1.21,1.21,0,0,0,1.61.36A1.77,1.77,0,0,0,42.5,9.5l.47.88a3.93,3.93,0,0,1,.3,1.19A3.48,3.48,0,0,0,44,10a1.88,1.88,0,0,1,.21,1.11,3.44,3.44,0,0,0,1-3.14A2.27,2.27,0,0,0,43.36,6a.81.81,0,0,1,.48-.21l.57.06a4.07,4.07,0,0,1-.64-1.76l.65.43a3.61,3.61,0,0,1,0-1.35,2.47,2.47,0,0,1,.31-.87Z"/><path class="cls-3" d="M29.22,20.53a1.7,1.7,0,0,1,.8-.21,3.54,3.54,0,0,0-.94,1.1,2.88,2.88,0,0,1,1.71-.35,3.26,3.26,0,0,0-1,1.07,2.71,2.71,0,0,0-.45,1.34,5.53,5.53,0,0,1-.21,1.26,2.68,2.68,0,0,1-.86,1.43l.84-.11a5,5,0,0,0,1.09-.57,3.81,3.81,0,0,1-.79,1.43,5.22,5.22,0,0,1-1.29.87l.59.13.68.09a5.47,5.47,0,0,1-1.41.86l.82.12a3.67,3.67,0,0,1,.78.21,2.4,2.4,0,0,0-1.49.9,10.3,10.3,0,0,1-1.45,1.8,4.4,4.4,0,0,1,1.24.25,3,3,0,0,0-1.43.55A5.57,5.57,0,0,0,25.31,34a2.14,2.14,0,0,1-1,.79l-1.15,0a2.66,2.66,0,0,0,1,.69,3.08,3.08,0,0,1-1.12.13,2.52,2.52,0,0,1-1.22-.28,10.82,10.82,0,0,0,1-1.5,6.29,6.29,0,0,1-.74-.86,3.93,3.93,0,0,1-.21.77l-1-1.39a2.15,2.15,0,0,1-.53.53,1.67,1.67,0,0,1-.27-.72,9.32,9.32,0,0,0-1.35.72,2.6,2.6,0,0,1,.45-.86c-.14,0-.46.14-1,.32L17,33.58l-1.13.92-.83.58a3.77,3.77,0,0,1-.81.41,4.62,4.62,0,0,1,.15-.57,2.24,2.24,0,0,0-.52.22,1.48,1.48,0,0,0-.46.34,2.33,2.33,0,0,1,.18-.7,3,3,0,0,1-1.19.24,1.5,1.5,0,0,0-.63.13,2.81,2.81,0,0,0-.78.45,2,2,0,0,1,.67-1.17,1.71,1.71,0,0,0-1,.19,2.4,2.4,0,0,1,.49-.64,4.14,4.14,0,0,1-1.08-.18,2.69,2.69,0,0,1-.9-.43l.76-.15a4.58,4.58,0,0,0-1-.57,4.11,4.11,0,0,0-1.44-.34,7.62,7.62,0,0,1,1.18-.48s-.12-.19-.41-.42a3.57,3.57,0,0,0-.64-.4,7.87,7.87,0,0,1,1.32,0,4,4,0,0,1-1.12-.91A3.06,3.06,0,0,1,7.1,28.7a4.32,4.32,0,0,0-.27-.95,2.84,2.84,0,0,0-.8-.94l.44.05a1.2,1.2,0,0,1,.51.28,2.17,2.17,0,0,0-.25-.69,4.26,4.26,0,0,0-.47-.72,3,3,0,0,1,1.12.55,8.56,8.56,0,0,1-.25-1.51,9.76,9.76,0,0,1-.07-1.33,2.46,2.46,0,0,0-.18-1,2.73,2.73,0,0,0-.49-.89,1.57,1.57,0,0,1,.73.28,2.6,2.6,0,0,1,.77.67l-.06-.75a1.12,1.12,0,0,1,.48.29,3.13,3.13,0,0,1,.21-1.52,2.31,2.31,0,0,1,.55-.71,1.57,1.57,0,0,0,.38-.69,2.34,2.34,0,0,0,.12-.74l.46.47.15,1.18.13,1.26A3.51,3.51,0,0,0,12,24.17a6.25,6.25,0,0,0,2.93,1.22,9.16,9.16,0,0,0,3.77-.48,9.1,9.1,0,0,0,3.84-2.15,5.85,5.85,0,0,0,1.34-3.08A11.88,11.88,0,0,0,24,16.39l.95-.32.53.66a1,1,0,0,1,.79.44,2.35,2.35,0,0,1,.42.92c.41.18.64.71.7,1.59a6.86,6.86,0,0,1,.82-1.35l.48-.62-.16,1.52c-.11,1.05-.16,1.68-.15,1.87a3.06,3.06,0,0,1,.8-.57Z"/><path class="cls-3" d="M16.59,4.64a4.18,4.18,0,0,1,3,2.07,8.82,8.82,0,0,1,1.57,4,6.71,6.71,0,0,1-.54,3.65,3.12,3.12,0,0,1-2.05,2A3.26,3.26,0,0,1,17,17.91a5.17,5.17,0,0,1-2.27.42,3.92,3.92,0,0,1-2.48-1,3.55,3.55,0,0,1-1.4-2.58,4.8,4.8,0,0,1,.46-2.57,4.68,4.68,0,0,1,1.5-1.62l1.92-1.17a4.54,4.54,0,0,0,1.58-1.53,2.6,2.6,0,0,0,.15-1.95,3.33,3.33,0,0,0-1.13-1.69,1.8,1.8,0,0,1,1.31.42Z"/><path class="cls-4" d="M2.7,7.4A22.46,22.46,0,0,1,1.73,3,40.93,40.93,0,0,1,5,5.66,37.59,37.59,0,0,1,7.9,8.45,14.72,14.72,0,0,1,9.57,11a27.25,27.25,0,0,1,1.24,2.55l0,.39a8.33,8.33,0,0,1-1.47-.6A11.63,11.63,0,0,0,10.1,15a18.09,18.09,0,0,1-2.88-1.57,14.91,14.91,0,0,1-2.77-2.13A10.77,10.77,0,0,1,2.7,7.4Z"/><path class="cls-4" d="M32,8.09A22.9,22.9,0,0,1,29.25,12a11.51,11.51,0,0,1-3.19,2.11,23.24,23.24,0,0,1-3.62,1.46,13.84,13.84,0,0,0,1.29-2.22,12.34,12.34,0,0,0-2,1,23.48,23.48,0,0,1,1.83-4.72,15.81,15.81,0,0,1,4.71-3.45A30,30,0,0,1,34.52,3.5Q33.35,5.81,32,8.09Z"/><path class="cls-5" d="M19.4,19.59a.91.91,0,0,1-.12.47.42.42,0,0,1-.34.22.38.38,0,0,1-.35-.2.87.87,0,0,1-.15-.47.84.84,0,0,1,.11-.49.41.41,0,0,1,.36-.26.38.38,0,0,1,.35.2.84.84,0,0,1,.14.53Z"/><path class="cls-5" d="M11.49,18.78a.36.36,0,0,1,.29.14.8.8,0,0,1,.17.43,1,1,0,0,1,0,.48.29.29,0,0,1-.26.23.32.32,0,0,1-.33-.19,1.09,1.09,0,0,1-.13-.45.84.84,0,0,1,0-.39c.06-.16.15-.24.26-.25Z"/><path class="cls-6" d="M29.15,24.66a2.92,2.92,0,0,1-.93,1.5l.71-.07a3.75,3.75,0,0,0,1.21-.59A3.79,3.79,0,0,1,29.32,27a3.7,3.7,0,0,1-1.22.81l.61.13.68.09-.69.44-.74.42.82.12a3.67,3.67,0,0,1,.78.21,2.4,2.4,0,0,0-1.49.9,10.3,10.3,0,0,1-1.45,1.8,4.4,4.4,0,0,1,1.24.25,3.11,3.11,0,0,0-1.38.51A5.48,5.48,0,0,0,25.31,34a1.93,1.93,0,0,1-2.17.84,1.82,1.82,0,0,0,.46.36l.56.32-1.06.15a2.21,2.21,0,0,1-1.28-.3,10.82,10.82,0,0,0,1-1.5,6.29,6.29,0,0,1-.74-.86,3.93,3.93,0,0,1-.21.77l-1-1.39a2.15,2.15,0,0,1-.53.53,1.67,1.67,0,0,1-.27-.72,9.32,9.32,0,0,0-1.35.72,2.6,2.6,0,0,1,.45-.86c-.14,0-.46.14-1,.32L17,33.58l-1.13.92-.83.58a3.77,3.77,0,0,1-.81.41,4.62,4.62,0,0,1,.15-.57,2.24,2.24,0,0,0-.52.22,1.48,1.48,0,0,0-.46.34,2.33,2.33,0,0,1,.18-.7,3,3,0,0,1-1.19.24,1.5,1.5,0,0,0-.63.13,2.81,2.81,0,0,0-.78.45,2,2,0,0,1,.67-1.17,1.71,1.71,0,0,0-1,.19,2.4,2.4,0,0,1,.49-.64,4.14,4.14,0,0,1-1.08-.18,2.69,2.69,0,0,1-.9-.43l.76-.15a4.58,4.58,0,0,0-1-.57,4.11,4.11,0,0,0-1.44-.34,7.12,7.12,0,0,1,1.28-.5A8.06,8.06,0,0,0,7.56,31l1.32,0a4,4,0,0,1-1.12-.91A3.06,3.06,0,0,1,7.1,28.7a4.32,4.32,0,0,0-.27-.95,2.84,2.84,0,0,0-.8-.94l.44.05a1.2,1.2,0,0,1,.51.28,2.17,2.17,0,0,0-.25-.69,4.26,4.26,0,0,0-.47-.72,3,3,0,0,1,1.12.55,8.56,8.56,0,0,1-.25-1.51,9.76,9.76,0,0,1-.07-1.33,2.46,2.46,0,0,0-.18-1,2.73,2.73,0,0,0-.49-.89,3.46,3.46,0,0,1,.82.9,3.09,3.09,0,0,1,.52,1.1,6.33,6.33,0,0,0,.38,1.24,3.77,3.77,0,0,0,.48,1,3,3,0,0,0,0-1.2,4.13,4.13,0,0,1,.69,1.59,3.29,3.29,0,0,1,.11,1.74,1.08,1.08,0,0,0,.6-.77,3.75,3.75,0,0,1,.3-1,8.42,8.42,0,0,1,.33,1.45,1.33,1.33,0,0,1-.32,1.24,1.45,1.45,0,0,0,.9-.29,1.29,1.29,0,0,0,.49-.89,3.17,3.17,0,0,1,.21,1.06,2.09,2.09,0,0,1-.19,1c.28-.08.59-.4,1-1a4.79,4.79,0,0,1,.86-1.11,2.68,2.68,0,0,0,0,1.7,3.71,3.71,0,0,1,.19,1.82,3.82,3.82,0,0,0,.54-.8,1.71,1.71,0,0,0,0-1.2c.21.08.42.36.63.83a1.83,1.83,0,0,1,.22,1.21,2.53,2.53,0,0,0,.58-1,3.53,3.53,0,0,0,.14-1.56,2,2,0,0,1,.52,1.15,1.38,1.38,0,0,0,.32-.52.92.92,0,0,0,.07-.49l.3.48c.17.16.36.06.55-.32A1.3,1.3,0,0,0,18.7,29c.08.22.28.28.6.19a.67.67,0,0,0,.55-.48,1.13,1.13,0,0,1,.1.69,1.79,1.79,0,0,1-.43,1,1.83,1.83,0,0,0,1-.64,1.75,1.75,0,0,0,.57-1.21,1.47,1.47,0,0,1,.51,1A3.4,3.4,0,0,0,22,30.65a2,2,0,0,1,.65-.83,1.19,1.19,0,0,0,.54-.76,1.37,1.37,0,0,0-.12-1,1.19,1.19,0,0,1,.59.7,1.25,1.25,0,0,1,.07,1,1.48,1.48,0,0,0,.65-.57.91.91,0,0,0,.2-.77,3.56,3.56,0,0,1-.17-1,1.44,1.44,0,0,1,.17-.8,3.09,3.09,0,0,0,.41,1,1.13,1.13,0,0,0,.7.53,1.16,1.16,0,0,0,.13-.78,2.11,2.11,0,0,0-.4-.82,1.62,1.62,0,0,0,1.12-.13,3.56,3.56,0,0,0,1.33-.86,2.41,2.41,0,0,1-1.37.13,5.17,5.17,0,0,0,1.36-.85,2.27,2.27,0,0,0,.75-1.06,1.17,1.17,0,0,1-.67.38l-.69.13a3.7,3.7,0,0,0,.89-1.34,3.6,3.6,0,0,0,.3-1.46l0-.35a3.06,3.06,0,0,1,.8-.57,1.7,1.7,0,0,1,.8-.21,3.54,3.54,0,0,0-.94,1.1,2.88,2.88,0,0,1,1.71-.35,3.26,3.26,0,0,0-1,1.07,2.71,2.71,0,0,0-.45,1.34,4.69,4.69,0,0,1-.17,1.18Z"/><path class="cls-6" d="M49.42,15.2a4,4,0,0,1,2.08-.86A2.59,2.59,0,0,0,50,15.83a9.87,9.87,0,0,0-.21,1,10.35,10.35,0,0,1-.34,1.36,2.31,2.31,0,0,0,.78-.83,3.22,3.22,0,0,1,0,1.87,3.51,3.51,0,0,0,0,2,3,3,0,0,1,.07,1.38,4.1,4.1,0,0,1-.77,1.85,3.49,3.49,0,0,1,1,.15,3.44,3.44,0,0,1-1.16.9,4.51,4.51,0,0,1,1.14.62,4.9,4.9,0,0,0-1,.23,2.82,2.82,0,0,0-1,.59l.92.08a1.06,1.06,0,0,1,.68.61,1.68,1.68,0,0,1,.53.38,1.28,1.28,0,0,1,.36.6,4.36,4.36,0,0,0-1.5-.19,5.21,5.21,0,0,0-1.75.39,10,10,0,0,1-3.66,3.51,2.19,2.19,0,0,1,.69.2,3,3,0,0,1,.72.43,3.7,3.7,0,0,0-1.25-.13,3.34,3.34,0,0,0-1.29.27,4.41,4.41,0,0,1-1.2.35,3.81,3.81,0,0,1-1.39,0,5.23,5.23,0,0,1,.91,1.11,3.25,3.25,0,0,0-1.85-.53,6,6,0,0,1-1.12,0,2.88,2.88,0,0,1-1-.23,5.24,5.24,0,0,0,1.09.71l-1.25-.15a4.64,4.64,0,0,1-1.44-.51,6,6,0,0,1-1.83-4.44,8.59,8.59,0,0,0-.57-3.21,8.17,8.17,0,0,0-1.9-3.08,3.41,3.41,0,0,1,2.08,1.62,6,6,0,0,0,.55.8A1.61,1.61,0,0,0,35,26a2.2,2.2,0,0,1-.34-1A2.8,2.8,0,0,0,34,23.73l.65.05a.94.94,0,0,1,.68.33,3.87,3.87,0,0,1,.44.79,1.07,1.07,0,0,0,.81.49c-.28-.24-.34-.64-.19-1.21a7.68,7.68,0,0,1,.7-1.58L37.2,24a1.62,1.62,0,0,0,.87,1.19.65.65,0,0,0,.49-.41,2.42,2.42,0,0,0,.12-.71,1.74,1.74,0,0,1,.74-1.49,3.08,3.08,0,0,0,.36,1.9,1.62,1.62,0,0,1,0,1.58,2,2,0,0,0,1.28-1.38,2.11,2.11,0,0,0,.11-1.8,1.81,1.81,0,0,1,.9.65,1,1,0,0,1,.2,1.06,1.11,1.11,0,0,0,.48-.62,4,4,0,0,0,.14-.81,2.34,2.34,0,0,1,.83-1.68,1.43,1.43,0,0,0-.08,1,1.57,1.57,0,0,0,.53.95,1.89,1.89,0,0,0,.88-1.42,4.75,4.75,0,0,1,.51-1.57,1,1,0,0,0,.73.89,2.15,2.15,0,0,0,1.86-.64,1.55,1.55,0,0,1-1.31-.5c-.37-.38-.35-.63.07-.76a2.25,2.25,0,0,0,1.15-1l-1,.08a2.11,2.11,0,0,1-.9-.21,2.47,2.47,0,0,0,1.06-1,2.6,2.6,0,0,1,.87-1,3.24,3.24,0,0,0,.68-.5l.64-.57Z"/><path class="cls-6" d="M18.57,16.35a3.34,3.34,0,0,1-2.23,1.79,4.37,4.37,0,0,1-3-.07A4,4,0,0,1,11.22,16a4.22,4.22,0,0,1-.32-3,3,3,0,0,0,.74,2.32,3.68,3.68,0,0,0,2.28,1.33,3.94,3.94,0,0,0,3.26-.7c1-.81,1.28-2,.78-3.53a6.76,6.76,0,0,1,.69,1.24,4,4,0,0,1,.16,1.12,3.48,3.48,0,0,0,1.57-2.19,7.82,7.82,0,0,0-.24-4.88A6.46,6.46,0,0,1,21,10a8.7,8.7,0,0,1,.1,2.64q-.39,3.08-2.52,3.75Z"/><path class="cls-7" d="M.22.42l.49,1.2a4.76,4.76,0,0,0,.48.94l.51.37A21.55,21.55,0,0,0,2.78,7.67a10.08,10.08,0,0,0,1.83,3.81,21.91,21.91,0,0,0,2.61,2A13.75,13.75,0,0,0,10.1,15l-.78-1.66.49.63a2.7,2.7,0,0,1,.51.82,1.29,1.29,0,0,1-.05.48l-.1.46-.12.82a19.51,19.51,0,0,1-3.93-2.37A13.23,13.23,0,0,1,3.3,11.58,20.4,20.4,0,0,1,1.48,6.41,46.23,46.23,0,0,1,.22.42Z"/><path class="cls-7" d="M31.88,8.23q1.5-2.52,2.64-4.75l.78-.23A11.77,11.77,0,0,1,37.52.9C37,1.68,35.79,3.65,34,6.81l-3.4,5.88c-.51.85-1.85,1.74-4,2.68a24.43,24.43,0,0,1-4.2,1.48c-.14,0-.29-.05-.46-.25a.85.85,0,0,1-.19-.72,2.69,2.69,0,0,1,.65-1.09,9.22,9.22,0,0,1,1.34-1.31L23,14.75l-.45.79a23,23,0,0,0,4.17-1.72A11.11,11.11,0,0,0,29.24,12a20.38,20.38,0,0,0,2.64-3.8Z"/><path class="cls-7" d="M28.5,29.68l.61.05.63,0-.47.32-.56.31.95.07a3.12,3.12,0,0,1,.73.24,2.77,2.77,0,0,0-.83.33,2,2,0,0,0-.69.59l-.51.8a5.57,5.57,0,0,1-.8.92,5,5,0,0,1-.63-.95,3.49,3.49,0,0,1,.93-.19,2.63,2.63,0,0,0-1.24-.25,3.62,3.62,0,0,0,.91-1,5.87,5.87,0,0,1,1-1.18Z"/><path class="cls-7" d="M29.16,24.65a4.21,4.21,0,0,0,.15-1.22,2.43,2.43,0,0,1,.49-1.35l.3.13A2.9,2.9,0,0,0,30,23.79l.22.77a1.72,1.72,0,0,1-.11,1,4.51,4.51,0,0,1-1.26.57l-.61,0a3.14,3.14,0,0,0,.93-1.5Z"/><path class="cls-7" d="M28.61,28.54A2.12,2.12,0,0,0,29.3,28l-.62-.11-.55-.15a4.89,4.89,0,0,0,1.06-.65l.52,0,.53.07a2.09,2.09,0,0,0-.87,1,2.41,2.41,0,0,1,.77-.19l.76,0a5.76,5.76,0,0,0-1.45,1.21,4.15,4.15,0,0,0-1.57-.31l.73-.36Z"/><path class="cls-7" d="M25.16,34.22l.33-.39a1.63,1.63,0,0,1,.39-.35c.2,0,.32.21.35.51a4.37,4.37,0,0,1-.13,1.16,9.72,9.72,0,0,1-1,2.17,20.64,20.64,0,0,1-1.38,2.31,2.39,2.39,0,0,1-1.32.92,3.2,3.2,0,0,1-1.54,0,1.54,1.54,0,0,1-1-.65,1,1,0,0,1-.08-1c0,.48.36.79,1.07.94a2.12,2.12,0,0,0,1.74-.28A4,4,0,0,0,24,37.88c.26-.62.19-.88-.23-.78a1.24,1.24,0,0,1-1.11-.28,2.31,2.31,0,0,1-.93.58,2.35,2.35,0,0,1-1,.13,5.25,5.25,0,0,0,.42-1l.2-.82a.75.75,0,0,0,.5-.31,3,3,0,0,0,2.29.13l-.5-.28a1.61,1.61,0,0,1-.42-.37,1.63,1.63,0,0,0,1.27-.14,2.35,2.35,0,0,0,.7-.53Z"/><path class="cls-7" d="M17.77,32.87l.42-.42a5.11,5.11,0,0,1,1-.36,2.43,2.43,0,0,0-.48.85,7.39,7.39,0,0,1,1.34-.7,1.64,1.64,0,0,0,.27.72,1.6,1.6,0,0,0,.53-.53,12.64,12.64,0,0,1,1,1.39l.21-.75.34.43.4.41-.77,1.21a3.17,3.17,0,0,1-1.38,1,12.24,12.24,0,0,0-1.55.92c-.74.49-1.39.94-1.94,1.37a2.79,2.79,0,0,1-1.76.59A3,3,0,0,1,14,38.63a2,2,0,0,1-.86-.79A1.44,1.44,0,0,1,13,36.67a.87.87,0,0,0,.33.62,2.88,2.88,0,0,0,.89.53,2.47,2.47,0,0,0,2.4-.18c1.83-1.14,3-1.88,3.43-2.23a1.65,1.65,0,0,0,.77-1.7,7.54,7.54,0,0,0-1.24.63,3.05,3.05,0,0,1,.41-.81,4,4,0,0,0-1.08.38,7.26,7.26,0,0,0-1,.59,3.57,3.57,0,0,1,.44-1.18,2,2,0,0,0-1,0l.5-.47Z"/><path class="cls-7" d="M33.86,30.28a6.83,6.83,0,0,0,1.58,3.25A2.94,2.94,0,0,1,36.3,35a4.26,4.26,0,0,1-.1,1.43A23.92,23.92,0,0,1,35.43,39l-.85,2.32a2.5,2.5,0,0,1-1.23,1.4,3.36,3.36,0,0,1-2,.15,1.67,1.67,0,0,1-1.06-.61,1,1,0,0,1-.12-1.07c.12.56.65.82,1.57.77A2.44,2.44,0,0,0,33.62,41a9.69,9.69,0,0,0,1-2.26,12.69,12.69,0,0,0,.65-2.34,4.66,4.66,0,0,0,.09-1.18,2,2,0,0,0-.5-1.18,4.48,4.48,0,0,1-.9-1.78,7.29,7.29,0,0,1-.13-2Z"/><path class="cls-7" d="M14.35,34.92a3.45,3.45,0,0,0-.15.57,2.57,2.57,0,0,0-.65.44,2.53,2.53,0,0,0-.48.6,1.69,1.69,0,0,0-.93.29A7.74,7.74,0,0,0,12,35.06a3.66,3.66,0,0,0,1.59-.32l-.14.34a2.8,2.8,0,0,0-.08.4,2,2,0,0,1,.48-.34,1.86,1.86,0,0,1,.5-.22Z"/><path class="cls-7" d="M15.06,39l.89-.07a12.52,12.52,0,0,1-.85,3.61c-.42,1-1.38,1.47-2.88,1.31A1.58,1.58,0,0,1,11,43.18a1.1,1.1,0,0,1-.17-1c.05.46.54.73,1.47.8s1.56-.13,1.86-.64a6.05,6.05,0,0,0,.57-1.5A8.19,8.19,0,0,0,15.06,39Z"/><path class="cls-7" d="M18.57,16.35a3,3,0,0,0,1.82-1.53,5.87,5.87,0,0,0,.75-2.32,5.41,5.41,0,0,1-.5,2.91,3.65,3.65,0,0,1-1.78,1.75,4.21,4.21,0,0,1-2.41,1.71,5.43,5.43,0,0,1-2.62.11A3.7,3.7,0,0,1,11.28,17a4.4,4.4,0,0,1-.55-3.26,4.51,4.51,0,0,0,.79,2.87,4.22,4.22,0,0,0,2.41,1.56A4.27,4.27,0,0,0,16.85,18a3.1,3.1,0,0,0,1.72-1.6Z"/><path class="cls-6" d="M12.26,24.31a5.39,5.39,0,0,0,2.79,1.09,11.08,11.08,0,0,0,4.31-.63,9.27,9.27,0,0,0,3.47-2.29,5.56,5.56,0,0,1-3.11,3,9.36,9.36,0,0,1-4.59.85,5.19,5.19,0,0,1-3-1.2,4.67,4.67,0,0,1-1.71-2.7,5.2,5.2,0,0,0,1.83,1.9Z"/><path class="cls-8" d="M1.81,3.74,1.7,2.93c.64.45,1.68,1.3,3.1,2.54A31.82,31.82,0,0,1,7.62,8.14a18.54,18.54,0,0,1,3.2,5.38l-.05.43-.44-.17a47.81,47.81,0,0,0-4-5.36A42.11,42.11,0,0,0,1.81,3.74Z"/><path class="cls-8" d="M34.19,4.23a32.85,32.85,0,0,0-6.74,3.85,18.42,18.42,0,0,0-5.24,6l-.47.29,1-2.78a8.58,8.58,0,0,1,.9-2,16.92,16.92,0,0,1,4.91-3.53,28.2,28.2,0,0,1,6-2.6l-.33.75Z"/><path class="cls-2" d="M14.4,22.91c0-.07.16-.1.49-.1s.51,0,.51.09-.06.17-.19.26l-.32.12a.59.59,0,0,1-.3-.13c-.13-.09-.19-.17-.19-.24Z"/><path class="cls-2" d="M15.1,4.21c0-.06,0-.09.14-.11a2,2,0,0,1,1.2.29,2.08,2.08,0,0,1,1,1.07c0,.11,0,.17,0,.2s-.1,0-.17-.12a3.17,3.17,0,0,0-.74-.77,2,2,0,0,0-.89-.4,3,3,0,0,1,1,2.44,2.53,2.53,0,0,1-.82,1.82,11.38,11.38,0,0,1-2.32,1.67,5.61,5.61,0,0,0-2,1.73A4.12,4.12,0,0,0,11,14.27,3.74,3.74,0,0,0,12.11,17a3.62,3.62,0,0,0,2.73,1.16,4.23,4.23,0,0,0,2.89-1,3.08,3.08,0,0,0,.94-2.81q0-.22.06-.24t.12.21a3.07,3.07,0,0,1-.9,3.06,4.52,4.52,0,0,1-3.1,1.06,4,4,0,0,1-2.91-1.15,4,4,0,0,1-1.34-3.07,4.33,4.33,0,0,1,.63-2.4A6.18,6.18,0,0,1,13.33,10a13.46,13.46,0,0,0,2.25-1.54,2.35,2.35,0,0,0,.81-1.69,3,3,0,0,0-1.18-2.45l-.11-.14Z"/><path class="cls-2" d="M19.2,6.45a4.1,4.1,0,0,0-2.54-1.7l-.36-.32a4.57,4.57,0,0,1,3,1.74,8.15,8.15,0,0,1,1.8,3.65A7.7,7.7,0,0,1,21,13.93a3.61,3.61,0,0,1-2.44,2.61l.08-.33a3.43,3.43,0,0,0,2-2.35,7.32,7.32,0,0,0,.18-4,8.18,8.18,0,0,0-1.62-3.4Z"/><path class="cls-2" d="M23.9,16.37l.3-.07A13.43,13.43,0,0,1,24,20a6.69,6.69,0,0,1-1.12,2.62A7.38,7.38,0,0,1,19.17,25a11.23,11.23,0,0,1-4,.65,5.9,5.9,0,0,1-2.61-.9,4.69,4.69,0,0,1-2.08-2.1,3.67,3.67,0,0,1-.27-1.15L10,20.06a11.16,11.16,0,0,1-.2-2,13.34,13.34,0,0,1,.2-2.27c0-.17.07-.24.13-.23s.07.1.05.26a15.63,15.63,0,0,0-.11,2.2,13.47,13.47,0,0,0,.21,2l.15,1.4a3.24,3.24,0,0,0,.25,1.07,4.57,4.57,0,0,0,1.93,1.9,5.35,5.35,0,0,0,2.52.85,9,9,0,0,0,2-.15,12.14,12.14,0,0,0,2.26-.61,6.7,6.7,0,0,0,3.17-2.11c1-1.34,1.44-3.34,1.3-6Z"/><path class="cls-2" d="M4.72,5.6Q3,4.07,1.2,2.69c-.11-.09-.15-.16-.12-.2s.12,0,.24,0c1.13.81,2.32,1.76,3.59,2.85a33,33,0,0,1,2.88,2.7,13.93,13.93,0,0,1,1.68,2.36,18.48,18.48,0,0,1,1.38,3l0,.42a20.34,20.34,0,0,0-1.46-3.06A14.88,14.88,0,0,0,7.56,8.29,35.1,35.1,0,0,0,4.72,5.6Z"/><path class="cls-2" d="M1.56,2.83,1.81,3A26.31,26.31,0,0,0,3,7.78a12.34,12.34,0,0,0,1.57,3.39,10.64,10.64,0,0,0,2.18,1.77,25.65,25.65,0,0,0,3.14,1.87,7,7,0,0,1-.68-1.45c-.06-.19,0-.25.18-.15a7.92,7.92,0,0,0,1.44.62l0,.22a8.16,8.16,0,0,1-1.25-.48A9.91,9.91,0,0,0,10.18,15c.07.11.08.18.05.21s-.09,0-.19,0a25.69,25.69,0,0,1-3.38-1.88,10.77,10.77,0,0,1-2.35-1.91A12.31,12.31,0,0,1,2.68,7.86a24.28,24.28,0,0,1-1.12-5Z"/><path class="cls-2" d="M35.32,3.37a30.39,30.39,0,0,0-5.85,2.4A19.48,19.48,0,0,0,23.9,9.53a9.84,9.84,0,0,0-1.3,2.73A27.32,27.32,0,0,1,21.53,15c-.07.13-.14.18-.19.16s0-.1,0-.24l1-2.82a8.79,8.79,0,0,1,1.33-2.82,18.88,18.88,0,0,1,5.65-3.81,25.78,25.78,0,0,1,6-2.32c.13,0,.2,0,.22.05s0,.1-.18.13Z"/><path class="cls-2" d="M34.43,3.5l.31-.09c-2.55,4.94-4.47,8-5.76,9.09a20.43,20.43,0,0,1-6.48,3.2q-.16.06-.21,0s0-.11.06-.2a21.15,21.15,0,0,0,1.14-1.89,12,12,0,0,0-1.92,1.09l.17-.44a15.64,15.64,0,0,1,2-1c.24-.11.3-.05.19.19a15.1,15.1,0,0,1-1.16,1.95,19.46,19.46,0,0,0,6.05-3.1q1.63-1.42,5.65-8.76Z"/><path class="cls-2" d="M8.21,7.37c.1.15.13.23.08.26s-.12,0-.23-.16a14.93,14.93,0,0,0-1.45-1.6A21.46,21.46,0,0,0,4.9,4.45,17.58,17.58,0,0,1,2.84,2.67,9.93,9.93,0,0,1,1.2.64a5.14,5.14,0,0,0,.07.78c0,.06,0,.1,0,.12s-.09,0-.14,0A3.51,3.51,0,0,1,.37.76Q1,3.89,1.8,6.92a19.09,19.09,0,0,0,1.63,4.5,11.19,11.19,0,0,0,2.85,2.72A30.37,30.37,0,0,0,10,16.46l0,.23a24.89,24.89,0,0,1-4-2.36,11.21,11.21,0,0,1-2.92-2.71A19.7,19.7,0,0,1,1.38,6.71,64.49,64.49,0,0,1,0,.2C0,.09,0,0,.07,0s.1,0,.15.12A4,4,0,0,0,1,1.18,4.8,4.8,0,0,1,1,.32c0-.09,0-.14.08-.15s.08,0,.12.1A11.62,11.62,0,0,0,2.94,2.33,21.12,21.12,0,0,0,5.1,4.17a13.23,13.23,0,0,1,3.11,3.2Z"/><path class="cls-2" d="M26.69,5.35l-.26.3a6.44,6.44,0,0,0,0-.88,12.34,12.34,0,0,1-2,2.49,14.87,14.87,0,0,0-1.68,2.1,16.39,16.39,0,0,0-1.7,3.27l.07-1a23.54,23.54,0,0,1,1.71-3A15,15,0,0,1,24.25,7a12,12,0,0,0,2.14-2.73c.06-.12.12-.18.18-.17s.09.07.09.21l0,1.08Z"/><path class="cls-2" d="M36.2,1.64,36,1.78A2.67,2.67,0,0,0,36,1a3.81,3.81,0,0,1-.91,1,3.94,3.94,0,0,1-1.3.67A24.64,24.64,0,0,0,29.66,4.2a7.54,7.54,0,0,0-2.43,1.67C27.14,6,27.08,6,27,6s-.05-.1,0-.22l.11-.7a4.73,4.73,0,0,0-.86.94c-.08.11-.15.16-.19.14s0-.11,0-.24a5.27,5.27,0,0,1,.48-.67,3.41,3.41,0,0,1,.6-.56c.16-.12.22-.08.21.1l-.1.66q1.77-1.74,6.31-3A4.72,4.72,0,0,0,36,.61q.18-.25.21.06a4,4,0,0,1,0,1Z"/><path class="cls-2" d="M35.94,1.93c-.14.09-.23.11-.26.06s0-.12.16-.23A10.11,10.11,0,0,1,36.94,1c.55-.32.85-.47.9-.43s-.11.32-.46.83q-.85,1.25-3.67,6.33Q31,12.58,30.7,13a9.28,9.28,0,0,1-3.13,2.24,21.16,21.16,0,0,1-5.13,1.69l-.25,0c0-.06.06-.1.21-.15a30.37,30.37,0,0,0,5-1.84,8.62,8.62,0,0,0,3-2.11q.18-.23,3.13-5.39t3.74-6.26c-.6.36-1,.63-1.31.81Z"/><path class="cls-2" d="M9.29,19.21a2.31,2.31,0,0,0,.14-.81c0-.22.09-.24.24-.07a2.61,2.61,0,0,1,.42.62l0,.49a2.34,2.34,0,0,0-.5-.79A2,2,0,0,1,9,20.15a1.76,1.76,0,0,0-.49,1.09,7.65,7.65,0,0,0,0,1.2l-.27-.38a4.62,4.62,0,0,1,.14-1.46,1.54,1.54,0,0,1,.44-.66,1.8,1.8,0,0,0,.52-.73Z"/><path class="cls-2" d="M7.82,22.65a3,3,0,0,0-1.17-.86,2.65,2.65,0,0,1,.54,1.45l0,1.64a3.74,3.74,0,0,0,.44,1.7l-.35-.26a7.39,7.39,0,0,1-.4-3.07,2.64,2.64,0,0,0-.63-1.55c-.1-.12-.12-.21-.09-.25h.28a3.25,3.25,0,0,1,.73.35,2.42,2.42,0,0,1,.57.53,1.74,1.74,0,0,0-.08-.51.13.13,0,0,1,0-.15s.09,0,.17,0a1.43,1.43,0,0,1,.79,1c0,.12,0,.19,0,.2s-.1,0-.15-.14A1.51,1.51,0,0,0,8,22l0,.59-.06.1s-.07,0-.11,0Z"/><path class="cls-2" d="M6.2,25.85c-.07-.09-.09-.16,0-.2s.09,0,.19,0a2.58,2.58,0,0,1,1.08.57,2.88,2.88,0,0,1,.78,1c.05.11.05.17,0,.19s-.1,0-.16-.11a3,3,0,0,0-.65-.76,2.67,2.67,0,0,0-.83-.5,3.42,3.42,0,0,1,.56,1.2c0,.07,0,.12,0,.13l-.13,0a1.41,1.41,0,0,0-.63-.34,2.41,2.41,0,0,1,.66.84,4,4,0,0,1,.26.89,2.87,2.87,0,0,0,.43,1.1A3.24,3.24,0,0,0,9,30.91l.13.12-.18,0a6.21,6.21,0,0,0-1.08,0l.76.53a3.5,3.5,0,0,0,.69.44c.14.06.21.1.2.14s-.1,0-.25,0a2.57,2.57,0,0,1-.75-.43l-.86-.57-.21-.12s0-.09.17-.13l.49-.07h.45a3.72,3.72,0,0,1-1.16-1.14,2.81,2.81,0,0,1-.42-1,3.74,3.74,0,0,0-.25-.91A2.36,2.36,0,0,0,6,26.93c-.08-.06-.12-.12-.09-.16s.08-.07.18-.07a1.16,1.16,0,0,1,.76.21,4.7,4.7,0,0,0-.62-1.06Z"/><path class="cls-2" d="M7.26,32.36c0-.06,0-.12.14-.17a7,7,0,0,1,1.18-.43l.2.16a4,4,0,0,0-.93.32,5.07,5.07,0,0,1,1.32.42,5.2,5.2,0,0,1,.93.51l-.32.07a5,5,0,0,0-2.32-.8c-.12,0-.18,0-.2-.08Z"/><path class="cls-2" d="M9,33.36s.05-.07.15-.08l1.56-.38.23,0c0,.06,0,.11-.17.15a6.33,6.33,0,0,1-1.24.38,3.6,3.6,0,0,0,1.75.42l-.21.2A3.24,3.24,0,0,1,10,33.9a3.14,3.14,0,0,1-.87-.38C9,33.46,9,33.41,9,33.36Z"/><path class="cls-2" d="M10.57,34.51a2.56,2.56,0,0,1,1.84-1.3l.26,0c0,.06-.05.11-.2.16a2.84,2.84,0,0,0-1.53,1l.68-.08c.15,0,.17.07.07.16a2,2,0,0,0-.55.85,2.36,2.36,0,0,1,1.21-.44,2.43,2.43,0,0,0,1.35-.32l-.14.27a1.75,1.75,0,0,1-.53.23l-.66.09-.51.07a2.6,2.6,0,0,0-.85.47c-.21.17-.29.13-.22-.13a2.06,2.06,0,0,1,.6-1,2.25,2.25,0,0,0-.65.16c-.21.09-.27,0-.17-.18Z"/><path class="cls-2" d="M14.43,33.72l.19,0s0,.11-.09.18a2.39,2.39,0,0,0-.95,1.3,2.47,2.47,0,0,1,.73-.39c.14,0,.19,0,.13.14a1.34,1.34,0,0,0-.1.49l-.27.12.13-.48a2.47,2.47,0,0,0-.71.48.2.2,0,0,1-.18.08s-.06-.08-.05-.17a2,2,0,0,1,.34-1,2.65,2.65,0,0,1,.83-.76Z"/><path class="cls-2" d="M17.66,29.08c-.12-.06-.18-.11-.16-.16h.23l.77,0c.14,0,.21,0,.22.05s0,.1-.18.14l-.88,0Z"/><path class="cls-2" d="M18.54,29.64c.15,0,.23,0,.23.08s-.07.09-.21.1a2.47,2.47,0,0,0-1.38.51c-.1.09-.17.11-.21.07s0-.12.09-.22a1.93,1.93,0,0,1,1.48-.54Z"/><path class="cls-2" d="M16.68,31.64a2,2,0,0,1,.5-.72,2.93,2.93,0,0,1,.83-.55q.18-.07.21,0c0,.06,0,.11-.12.17a2.47,2.47,0,0,0-1.07,1l1-.13-.24.24a5.56,5.56,0,0,0-.92.19c-.18.05-.24,0-.17-.19Z"/><path class="cls-2" d="M16.91,33.06a2.35,2.35,0,0,1,.4-1.06,2.7,2.7,0,0,1,.77-.74c.13-.08.21-.09.24-.05s0,.12-.13.2a2.49,2.49,0,0,0-1,1.41,5.07,5.07,0,0,1,1-.55,10.46,10.46,0,0,1,1.09-.34l-.21.25a8.51,8.51,0,0,0-2,1c-.14.1-.2.06-.19-.12Z"/><path class="cls-2" d="M19.53,31.67c.11-.08.18-.09.2,0s0,.11-.09.19a2.43,2.43,0,0,0-.66.84,11,11,0,0,1,1-.52c.09,0,.13,0,.14.08a1.25,1.25,0,0,0,.21.58,1.61,1.61,0,0,0,.42-.44h.15l.93,1.24.14-.54c0-.07,0-.1.06-.11l.1.07a4.27,4.27,0,0,0,1,1,2.76,2.76,0,0,1,.12-1.57c0-.11.09-.15.14-.13s.07.09,0,.2a3.34,3.34,0,0,0,0,1.67c0,.11,0,.17,0,.2l-.19,0a3.81,3.81,0,0,1-1.07-1.06,1.66,1.66,0,0,1-.15.57c-.08.13-.15.14-.22,0a10.94,10.94,0,0,0-.91-1.31,3.09,3.09,0,0,1-.43.46h-.2a1.49,1.49,0,0,1-.25-.68l-1.2.67-.18,0s0-.09,0-.19a2.19,2.19,0,0,1,.93-1.22Z"/><path class="cls-2" d="M24.75,16.09l.31-.11a2.65,2.65,0,0,1,.85,2c0,.14,0,.21-.08.21s-.09-.07-.1-.21a2.81,2.81,0,0,0-1-1.9Z"/><path class="cls-2" d="M25.53,16.87l-.16-.3a1.38,1.38,0,0,1,1.32,1,3.17,3.17,0,0,1,.15,2c0,.13-.07.2-.13.19s-.07-.08-.06-.22a3.43,3.43,0,0,0-.2-1.89,1.14,1.14,0,0,0-.92-.75Z"/><path class="cls-2" d="M26.76,18.26l0-.42a1.53,1.53,0,0,1,.69.9,3.16,3.16,0,0,1,.07,1.52c0,.14-.06.21-.11.21s-.07-.08-.07-.23A4.37,4.37,0,0,0,27.21,19a1.33,1.33,0,0,0-.45-.74Z"/><path class="cls-2" d="M28.36,19.57A8.84,8.84,0,0,1,28.62,18,5.69,5.69,0,0,0,28,19a6.41,6.41,0,0,0-.56,1.11v-.47a5.59,5.59,0,0,1,.81-1.45c.33-.44.53-.64.61-.61a7.2,7.2,0,0,1-.12,1.09,10.35,10.35,0,0,0-.13,2.08,2.28,2.28,0,0,1-1.07,2.17c-.12.08-.19.09-.22,0s0-.11.11-.2a2.5,2.5,0,0,0,.77-1,3.23,3.23,0,0,0,.13-1c0-.33,0-.71.06-1.13Z"/><path class="cls-2" d="M28.42,21.31l0-.29A2.15,2.15,0,0,1,30,20.19c.14,0,.22,0,.24,0s0,.12-.13.2a2.89,2.89,0,0,0-.76.76A3,3,0,0,1,30.81,21c.12,0,.18,0,.19.09s-.05.1-.14.16a3,3,0,0,0-1,1,2.66,2.66,0,0,0-.37,1.19,6.39,6.39,0,0,1-.31,1.7,2.21,2.21,0,0,1-1.33,1.34h-.22s0-.1.15-.16A2.27,2.27,0,0,0,28.93,25a6.61,6.61,0,0,0,.24-1.56,2.8,2.8,0,0,1,.37-1.18,3,3,0,0,1,.92-1,3.39,3.39,0,0,0-1.37.35c-.07,0-.11,0-.14,0s0-.06,0-.13a2.59,2.59,0,0,1,.73-.92,2.43,2.43,0,0,0-.69.29,2.62,2.62,0,0,0-.58.54Z"/><path class="cls-2" d="M29.61,29.09c.1.05.15.09.16.14s-.07.08-.2.11a2.3,2.3,0,0,0-1,.41,2.69,2.69,0,0,0-.63.69A8.6,8.6,0,0,1,26.76,32l-.4,0a8.62,8.62,0,0,0,1.41-1.63,3.74,3.74,0,0,1,.54-.63,2.75,2.75,0,0,1,.85-.46A4.37,4.37,0,0,0,27.69,29l.31-.2a4.19,4.19,0,0,1,1.61.26Z"/><path class="cls-2" d="M27.85,32c.19.08.27.14.26.2s-.12.09-.3.1a2,2,0,0,0-1.09.35,6.83,6.83,0,0,0-1.17,1.28,3.53,3.53,0,0,1-.83.85,1.83,1.83,0,0,1-1.28.25,1.79,1.79,0,0,0,.72.38c.13.05.18.09.15.15s-.11.11-.28.15l-1.11.08a3.13,3.13,0,0,1-1.2-.26l.17-.2a2,2,0,0,0,.87.24l1.18-.05a1.68,1.68,0,0,1-.51-.24l-.35-.3q-.12-.13-.09-.18h.19a1.63,1.63,0,0,0,1.39-.22,3,3,0,0,0,.81-.78,10,10,0,0,1,1.05-1.23,2.2,2.2,0,0,1,1.23-.42A2.65,2.65,0,0,0,26.31,32a3.41,3.41,0,0,0-1,.31l-.18,0s0-.08.1-.14A2.79,2.79,0,0,1,27.85,32Z"/><path class="cls-2" d="M34.2,8.16c0-.21.08-.31.15-.31s.12.09.15.29l.13,1.06A2.14,2.14,0,0,0,35,8.61c.07-.13.12-.19.15-.17s.06.09.08.24a4.45,4.45,0,0,1-.09,1.77,2.54,2.54,0,0,1-.72,1.35,6.8,6.8,0,0,0-.91.92,1.49,1.49,0,0,0-.25.61c0,.13-.05.19-.09.19s0-.06-.06-.19c0-.48.33-1.05,1.09-1.72a2.46,2.46,0,0,0,.69-1.17A3.92,3.92,0,0,0,35.1,9l-.28.33-.29.22c-.1,0-.14,0-.13-.1a7,7,0,0,0,0-1,2.4,2.4,0,0,1-.93,1.68,2.37,2.37,0,0,1-1.67.65l.18-.36a2,2,0,0,0,1.43-.52,2.82,2.82,0,0,0,.82-1.7Z"/><path class="cls-2" d="M35,10.66l.06-.4a2.83,2.83,0,0,1,.67-.58,3.07,3.07,0,0,1,.92-.44c.43-.12.56-.09.38.09a1.93,1.93,0,0,0-.44.63,2.13,2.13,0,0,0-.16.65c-.23.19-.35.26-.34.22a2.69,2.69,0,0,1,.59-1.38,3.29,3.29,0,0,0-1,.56,3.83,3.83,0,0,0-.7.65Z"/><path class="cls-2" d="M40.57,9.9c.14-.1.24-.13.28-.08s0,.17-.05.34a2.28,2.28,0,0,1-1.93,1.41c-.15,0-.22,0-.24-.06s.07-.09.21-.12a2.44,2.44,0,0,0,1.57-1.07,2,2,0,0,1-1,.16,2.38,2.38,0,0,1-.9-.22,1.66,1.66,0,0,0-1.63.14,4.43,4.43,0,0,0-1.31,1.29c-.08.13-.14.18-.19.15s0-.11,0-.24a2.91,2.91,0,0,1,1.39-1.46,2,2,0,0,1,1.86-.09,1.91,1.91,0,0,0,.93.18,1.73,1.73,0,0,0,1-.33Z"/><path class="cls-2" d="M43.79,10c0-.14.05-.22.1-.24s.14.05.21.19a1.92,1.92,0,0,1,.21.92,2.06,2.06,0,0,1-.22,1.08c-.06.12-.11.17-.15.14s0-.11,0-.23A2.68,2.68,0,0,0,44,10.41a2.44,2.44,0,0,1-.68,1.25q-.08.06-.12,0s0,0,0-.11L43,10.82a3,3,0,0,0-.34-.8,2.1,2.1,0,0,1-.31.9,1.48,1.48,0,0,1-.59.56l-.92,0a1.36,1.36,0,0,1-.82-.59l.15-.12a1.35,1.35,0,0,0,.72.44l.76,0a1,1,0,0,0,.55-.61,2.33,2.33,0,0,0,.18-1c0-.38.09-.4.31-.06a3.63,3.63,0,0,1,.66,1.79A2.41,2.41,0,0,0,43.79,10Z"/><path class="cls-2" d="M43.67,3.84s.11,0,.18.09l.58.5,0,.34L44,4.35A3.51,3.51,0,0,0,44.5,5.8c.1.14.07.19-.1.14l-.76,0a2.46,2.46,0,0,1,1.63,1.7,3.54,3.54,0,0,1-.06,1.93,3.58,3.58,0,0,1-1.05,1.73v-.26A4.56,4.56,0,0,0,45,9.41a3.3,3.3,0,0,0,0-1.68,2.35,2.35,0,0,0-.56-1,2.67,2.67,0,0,0-1.07-.59c-.17,0-.21-.13-.09-.24a.83.83,0,0,1,.41-.2l.53,0a3.94,3.94,0,0,1-.57-1.6c0-.13,0-.21,0-.23Z"/><path class="cls-2" d="M44.67,2.71a3.74,3.74,0,0,0-.16,1.53,3.2,3.2,0,0,0,.57,1.55c.08.11.1.19.06.23s-.11,0-.21-.11a3.27,3.27,0,0,1-.71-1.86,3.4,3.4,0,0,1,.35-1.76c0-.12.11-.19.17-.18s.1.08.11.21a8.81,8.81,0,0,0,.3,1.57,2.5,2.5,0,0,0,.93,1.22,7.19,7.19,0,0,1,2.51,2.83A5.28,5.28,0,0,1,49,11.45l-.25.34a6.9,6.9,0,0,0-.37-3.62,6.65,6.65,0,0,0-2.44-2.86,2.52,2.52,0,0,1-1-1.24,4.88,4.88,0,0,1-.27-1.36Z"/><path class="cls-2" d="M48.6,12.13c-.11.12-.19.15-.23.11s0-.12.09-.24a4.41,4.41,0,0,0,.63-.9A7.53,7.53,0,0,0,49.63,10c0-.16.11-.24.18-.23s.11.1.13.27a10,10,0,0,1,0,1.86,7.21,7.21,0,0,1-.39,2l-.4.49a9.35,9.35,0,0,0,.47-2.22,8.45,8.45,0,0,0,.07-1.71,5.16,5.16,0,0,1-1.11,1.64Z"/><path class="cls-2" d="M49.51,14.18a2.59,2.59,0,0,0-.47.64c-.06.11-.11.16-.17.14s0-.09,0-.21a2.1,2.1,0,0,1,.57-.84,1.51,1.51,0,0,1,1-.44c.12,0,.2,0,.23,0s0,.11-.07.19a2.19,2.19,0,0,0-.31.44l.67-.12a2.88,2.88,0,0,1,.72,0c.21,0,.32.06.33.12s-.09.14-.28.23a2.85,2.85,0,0,0-1.57,1.84,5.72,5.72,0,0,0-.27,1.49,3,3,0,0,1-.53,1.15,3.48,3.48,0,0,1-1.08.89c-.13.07-.2.08-.22,0s0-.12.12-.2a4.32,4.32,0,0,0,1-1,2.64,2.64,0,0,0,.39-.94,10,10,0,0,1,.33-1.74,2.72,2.72,0,0,1,1.39-1.63,3.18,3.18,0,0,0-1.25.17c-.12,0-.16,0-.11-.14a1.58,1.58,0,0,1,.3-.55,1.54,1.54,0,0,0-.68.41Z"/><path class="cls-2" d="M50.42,21.11a3.47,3.47,0,0,1,0,2.09,3.56,3.56,0,0,1-1.19,1.86c-.11.1-.19.12-.22.08s0-.11.09-.21a4.16,4.16,0,0,0,1.06-1.85,3.6,3.6,0,0,0,0-1.78,3.78,3.78,0,0,1-.07-1.79,4.55,4.55,0,0,0,.07-1.75,3,3,0,0,1-.71.7l.16-.42a4,4,0,0,0,.48-.7c.07-.12.13-.17.18-.17s.1.08.13.22a4.58,4.58,0,0,1,0,2,3.38,3.38,0,0,0,0,1.74Z"/><path class="cls-2" d="M49.63,24.43a2.65,2.65,0,0,1,1.1.1q.21.07,0,.24a4.54,4.54,0,0,1-.82.62,1.94,1.94,0,0,1-.91.36c-.14,0-.21,0-.21-.07s.07-.09.21-.11a3.56,3.56,0,0,0,1.36-.85,2.57,2.57,0,0,0-1,0l.2-.29Z"/><path class="cls-2" d="M49.28,25.64l.25-.15a3.26,3.26,0,0,1,1.06.5c.27.17.25.28-.06.3a5.58,5.58,0,0,0-1,.23,3.17,3.17,0,0,0-.76.37,1.58,1.58,0,0,1,1,.18,1.27,1.27,0,0,1,.59.74L50,27.68a1,1,0,0,0-.59-.49,2.47,2.47,0,0,0-1-.08c-.06,0-.09,0-.11-.05s0-.07,0-.11a2.61,2.61,0,0,1,.75-.5,4.53,4.53,0,0,1,1.11-.37,3.59,3.59,0,0,0-1-.44Z"/><path class="cls-2" d="M48.43,28.76a4.62,4.62,0,0,0-1.94.93c-.1.08-.17.11-.22.08s0-.1.07-.2a4.08,4.08,0,0,1,1.95-1.06,4.74,4.74,0,0,1,2.46-.09,1.25,1.25,0,0,0-.71-.61l-1,0-.23,0q0-.07.18-.15a1.82,1.82,0,0,1,1.3,0,1.49,1.49,0,0,1,.87.87c.06.16.08.26,0,.3h-.27a4.65,4.65,0,0,0-2.46,0Z"/><path class="cls-2" d="M46.43,30.25l1.23-1.42.43-.16-1.3,1.61-1.07,1.18a4.1,4.1,0,0,1-1.5.93l-.49-.1a2.3,2.3,0,0,0,.94-.39l.8-.65,1-1Z"/><path class="cls-2" d="M41.88,31.82c-.12-.08-.17-.15-.14-.2l.22,0a6.06,6.06,0,0,0,1.06.42l.73.11a3.21,3.21,0,0,1,1.77.63c.13.11.19.2.17.26s-.11.07-.29,0a4.16,4.16,0,0,0-2.3.13,5.89,5.89,0,0,1-2.13.46A2.75,2.75,0,0,1,38.9,33c-.1-.09-.12-.16-.08-.2s.11,0,.21.07a2.84,2.84,0,0,0,2,.6A6.08,6.08,0,0,0,43,33a4.12,4.12,0,0,1,2-.21,3.33,3.33,0,0,0-1.24-.33,3.62,3.62,0,0,1-1.85-.62Z"/><path class="cls-2" d="M38.49,34.19a3.85,3.85,0,0,1-1-.23l-.29-.32a3,3,0,0,0,1.17.29h1.21a2.82,2.82,0,0,1,1.36.34l-.8-.78.45,0a5.31,5.31,0,0,1,.86.94c.11.16.15.26.11.31s-.15,0-.32-.07a3,3,0,0,0-1.68-.51,6.72,6.72,0,0,1-1,0Z"/><path class="cls-2" d="M35.91,34.1l-.32-.39a6.28,6.28,0,0,0,2.27.66,3.68,3.68,0,0,1-1.3-1.3c-.05-.1-.05-.17,0-.2s.11,0,.18.12a3.32,3.32,0,0,0,.72.74,5.41,5.41,0,0,0,1,.64c.19.09.27.17.25.23s-.11.11-.32.1a6.53,6.53,0,0,1-2.46-.6Z"/><path class="cls-2" d="M15.77,38.93l.37,0a19.1,19.1,0,0,1-.42,2.39A5.85,5.85,0,0,1,15,42.89a2.22,2.22,0,0,1-1.19.94,3.39,3.39,0,0,1-1.73.11A1.65,1.65,0,0,1,10.74,43a1.59,1.59,0,0,1-.07-.9,3.14,3.14,0,0,1,.45-1l.24-.37.19-.45A10.42,10.42,0,0,0,12,37.43a12.74,12.74,0,0,0-.12-2.34l.31-.05a13.28,13.28,0,0,1,.09,3.14,8.19,8.19,0,0,1-.48,2.28,5.25,5.25,0,0,1-.38.71A1.94,1.94,0,0,0,11,42.9a1.39,1.39,0,0,0,1.16.75,2.87,2.87,0,0,0,1.54-.08,2,2,0,0,0,1-.87,10.27,10.27,0,0,0,1-3.77Z"/><path class="cls-2" d="M11.37,42.9a1.15,1.15,0,0,1,.4-.74c.07-.06.13-.08.17,0s0,.09,0,.17a1.28,1.28,0,0,0-.26.78c0,.31.12.5.34.54l-.54-.07a.94.94,0,0,1-.08-.64Z"/><path class="cls-2" d="M12.64,43.15a1.4,1.4,0,0,1,.25-.87c.06-.08.11-.11.16-.08s0,.08,0,.17a1.52,1.52,0,0,0-.12.84c0,.35.22.5.52.45l-.52.17c-.2-.1-.3-.33-.3-.68Z"/><path class="cls-2" d="M13.8,38.36l-.5-.26a1.09,1.09,0,0,1,0-.77,1.17,1.17,0,0,1,.52-.61l.19,0s0,.09-.07.17a1.2,1.2,0,0,0-.41.78.67.67,0,0,0,.22.71Z"/><path class="cls-2" d="M18,32.46l.67-.23c-.71.69-1.44,1.33-2.17,1.91a10.49,10.49,0,0,1-2.18,1.44,1.94,1.94,0,0,0-1.27,1.35,1.27,1.27,0,0,0,.55,1.32,2.81,2.81,0,0,0,1.79.57,3.42,3.42,0,0,0,1.85-.71,24.36,24.36,0,0,1,3.89-2.48,1.58,1.58,0,0,0,.63-.47c.24-.33.54-.79.91-1.37L23,34l-.88,1.32a1.92,1.92,0,0,1-.76.57,23.21,23.21,0,0,0-3.86,2.46,3.57,3.57,0,0,1-2,.75,2.92,2.92,0,0,1-2-.59A1.58,1.58,0,0,1,12.8,37a2.17,2.17,0,0,1,1.47-1.65A16.13,16.13,0,0,0,18,32.46Z"/><path class="cls-2" d="M15.26,38.82l-.58.08a1,1,0,0,1-.26-.85,1.16,1.16,0,0,1,.45-.9q.14-.09.18,0s0,.1-.07.18a1.14,1.14,0,0,0-.29.9c0,.39.23.6.57.62Z"/><path class="cls-2" d="M20.66,40.37l-.48-.11a1.11,1.11,0,0,1,0-.74,1.12,1.12,0,0,1,.52-.63h.2s0,.11-.08.17a.94.94,0,0,0-.4.7c-.05.33,0,.53.23.62Z"/><path class="cls-2" d="M25.71,33.53l.29-.21a.77.77,0,0,1,.41.66,2.63,2.63,0,0,1-.22,1.31l-.77,1.8a21.67,21.67,0,0,1-1,2,3.41,3.41,0,0,1-1.63,1.58,3.21,3.21,0,0,1-2,0,1.49,1.49,0,0,1-1.11-.87,1.38,1.38,0,0,1,.24-1.42l.21-.26.27-.41a8.1,8.1,0,0,0,.81-1.91l.34-.18a7.45,7.45,0,0,1-.87,2.17l-.45.64a1.36,1.36,0,0,0-.27,1.22,1.08,1.08,0,0,0,.89.77,2.66,2.66,0,0,0,1.83-.09,3.68,3.68,0,0,0,1.42-1.42,20.69,20.69,0,0,0,1.8-3.68,2.53,2.53,0,0,0,.2-1.17c0-.3-.16-.48-.37-.53Z"/><path class="cls-2" d="M22.18,40.49l-.53.18a.81.81,0,0,1-.27-.75,1.1,1.1,0,0,1,.44-.9C21.9,39,22,39,22,39s0,.1-.06.17a1.12,1.12,0,0,0-.28.9c0,.34.2.49.51.43Z"/><path class="cls-2" d="M29.67,22.26l.19-.3a5.88,5.88,0,0,1,3.08,2.88,9.21,9.21,0,0,1,1.15,4.66,5.68,5.68,0,0,0,1.64,4.16,2.45,2.45,0,0,1,.64,1.07,3.34,3.34,0,0,1,0,1.32A27.31,27.31,0,0,1,35,40.91a3.25,3.25,0,0,1-1.58,2,3.47,3.47,0,0,1-1.88.15c-1.1-.16-1.63-.71-1.59-1.66a2.79,2.79,0,0,1,.81-1.69l.22-.25.15-.3a5.38,5.38,0,0,0,.33-2.44c0-.48-.19-.77-.46-.87a8.15,8.15,0,0,1-2.55-1.47,7.11,7.11,0,0,1-1.63-2l.3-.09a6.39,6.39,0,0,0,1.58,1.83,7.61,7.61,0,0,0,2.22,1.35,1.33,1.33,0,0,1,.66.46,1.59,1.59,0,0,1,.24.85,6,6,0,0,1-.41,2.49,1.94,1.94,0,0,1-.33.51,2.88,2.88,0,0,0-.8,1.6,1.22,1.22,0,0,0,.31.92,1.61,1.61,0,0,0,1,.45,3.09,3.09,0,0,0,1.64-.14,3,3,0,0,0,1.43-1.83A27.68,27.68,0,0,0,36.09,36a2.92,2.92,0,0,0,0-1.2,2.25,2.25,0,0,0-.55-.94,6.11,6.11,0,0,1-1.33-2,5.83,5.83,0,0,1-.45-2.33,8.76,8.76,0,0,0-1.18-4.59,5.05,5.05,0,0,0-2.88-2.65Z"/><path class="cls-2" d="M31.17,42.67l-.58-.11a.89.89,0,0,1-.09-.66,1.09,1.09,0,0,1,.41-.73c.08-.06.14-.07.17,0s0,.1,0,.18a1.27,1.27,0,0,0-.29.76.58.58,0,0,0,.43.6Z"/><path class="cls-2" d="M32.67,42.76l-.55.18a.92.92,0,0,1-.34-.8,1.31,1.31,0,0,1,.29-.86c.07-.08.13-.11.17-.08s0,.08,0,.18a1.45,1.45,0,0,0-.16.89c0,.37.25.54.6.49Z"/><path class="cls-2" d="M7.71,5.92a9.21,9.21,0,0,1,.88,1,6.9,6.9,0,0,1,0-.93c0-.12,0-.18.07-.19s.1,0,.16.14a21,21,0,0,1,1.47,3,23.1,23.1,0,0,1,1.1,3.1l-.23.35A26.54,26.54,0,0,0,10,9,23.64,23.64,0,0,0,8.82,6.4l0,.73-.06.13s-.07,0-.11-.06l-.89-1,0,.74-.22-.26L7.5,6c0-.1,0-.16,0-.19s.1,0,.17.09Z"/><path class="cls-2" d="M30,25.46a.81.81,0,0,1,.27-.12q.07,0,0,.33A4.12,4.12,0,0,1,29.5,27a3.57,3.57,0,0,1-1.15.72l.93.16.27.06s0,.11-.2.22a7.71,7.71,0,0,1-.91.58,10,10,0,0,1-1,.47c-.15.06-.21.06-.2,0s.07-.11.21-.18a14,14,0,0,0,1.61-1,3.34,3.34,0,0,1-1-.17c-.21-.07-.18-.17.08-.3a4.56,4.56,0,0,0,1.16-.83A3.36,3.36,0,0,0,30,25.69a3.2,3.2,0,0,1-1.9.61l.14-.22.66-.07A4.74,4.74,0,0,0,30,25.46Z"/></g></g></svg>