<svg xmlns="http://www.w3.org/2000/svg" viewBox="0 0 55.09 54.85"><defs><style>.cls-1{fill:#eeeeef;}.cls-1,.cls-10,.cls-11,.cls-12,.cls-13,.cls-14,.cls-2,.cls-3,.cls-4,.cls-5,.cls-6,.cls-7,.cls-8,.cls-9{fill-rule:evenodd;}.cls-2{fill:#0d131a;}.cls-3{fill:#f0e78e;}.cls-4{fill:#c9c279;}.cls-5{fill:#00b8ee;}.cls-6{fill:#c8c9ca;}.cls-7{fill:#00a0cf;}.cls-8{fill:#fff;}.cls-9{fill:#e4006e;}.cls-10{fill:#922f00;}.cls-11{fill:#ed8599;}.cls-12{fill:#6a1a00;}.cls-13{fill:#00568a;}.cls-14{fill:#00426f;}</style></defs><title>Asset 54@</title><g id="Layer_2" data-name="Layer 2"><g id="Layer_1-2" data-name="Layer 1"><path class="cls-1" d="M20.64,12.92c0,.06-.29.39-.95,1s-1.06.85-1.15.78l-2.69-1.85s-.06-.11,0-.23.08-.16.12-.16l.59,0a1.05,1.05,0,0,0,.39,0,18.2,18.2,0,0,0-1.6-1.9c-1.06-1.22-1.65-1.87-1.76-2s-.06-.13,0-.17a.42.42,0,0,1,.29,0,7.28,7.28,0,0,1,2.28,1.16c.56.36,1.09.71,1.58,1.05a2.2,2.2,0,0,0-.06-.43l-.13-.61a.45.45,0,0,1,0-.35H18a10.78,10.78,0,0,1,1.16,1.39,12.63,12.63,0,0,1,1.51,2.35Z"/><path class="cls-2" d="M17,12.59l-.46-.07-.47,0s-.07,0-.1.08,0,.1,0,.13a10.48,10.48,0,0,0,1,.67c.62.43,1.2.85,1.73,1.26a.25.25,0,0,1,.13.24c0,.08-.06.08-.16,0l-.93-.68-.85-.63-.58-.38-.48-.36c-.08-.07-.09-.16,0-.29a.31.31,0,0,1,.24-.21l.57,0,.34.07a.19.19,0,0,1,.12.11s0,0-.07,0Z"/><path class="cls-2" d="M14,8.47a.21.21,0,0,0-.2,0c-.05,0-.06.06-.05.1a6.65,6.65,0,0,0,.59.67l.72.78,1.2,1.33a5,5,0,0,1,.84,1.08.29.29,0,0,1,0,.29.21.21,0,0,1-.18.07h-.2c-.05,0-.07,0-.06-.07l.16,0c.09,0,.12-.07.08-.15A7.76,7.76,0,0,0,16,11.44l-1.09-1.23L13.46,8.63c-.06-.07,0-.16.07-.25a.42.42,0,0,1,.35-.11c.67.07,2,.79,3.86,2.14a.39.39,0,0,1,.1.28c0,.12,0,.16,0,.13A12,12,0,0,0,16,9.52a8.63,8.63,0,0,0-2-1Z"/><path class="cls-2" d="M20.47,13a8.17,8.17,0,0,0-1.21-2.1,9,9,0,0,0-1.4-1.64s-.07,0-.13,0-.09.09-.08.14l.08.35a8,8,0,0,1,.17,1,.62.62,0,0,1,0,.25.18.18,0,0,1-.15.13h-.12c-.06,0-.09,0-.09-.08s0,0,.11,0,.09-.14.06-.32l-.25-1.29c0-.09,0-.18.19-.28S17.89,9,18,9A8.09,8.09,0,0,1,19.66,11a8.7,8.7,0,0,1,1,2c0,.15,0,.23,0,.25s-.13-.07-.18-.25Z"/><path class="cls-3" d="M30.07,24.86c.07.37-.34,1-1.23,1.88L27.5,28s.11,0,.29,0a1.35,1.35,0,0,1,.86.47,2.82,2.82,0,0,1,.9,2.54c0,.07.08.19.25.38l.38.43A5,5,0,0,1,30.9,34a6.35,6.35,0,0,1-.17,2.82.94.94,0,0,0,.1.52,2.38,2.38,0,0,0,.21.51A4.05,4.05,0,0,1,31.38,39a8.53,8.53,0,0,1,.14,1.68A4.73,4.73,0,0,1,30.43,44a1,1,0,0,0-.31.52,1.34,1.34,0,0,0,.05.44,4.57,4.57,0,0,1-.85,2.74,5.47,5.47,0,0,1-2.65,2.29c-.1,0-.23.23-.39.55a4.44,4.44,0,0,1-.48.81A9,9,0,0,1,22.08,54a6.25,6.25,0,0,1-4,.25c-.37-.11-.58-.14-.61-.1a.78.78,0,0,1-.4.3,7.69,7.69,0,0,1-3,.29,5.27,5.27,0,0,1-2.76-.88,1.62,1.62,0,0,0-.43-.25l-.24,0a5.34,5.34,0,0,1-2.55-.76Q6.58,52,6.4,51.35t.78-.45a4.07,4.07,0,0,1,1.46.58l.8.55a1.3,1.3,0,0,1,.44.61,3.27,3.27,0,0,1,.76-.62,3.12,3.12,0,0,1,1.51-.35l1.65.08a2.29,2.29,0,0,1,1.23.41,3.23,3.23,0,0,1,1-1.25,4.78,4.78,0,0,1,1.22-.7,6.74,6.74,0,0,1,2.29-.47,3.9,3.9,0,0,1,1.69.2,4.22,4.22,0,0,1-.29-1.64,3,3,0,0,1,.4-1.36,3.7,3.7,0,0,1,1.19-1.21,2.84,2.84,0,0,1,1.38-.55,2,2,0,0,1-.62-1.11A4,4,0,0,1,23,42.76l.14-1.48a2.18,2.18,0,0,1,.71-1.49,6.89,6.89,0,0,1-1.13-1A2.55,2.55,0,0,1,22,37.24a5,5,0,0,1,.22-1.64,4,4,0,0,1,.52-1.15,8.08,8.08,0,0,1-1-.92A2.74,2.74,0,0,1,20.93,32a2.32,2.32,0,0,1,.49-1.51,1.94,1.94,0,0,1,1.12-.8,3.31,3.31,0,0,1-.43-1.33,4.4,4.4,0,0,1,.1-1.57,2.51,2.51,0,0,1,2.16-2l1.37-.08,1.05.06,2-.18q1.24-.08,1.32.36Z"/><path class="cls-4" d="M29.45,29.45a6.22,6.22,0,0,1,.14,1.63,6.19,6.19,0,0,1,1.35,3.75,6.42,6.42,0,0,1-.26,2.41,7.09,7.09,0,0,1,.71,4.2,4.88,4.88,0,0,1-1.24,2.74,6.58,6.58,0,0,1-.53,3,4.31,4.31,0,0,1-3.08,2.8l-.49.81A6.13,6.13,0,0,1,23.7,53a8.46,8.46,0,0,1-2.94,1.24,6.22,6.22,0,0,1-3.19-.18,3.57,3.57,0,0,1-1.76-1.26,4.26,4.26,0,0,0,2,.26,7.9,7.9,0,0,0,2.26-.53,4.93,4.93,0,0,0,1.7-1,1.08,1.08,0,0,0,.39-1.21A4.91,4.91,0,0,0,24,49.93a6.44,6.44,0,0,0,1.79-1.07,3.1,3.1,0,0,0,1.07-1.51,1.9,1.9,0,0,0-.38-1.76,2.55,2.55,0,0,0,2.38-1.77A6,6,0,0,0,29,40.08a7,7,0,0,1-2.38.33,5,5,0,0,1-2.77-.62l1.44.12a2.62,2.62,0,0,0,1.42-.11,3.76,3.76,0,0,0,2.24-3,4.7,4.7,0,0,0,0-1.63A3.29,3.29,0,0,0,28.49,34l-.1-.12H28a8.35,8.35,0,0,1-2.61.87,4.12,4.12,0,0,1-2.29-.1l2.14-.43a5.45,5.45,0,0,0,1.79-.61.87.87,0,0,0,.52-.63,2.13,2.13,0,0,0,0-1.09,3.15,3.15,0,0,0-1.78-2.15,13.53,13.53,0,0,1-2,.38,4.65,4.65,0,0,1-1.66-.21c-.06-.15.32-.32,1.13-.48a4.47,4.47,0,0,0,1.29-.35l1.51-.7A3.27,3.27,0,0,1,28.14,28a2.25,2.25,0,0,1,1.31,1.46Z"/><path class="cls-4" d="M11.15,53.77l-.3-.31c0-.05,0-.05,0,0a5,5,0,0,0,2.74.54,5,5,0,0,0,2.59-.59q.18-.12.48.12a4.26,4.26,0,0,0,1,.62,3.24,3.24,0,0,1-1.33.45l-1.92.11c-1.63-.06-2.72-.37-3.26-.94Z"/><path class="cls-4" d="M10.77,53.58a6.14,6.14,0,0,1-2.52-.78c-1-.52-1.52-.91-1.43-1.18a5.08,5.08,0,0,0,1.52.78,8.32,8.32,0,0,0,1.71.49,1.43,1.43,0,0,1,.55.36c.23.22.29.33.17.33Z"/><path class="cls-1" d="M7.67,21.59c.12.14.2.19.24.13l.15-.32c.1-.19.15-.28.17-.28l.26.34c.15.22.24.32.25.31l.43-.55a3.43,3.43,0,0,0,.44.75l.27-.25c.15-.15.24-.18.25-.08a6.68,6.68,0,0,1-.76,3.54A9.08,9.08,0,0,1,7.53,27.9c-.12.11-.21.09-.28,0a.43.43,0,0,1,0-.4,8.41,8.41,0,0,0,.54-3.11,12.06,12.06,0,0,0-.24-2.61c0-.1,0-.16,0-.19s.07,0,.11,0Z"/><path class="cls-2" d="M9.88,20.74c0-.24.06-.35.22-.35s.24.12.27.37a10.54,10.54,0,0,1-.54,3.94,8.43,8.43,0,0,1-1.91,3.59,1.91,1.91,0,0,1-.49.69.38.38,0,0,1-.49,0,.55.55,0,0,1-.22-.32,1.66,1.66,0,0,1,0-.61,1.84,1.84,0,0,1,.14-.66.88.88,0,0,1,.23-.1.9.9,0,0,0,.33-.18,6.93,6.93,0,0,0,1.87-3.07,8.89,8.89,0,0,0,.61-3.34Z"/><path class="cls-2" d="M7.05,21.88l-.16.24h-.2a.46.46,0,0,1-.14-.3c0-.16,0-.22,0-.16a.23.23,0,0,0,.13.06H6.8l.13-.25.12-.29c0-.08.06-.11.13-.08a2.23,2.23,0,0,1,.3.22l.32.24A3,3,0,0,1,8.23,21s.11.1.27.31l.26.32.18-.28q.17-.29.21-.27a1.43,1.43,0,0,1,.24.39l.21.4a2.27,2.27,0,0,0,.44-.4s.06,0,0,.1,0,.16-.07.19L9.82,22c-.11.13-.19.18-.24.17a1.75,1.75,0,0,1-.25-.41c-.13-.24-.19-.35-.2-.32L9,21.65l-.2.28s-.1-.08-.25-.28-.24-.31-.28-.31a1.21,1.21,0,0,0-.22.29q-.16.26-.18.24l-.28-.23-.27-.21s0,0-.06.08l-.06.15-.12.22Z"/><path class="cls-5" d="M10,20.82c0-.15,0-.23.07-.24s.08.07.1.23a9.56,9.56,0,0,1-.58,3.89A7.2,7.2,0,0,1,7.86,28l-.16.3a2.2,2.2,0,0,1-.25.4.23.23,0,0,1-.34,0q-.27-.2-.06-.84a.84.84,0,0,1,.12-.28l.16-.11.31-.25a7.4,7.4,0,0,0,1.65-2.68A10.53,10.53,0,0,0,10,20.82Z"/><path class="cls-5" d="M26.62,16.38a17.38,17.38,0,0,1,.59,3.47,6.28,6.28,0,0,1-.26,2.6,27.87,27.87,0,0,1-2.37,4.28,12.73,12.73,0,0,1-2.22,2.88A2.44,2.44,0,0,0,21,32.16a3.3,3.3,0,0,0,1.75,2.27s0,0,0,.07l-.11.13a2.68,2.68,0,0,0-.5,1A4.05,4.05,0,0,0,22,37.08a2.91,2.91,0,0,0,1.86,2.58l.12.05s0,.06-.05.08a1.23,1.23,0,0,0-.63.8A4.68,4.68,0,0,0,23,42.06a4.83,4.83,0,0,0,.73,3s0,.06,0,.1a.14.14,0,0,1-.13.08A3.18,3.18,0,0,0,21.31,47,2.82,2.82,0,0,0,21,49.48c0,.11,0,.2-.14.27a.64.64,0,0,1-.3.07,6.45,6.45,0,0,0-3.16.34,4.14,4.14,0,0,0-2.26,1.72l-.1.12a.7.7,0,0,1-.24.06,1.89,1.89,0,0,0-.82-.3l-1.37-.09a3.9,3.9,0,0,0-2.7.87l-.21-.23-.14-.17A4.44,4.44,0,0,0,7.74,51c-.71-.22-1.19-.17-1.44.17a2.87,2.87,0,0,1-.39-.72A4.23,4.23,0,0,1,3.54,48.8a3.81,3.81,0,0,1-1-2.28,4.21,4.21,0,0,1-1.37-2.18A5.2,5.2,0,0,1,.68,41.7,3.65,3.65,0,0,1,.2,39a9,9,0,0,1,.25-1.5,2,2,0,0,1,.43-.9,5.08,5.08,0,0,1,1.4-4.87A4.84,4.84,0,0,1,3,29.28a4.16,4.16,0,0,1,1.11-1.16A3.24,3.24,0,0,1,5,28a5.94,5.94,0,0,0,.62-2.5l.07-1.2a14.52,14.52,0,0,0,0-1.78,10.64,10.64,0,0,0-.3-1.82q-.11-.36-.27-.81C5,19.74,5,19.65,5,19.66s.07-.06.24.09.3.24.31.21a5.45,5.45,0,0,0-.17-.7c-.11-.44-.14-.65-.08-.66.29,0,.64.41,1,1.27a1.45,1.45,0,0,1,.1-.5s.12.11.27.35a6.32,6.32,0,0,1,.45.85,6.51,6.51,0,0,1,.48,2,14.26,14.26,0,0,1,0,3,9.15,9.15,0,0,1-.84,3.21,3,3,0,0,1,.34.52,3.1,3.1,0,0,1-.13,1.83,4,4,0,0,1-1.24,2.19,5.88,5.88,0,0,1-.16,1.6,3,3,0,0,1-.57,1.27,2.54,2.54,0,0,1,.57,1.54,5.07,5.07,0,0,1,0,1.87,2.25,2.25,0,0,1,.91.92,2.92,2.92,0,0,1,.51,1.67,2.74,2.74,0,0,1,1.41.75,3.38,3.38,0,0,1,1.26,1.65,2.43,2.43,0,0,1,1.26.2,3.07,3.07,0,0,1,1.37.81,4.61,4.61,0,0,1,1.44-.21l1.24.14a4.94,4.94,0,0,1,1.64-1.07,9.87,9.87,0,0,1,1.44-.52,2.55,2.55,0,0,1,.57-1.34,3.33,3.33,0,0,1,1.08-1.18,6.11,6.11,0,0,1-.24-2c0-1,.11-1.67.36-1.9a21.51,21.51,0,0,1-1.11-1.92,7.68,7.68,0,0,1-.87-3.22,2.35,2.35,0,0,1-.32-1,5.89,5.89,0,0,0-.25-1.11,8.31,8.31,0,0,1-1.21-2.9,12,12,0,0,1-.3-3.19,9.33,9.33,0,0,1,.47-2.75,2.89,2.89,0,0,1,1.09-1.61l0-1.28a9.71,9.71,0,0,1,.14-1.33,6.73,6.73,0,0,1,2.55-4.09,7.18,7.18,0,0,1,1.79-1.08,3.09,3.09,0,0,1,1.5-.28,2.87,2.87,0,0,1,1.89,1.49,11.32,11.32,0,0,1,1.3,3.11Z"/><path class="cls-3" d="M18.86,32.31a1.44,1.44,0,0,1-.82-.56,3.77,3.77,0,0,1-.58-1.55A2.6,2.6,0,0,1,17.83,28c.08-.09.46.07,1.15.49s.95.7.8.86a2,2,0,0,0-.46,1.22,8,8,0,0,0,0,1.55c0,.22-.13.28-.46.2Z"/><path class="cls-3" d="M19.3,33.62c.08-.22.38-.2.92,0s.74.41.61.53-.19.48-.17,1.1A5.86,5.86,0,0,0,21,37.22c0,.07-.05.11-.22.14l-.4,0a2.35,2.35,0,0,1-1-1.33,3.33,3.33,0,0,1-.14-2.39Z"/><path class="cls-3" d="M20.6,38.27a1,1,0,0,1,.57.29l.83.68a2.48,2.48,0,0,0-.31,1.25l-.13,1.64c0,.15-.12.19-.29.12a1.14,1.14,0,0,1-.51-.48,3.65,3.65,0,0,1-.39-1.63,3.43,3.43,0,0,1,.23-1.87Z"/><path class="cls-3" d="M20.27,42.25c.1-.06.29.13.56.55a6,6,0,0,0,1,1.26,3.85,3.85,0,0,0-1.15,1,6.39,6.39,0,0,1-1,1A.32.32,0,0,1,19.2,46a1.38,1.38,0,0,1-.25-.67,3.42,3.42,0,0,1,.28-1.58,2.58,2.58,0,0,1,1-1.48Z"/><path class="cls-3" d="M18.6,47.16a3.83,3.83,0,0,1,.29.82,5.35,5.35,0,0,1-1.43.32,5.12,5.12,0,0,1-2.1-.08A.41.41,0,0,1,15.1,48a.65.65,0,0,1,0-.48,2.77,2.77,0,0,1,1-1.1,4.06,4.06,0,0,1,2-.93,10.94,10.94,0,0,0,.53,1.67Z"/><path class="cls-3" d="M14.1,47c-.08.45-.13.83-.15,1.11a6.39,6.39,0,0,0,0,1.52,11.34,11.34,0,0,1-3.23-.53.91.91,0,0,1-.25-.38.77.77,0,0,1,.18-.56,2.87,2.87,0,0,1,1.5-.87A4.37,4.37,0,0,1,14.1,47Z"/><path class="cls-3" d="M9.39,48.36A3.77,3.77,0,0,0,9,49.71,3.62,3.62,0,0,1,7.87,49,2.79,2.79,0,0,1,7.05,48,1.51,1.51,0,0,1,7,47.72a.42.42,0,0,1,.22-.35l1.22,0a3.35,3.35,0,0,1,1.21.39,2.35,2.35,0,0,1-.23.56Z"/><path class="cls-3" d="M4,44.85a3.15,3.15,0,0,1,1.14.67,5.32,5.32,0,0,1,1,.85l-.31.85a6.21,6.21,0,0,0-.31,1.08A4.46,4.46,0,0,1,4,46.62a2.82,2.82,0,0,1-.44-1.25A.73.73,0,0,1,3.69,45,.33.33,0,0,1,4,44.85Z"/><path class="cls-3" d="M2.55,45.4c-.27-.11-.56-.67-.89-1.68s-.41-1.63-.22-1.85.45,0,.89.56a4,4,0,0,1,.76,1.41c-.18.35-.3.6-.35.72a3.22,3.22,0,0,0-.19.84Z"/><path class="cls-3" d="M1.5,40.23a7.66,7.66,0,0,0-.68.83,4.34,4.34,0,0,1-.15-1.88A3.6,3.6,0,0,1,.93,37.7l.26-.26c.08-.06.15,0,.21.05a6.54,6.54,0,0,1,.28,1.14l.18,1.12s-.11.22-.36.48Z"/><path class="cls-3" d="M1.79,32.36s.06,0,.1.18A6,6,0,0,1,2,34.34a5,5,0,0,1-.14,1.31l-.52.54c-.31.29-.46.41-.48.37a5,5,0,0,1,0-2,3.75,3.75,0,0,1,.9-2.16Z"/><path class="cls-3" d="M3.15,28.83c.07,0,.12,0,.16.06a2.42,2.42,0,0,1-.13,1.57,4.41,4.41,0,0,1-.43,1,.65.65,0,0,1-.25.14H2.27A3.26,3.26,0,0,1,2.5,30.2,4.13,4.13,0,0,1,3,29l.18-.19Z"/><path class="cls-3" d="M18.59,27.75a1.49,1.49,0,0,1-.76-.61,5.33,5.33,0,0,1-.42-2.45,4,4,0,0,1,.5-2.61c.14.24.49.74,1,1.49s.66,1.07.58,1.18a3.72,3.72,0,0,0-.19,1.54,4.41,4.41,0,0,1-.1,1.37.56.56,0,0,1-.65.09Z"/><path class="cls-1" d="M3.59,20.59s.11.11.23.33.18.31.2.3l.28-.42c.17-.26.27-.38.29-.35.28.62.43.91.46.88L5.21,21c.1-.2.19-.25.24-.13a4.62,4.62,0,0,1,.19,1.22l.12,1.73a9,9,0,0,1-.15,1.89A4.21,4.21,0,0,1,5.3,27c-.07.09-.18.08-.34,0a.49.49,0,0,1-.25-.31.56.56,0,0,0-.25-.31L4,26a5.81,5.81,0,0,1-1.11-2.27,8.63,8.63,0,0,1-.63-2.53.43.43,0,0,1,.16-.3.48.48,0,0,1,.22-.14s.11.11.23.33l.22.36s.11-.12.26-.41.25-.43.28-.43Z"/><path class="cls-2" d="M6.74,28.54a1.31,1.31,0,0,1,.52.68,4,4,0,0,1-.2,2.42,3,3,0,0,1-1.15,1.65c-.13.07-.14,0,0-.26a3.47,3.47,0,0,0,1-1.71,3.28,3.28,0,0,0,.07-2,1.69,1.69,0,0,0-1.33-1A2,2,0,0,0,4,28.36a2.9,2.9,0,0,0-1,1.13,4.91,4.91,0,0,0-.56,2.21.35.35,0,0,1-.11.19c-.07.07-.11.06-.11-.05a5.42,5.42,0,0,1,.21-1.71,3.59,3.59,0,0,1,1.2-1.87,2.26,2.26,0,0,1,2.16-.21,3.22,3.22,0,0,1,1,.49Z"/><path class="cls-2" d="M4,31.28a2.05,2.05,0,0,1,1.75,1.27,3.25,3.25,0,0,1,.15,2,3.8,3.8,0,0,1-.72,1.75c0,.06-.08,0-.12,0a.28.28,0,0,1,0-.2,4.94,4.94,0,0,0,.61-1.79,3.08,3.08,0,0,0-.2-1.76A1.7,1.7,0,0,0,4,31.59a1.93,1.93,0,0,0-1.84.57,4.73,4.73,0,0,0-1.07,2,4.61,4.61,0,0,0,0,2.3.15.15,0,0,1-.09.19q-.12,0-.15,0a4.71,4.71,0,0,1-.09-2.15,4.31,4.31,0,0,1,1.12-2.41A2.46,2.46,0,0,1,4,31.28Z"/><path class="cls-2" d="M5.81,18.79a2,2,0,0,1,.55.86c0-.28,0-.41.15-.38a.67.67,0,0,1,.26.27,7.74,7.74,0,0,1,1.09,4.05A13,13,0,0,1,7,28.83c0,.09-.1.1-.17,0a.28.28,0,0,1-.07-.28,13.42,13.42,0,0,0,.87-5.25,6.56,6.56,0,0,0-1-3.76c0-.06-.07.11-.08.52,0,.05,0,.08,0,.08s0,0-.07-.08a4.2,4.2,0,0,0-.3-.66,2.69,2.69,0,0,0-.46-.56l-.14-.09H5.38l.13.56a4,4,0,0,1,.15.78c0,.1,0,.13,0,.08l-.39-.37c-.09-.05-.09,0,0,.16a9.63,9.63,0,0,1,.62,3.33,11,11,0,0,1-.56,4.39.22.22,0,0,1-.24.14c-.11,0-.14-.06-.09-.16A8.72,8.72,0,0,0,5.64,24,9,9,0,0,0,5,20c-.13-.28-.15-.44-.06-.47s.25.06.47.28c0,0,0-.18-.11-.55a1.69,1.69,0,0,1-.11-.64q.15-.21.6.21Z"/><path class="cls-2" d="M2.22,21a1.73,1.73,0,0,1,.29-.48l.05,0a.27.27,0,0,1,.1.11l.36.64.17-.32.25-.52c.05-.08.09-.12.11-.12s.08.05.13.15l.2.38.15.25.23-.36a1.61,1.61,0,0,1,.27-.41s.13.11.26.41L5,21.2l.19-.35c.12-.23.18-.3.2-.22l0,.21-.1.2-.21.33c-.08.11-.14.15-.19.12a1.4,1.4,0,0,1-.22-.39l-.19-.38s-.08.07-.19.25l-.25.38L4,21.42,4,21.33c-.24-.43-.37-.63-.4-.62l-.23.38-.26.46c0,.06-.07.06-.1,0a3.78,3.78,0,0,0-.44-.68s-.13.12-.28.4c0,.05-.05,0-.05-.05a.38.38,0,0,1,0-.22Z"/><path class="cls-2" d="M1.68,20.71c0-.44,0-.63.21-.59s.29.28.35.72A9.69,9.69,0,0,0,3,23.44a19,19,0,0,0,1.61,2.88,1.43,1.43,0,0,1,.86.89.7.7,0,0,1-.27.88.44.44,0,0,1-.49,0,1.36,1.36,0,0,1-.53-.79,13.65,13.65,0,0,1-1.64-3,12.13,12.13,0,0,1-.86-3.59Z"/><path class="cls-5" d="M1.83,20.73c0-.3,0-.43,0-.39s.13.18.17.41a13.26,13.26,0,0,0,2.52,5.78,1.1,1.1,0,0,1,.49.41,1.09,1.09,0,0,1,.25.49.39.39,0,0,1-.08.34.29.29,0,0,1-.31.11.61.61,0,0,1-.27-.18,1.13,1.13,0,0,1-.27-.52,15.65,15.65,0,0,1-1.73-3.06,13.16,13.16,0,0,1-.82-3.39Z"/><path class="cls-2" d="M24.39,11.66q.38,0,0,.09l-.9.15a7.53,7.53,0,0,0-3.69,1.79,6.75,6.75,0,0,0-2,3.49,8.2,8.2,0,0,0,0,3.72,6.51,6.51,0,0,0,2.43,3.85.94.94,0,0,1,.36.45c0,.15-.16.06-.59-.26a6.52,6.52,0,0,1-2.35-3.46,8.36,8.36,0,0,1-.22-4.24,6.78,6.78,0,0,1,2.31-3.91,6.62,6.62,0,0,1,4.66-1.67Z"/><path class="cls-2" d="M16.25,21.37a4.13,4.13,0,0,1,1.12-1.77c.13-.11.19-.08.18.08a.62.62,0,0,1-.13.38,4.53,4.53,0,0,0-.88,1.69A10.39,10.39,0,0,0,16.13,24a11.68,11.68,0,0,0,.13,2.87A4.26,4.26,0,0,0,17.11,29a3.94,3.94,0,0,0,3.51,1A19.08,19.08,0,0,0,25,28.78a2.08,2.08,0,0,1,.61-.14c.19,0,.14.08-.16.24a10.77,10.77,0,0,1-4.78,1.4c-1.84.12-3.11-.23-3.84-1.05a4.78,4.78,0,0,1-1-2.22,11.65,11.65,0,0,1-.19-3,9.15,9.15,0,0,1,.54-2.65Z"/><path class="cls-2" d="M16.42,28.46c.13,0,.22.17.28.48a10.8,10.8,0,0,0,.41,1.5,3.8,3.8,0,0,0,.52,1.07,7,7,0,0,0,2.53,2,6.88,6.88,0,0,0,3.89.78,8.24,8.24,0,0,0,4-1.39,2.54,2.54,0,0,0,1.34-2.44.91.91,0,0,1,.07-.66c.09-.15.16.12.22.79.1,1.3-.68,2.33-2.35,3.09a10.8,10.8,0,0,1-3.13.84,7.79,7.79,0,0,1-4.76-1,5.61,5.61,0,0,1-2.07-1.78,6.11,6.11,0,0,1-.58-1.2,10.7,10.7,0,0,1-.42-1.51q-.13-.63.06-.63Z"/><path class="cls-2" d="M17.8,32.11q0-.09.15.09a.62.62,0,0,1,.18.3,10,10,0,0,0,.71,2.67,10.2,10.2,0,0,0,1.25,2.18A6,6,0,0,0,22.38,39a7.24,7.24,0,0,0,4,.66,5.39,5.39,0,0,0,3.09-1.28,4.25,4.25,0,0,0,1.32-2.34,5.59,5.59,0,0,0-.09-2.63,4.84,4.84,0,0,0-1.13-2.13s-.05-.13,0-.26.05-.18.08-.16a4.8,4.8,0,0,1,1.3,2.19A6.25,6.25,0,0,1,31.1,36a4.5,4.5,0,0,1-1.41,2.65A5.74,5.74,0,0,1,26.13,40a8.12,8.12,0,0,1-3.44-.46,6.08,6.08,0,0,1-2.76-1.94,9.9,9.9,0,0,1-1.39-2.42,9.14,9.14,0,0,1-.74-3.08Z"/><path class="cls-2" d="M19.4,39a3.86,3.86,0,0,1,.49-1.64c0-.05.07,0,.13.08a.41.41,0,0,1,.06.22,4.25,4.25,0,0,0-.34,1.33,4.64,4.64,0,0,0,.19,1.9,6.49,6.49,0,0,0,2,3.06,6.32,6.32,0,0,0,2.94,1.35,6.89,6.89,0,0,0,3-.07A4.38,4.38,0,0,0,30.15,44a4.7,4.7,0,0,0,1.19-3.08,7.12,7.12,0,0,0-.69-3.45.36.36,0,0,1,0-.27c0-.12.08-.15.1-.11a6.79,6.79,0,0,1,.87,4,5.32,5.32,0,0,1-1.2,3.07A4.54,4.54,0,0,1,28,45.51a7.23,7.23,0,0,1-3.24,0A6.9,6.9,0,0,1,21.64,44a6.46,6.46,0,0,1-2-3.18A5,5,0,0,1,19.4,39Z"/><path class="cls-2" d="M18,44.15a4.06,4.06,0,0,1,.6-1.69,4,4,0,0,1,1.24-1.31c.07,0,.11,0,.14.05a.16.16,0,0,1,0,.19,4.78,4.78,0,0,0-1.09,1.3,3.19,3.19,0,0,0-.51,1.5A6.21,6.21,0,0,0,19,47.56a5.06,5.06,0,0,0,2.66,2.36,6.09,6.09,0,0,0,2.54.41,7.06,7.06,0,0,0,2.75-.69,5.34,5.34,0,0,0,2.19-1.93A6,6,0,0,0,30,44.37a.33.33,0,0,1,.15-.23c.1-.07.15-.08.15,0a7,7,0,0,1-.85,3.58,5.51,5.51,0,0,1-2.21,2.15,6.47,6.47,0,0,1-2.91.78,7,7,0,0,1-3-.52A5.24,5.24,0,0,1,18.82,48a6.1,6.1,0,0,1-.83-3.8Z"/><path class="cls-2" d="M18.09,44.14a3.94,3.94,0,0,0-1.88.71,4.53,4.53,0,0,0-1.77,2,5,5,0,0,0-.06,3.52,5.73,5.73,0,0,0,2.67,3.27,4.23,4.23,0,0,0,2.14.51,8.11,8.11,0,0,0,2.65-.43,8.4,8.4,0,0,0,2.54-1.32,6,6,0,0,0,1.8-2.18,1.05,1.05,0,0,1,.28-.33q.22-.18.06.27A5.51,5.51,0,0,1,25,52.41a7.72,7.72,0,0,1-2.41,1.52,8.21,8.21,0,0,1-2.82.61A6.36,6.36,0,0,1,17,54a4.67,4.67,0,0,1-1.47-1,6.43,6.43,0,0,1-1.2-1.71,5.52,5.52,0,0,1-.21-4.56,5.06,5.06,0,0,1,4-2.95c.06,0,.06,0,0,.18s-.08.19-.11.19Z"/><path class="cls-2" d="M15.13,45.44c.12,0,.11.09,0,.15a.43.43,0,0,1-.35,0,4,4,0,0,0-2.19.07,4.58,4.58,0,0,0-1.88,1.11,4.52,4.52,0,0,0-1.2,1.84,4.18,4.18,0,0,0-.15,2.27,4.34,4.34,0,0,0,3.4,3.38,7.28,7.28,0,0,0,2.48.25A6.52,6.52,0,0,0,17.48,54l.27,0c.14,0,.18.06.13.09a6,6,0,0,1-2.22.65A7.46,7.46,0,0,1,13,54.65a5.74,5.74,0,0,1-2.42-1.15,4.69,4.69,0,0,1-1.52-2.4,4.28,4.28,0,0,1,0-2.27,5,5,0,0,1,1.16-2.08,4.58,4.58,0,0,1,2.08-1.32,4.85,4.85,0,0,1,2.8,0Z"/><path class="cls-2" d="M12.15,45.48a4.07,4.07,0,0,0-2-.75A4.12,4.12,0,0,0,8.07,45,3.72,3.72,0,0,0,5.89,47.5a4.47,4.47,0,0,0,.23,3.11,4.33,4.33,0,0,0,2,1.94,6.86,6.86,0,0,0,2.66.89.67.67,0,0,1,.33.14c.11.08.09.12-.05.11A6.86,6.86,0,0,1,8.17,53a5.15,5.15,0,0,1-2.26-2,4.27,4.27,0,0,1-.51-1.63,4.8,4.8,0,0,1,.13-1.81A3.72,3.72,0,0,1,7.9,44.75a4.9,4.9,0,0,1,2.46-.3,3.75,3.75,0,0,1,2.11,1s0,.07-.08.08a.26.26,0,0,1-.24,0Z"/><path class="cls-2" d="M4.65,42.34a3.51,3.51,0,0,1,2.62-.27,3.79,3.79,0,0,1,1.79,1.16,4,4,0,0,1,.8,1.29c0,.08,0,.13-.07.14s-.15,0-.19-.12A4,4,0,0,0,8.42,43a3.44,3.44,0,0,0-1.36-.73,3.31,3.31,0,0,0-2.27.33,3.86,3.86,0,0,0-1.62,1.58,3.66,3.66,0,0,0-.12,3.38,5.52,5.52,0,0,0,2.78,2.8l.2.2c.07.1.07.13,0,.1a5.46,5.46,0,0,1-3-2.46,4.18,4.18,0,0,1-.22-4,3.72,3.72,0,0,1,1.87-1.9Z"/><path class="cls-2" d="M3.14,39.11a3.08,3.08,0,0,1,3,.68A3.32,3.32,0,0,1,7,40.93a2.67,2.67,0,0,1,.24,1.28s0,.06-.14,0S7,42.16,7,42.11a2.62,2.62,0,0,0-1.09-2.18,2.74,2.74,0,0,0-2.62-.59,3.73,3.73,0,0,0-1.39.74,3,3,0,0,0-1,2.12,5.08,5.08,0,0,0,.47,2.12,6.39,6.39,0,0,0,1.21,2,.63.63,0,0,1,.1.23c0,.11,0,.15,0,.11A4.89,4.89,0,0,1,1,44.55,6,6,0,0,1,.5,42.18a3,3,0,0,1,.64-1.78,3.61,3.61,0,0,1,2-1.29Z"/><path class="cls-2" d="M5.53,39.48a4.44,4.44,0,0,0,0-1.85,3.07,3.07,0,0,0-.63-1.41,2.18,2.18,0,0,0-1.83-.8,2.7,2.7,0,0,0-2,1.24,4.06,4.06,0,0,0-.69,2A6.23,6.23,0,0,0,.68,41.5a.64.64,0,0,1,0,.34C.65,42,.62,42,.6,42A5.93,5.93,0,0,1,0,38.81,4,4,0,0,1,.9,36.38a3,3,0,0,1,2.57-1.22,2.54,2.54,0,0,1,1.79,1,3.46,3.46,0,0,1,.59,1.59,3.91,3.91,0,0,1-.11,1.93c0,.05-.06,0-.12,0a.37.37,0,0,1-.09-.16Z"/><path class="cls-2" d="M17.85,22c.06-.06.11-.06.14,0s0,.09,0,.16a4.88,4.88,0,0,0-.49,2.39A5.3,5.3,0,0,0,17.85,27a1.13,1.13,0,0,0,.9.73.47.47,0,0,0,.37-.1.36.36,0,0,0,.13-.33,10.29,10.29,0,0,1,0-1.57,2.29,2.29,0,0,1,.28-1.18c.07-.09.14-.1.19-.06s0,.11,0,.18a2.1,2.1,0,0,0-.27,1.07,11.64,11.64,0,0,0,0,1.57.56.56,0,0,1-.17.5.55.55,0,0,1-.47.15,1.32,1.32,0,0,1-1.09-.87,6.11,6.11,0,0,1-.41-2.66A3.58,3.58,0,0,1,17.85,22Z"/><path class="cls-2" d="M20,17.23a7.74,7.74,0,0,1,3.16-5,6.3,6.3,0,0,1,3.13-1.18,6,6,0,0,1,2.65.4l1.16.36c.56.14,1.07.25,1.54.32A3.24,3.24,0,0,0,33.08,12l.66-.2c.3.08.56.44.77,1.07a3.64,3.64,0,0,1,.15,1.89,2.83,2.83,0,0,0,0,1.16,7.76,7.76,0,0,1,.07,1.86,10,10,0,0,1-.53,2.67,6.47,6.47,0,0,1-4.78,4.37,9.61,9.61,0,0,1-5.13-.23,17.77,17.77,0,0,1-1.82-.69,11.19,11.19,0,0,0-1.14-.45,7.45,7.45,0,0,0-1-.2l-.54,0a1.71,1.71,0,0,1-1-.76c-.36-.47-.5-.81-.4-1l.49-.51a4.68,4.68,0,0,0,.77-1.18,4.61,4.61,0,0,0,.26-1.22L20,17.23Z"/><path class="cls-5" d="M20.34,17.37a7.34,7.34,0,0,1,.91-2.55,6.13,6.13,0,0,1,1.74-2,11.24,11.24,0,0,1,1.73-1.07,4.85,4.85,0,0,1,2-.49,7.37,7.37,0,0,1,2.06.41q1.65.54,2,.6a7.21,7.21,0,0,0,1.53.16,2.94,2.94,0,0,0,1.16-.26c.25-.11.5.15.74.8a2.13,2.13,0,0,1,.08,1.65,2.15,2.15,0,0,0-.24,1.64,3.29,3.29,0,0,1,.14,1.41,7.39,7.39,0,0,1-.49,2.18A7,7,0,0,1,29.65,24q-2.92,1.18-7.51-.58A11.38,11.38,0,0,0,21,23a2.3,2.3,0,0,0-1.16-.08c-.17,0-.44-.17-.82-.61s-.5-.73-.33-.85A3.57,3.57,0,0,0,20,19.36a10.52,10.52,0,0,0,.19-1.11l.11-.88Z"/><path class="cls-2" d="M22.72,29.49c.24,0,.33,0,.26,0l-.31.15a2.53,2.53,0,0,0-1.17.84,2.17,2.17,0,0,0-.44,1.24,2.37,2.37,0,0,0,.37,1.37,3.54,3.54,0,0,0,1.28,1.2c.13.07.18.12.16.16h-.15a3.5,3.5,0,0,1-1.6-1.41,2.29,2.29,0,0,1-.28-1.55,2.55,2.55,0,0,1,.66-1.32,2.17,2.17,0,0,1,1.22-.69Z"/><path class="cls-2" d="M22.57,34.45c.06-.05.11-.06.16,0a.1.1,0,0,1,0,.14,3.88,3.88,0,0,0-.6,3,3.22,3.22,0,0,0,2.06,2.13c.17.07.22.13.16.19H24.1a3.15,3.15,0,0,1-2.27-3.12,4.3,4.3,0,0,1,.29-1.51,2.85,2.85,0,0,1,.45-.83Z"/><path class="cls-2" d="M23.85,39.77l0,.12a3.34,3.34,0,0,0-.74,2.28,4.81,4.81,0,0,0,.55,2.67c.12.2.17.32.14.36s-.15-.06-.37-.3a3.78,3.78,0,0,1-.58-2.51,3.45,3.45,0,0,1,.81-2.62Z"/><path class="cls-2" d="M23.81,45.28a2.71,2.71,0,0,0-1.36.55,3.59,3.59,0,0,0-1,1.16A3.55,3.55,0,0,0,21,48.44a2.68,2.68,0,0,0,.25,1.42c0,.07,0,.08-.08,0a.5.5,0,0,1-.23-.26,2.43,2.43,0,0,1-.2-1.22,3.9,3.9,0,0,1,.38-1.4,3.06,3.06,0,0,1,2.42-1.86,1.2,1.2,0,0,1,.59,0c.09,0,0,.08-.34.11Z"/><path class="cls-2" d="M20.91,49.79c.25.11.36.18.34.21L21,50a3.17,3.17,0,0,0-1.34-.13,7.58,7.58,0,0,0-1.85.33c-1.56.47-2.42,1.17-2.57,2.09,0,.08,0,.09-.08,0a.4.4,0,0,1-.05-.22,1.57,1.57,0,0,1,.67-1.16A5.57,5.57,0,0,1,17.4,50a7.53,7.53,0,0,1,1.92-.42,3.43,3.43,0,0,1,1.59.17Z"/><path class="cls-2" d="M10.64,51.93a5.89,5.89,0,0,1,1.49-.38c1.41-.19,2.38,0,2.93.54q.24.22.12.24a.65.65,0,0,1-.33-.12,4.43,4.43,0,0,0-2.72-.39c-1.15.12-1.82.39-2,.8a.1.1,0,0,1-.13.05c-.07,0-.09-.07-.06-.16s.29-.39.72-.58Z"/><path class="cls-2" d="M10,52.61c.1.15.12.23.07.22s-.13-.07-.2-.19A4,4,0,0,0,8,51.24c-.88-.35-1.41-.34-1.61,0,0,.08-.08.09-.12,0a.16.16,0,0,1,0-.16c0-.22.21-.35.52-.39a2.57,2.57,0,0,1,1.06.16A4,4,0,0,1,10,52.61Z"/><path class="cls-2" d="M20.73,34.1c0-.12.08-.16.14-.13s.06.1,0,.2a3.25,3.25,0,0,0-.11,1.77,11.53,11.53,0,0,0,.33,1.32c0,.08-.05.14-.2.19a.66.66,0,0,1-.47-.06,2.52,2.52,0,0,1-1.14-1.56,3.73,3.73,0,0,1-.07-2.26c0-.08.06-.1.1-.09s.05.07,0,.14a3.21,3.21,0,0,0,.2,2.49,2.83,2.83,0,0,0,.61.92.74.74,0,0,0,.7.25c.06,0,.06-.11,0-.29l-.18-.69a4.41,4.41,0,0,1,0-2.2Z"/><path class="cls-2" d="M22,39.05c0-.09.09-.1.14,0a.12.12,0,0,1,0,.17,3.59,3.59,0,0,0-.41,1.66l-.12,1.38c0,.11-.15.15-.35.11a.73.73,0,0,1-.48-.38,4.6,4.6,0,0,1-.51-2.14,4.27,4.27,0,0,1,.26-1.65s0,0,.12,0,.1.08.09.1a3.45,3.45,0,0,0-.23,2.32c.16,1.09.45,1.63.88,1.61.07,0,.12-.1.14-.3l0-.76A5.84,5.84,0,0,1,22,39.05Z"/><path class="cls-2" d="M20.36,42.15c0,.06,0,.12-.07.18a3.72,3.72,0,0,0-1.18,2.21,2.84,2.84,0,0,0,0,1c0,.27.11.43.22.48s.52-.12,1-.63A6.37,6.37,0,0,1,21.66,44,.31.31,0,0,1,22,44c.08,0,0,.09-.14.17a4.55,4.55,0,0,0-1.08.91l-.93,1a.43.43,0,0,1-.55.11.84.84,0,0,1-.36-.66,3.51,3.51,0,0,1,.51-2.41,4.48,4.48,0,0,1,.83-.94c.07-.06.11-.06.13,0Z"/><path class="cls-2" d="M16.19,46.23A4.84,4.84,0,0,1,18,45.4c.12,0,.18,0,.17.11a.14.14,0,0,1-.14.15,3.72,3.72,0,0,0-2.16,1,3.27,3.27,0,0,0-.62.72c-.14.23-.18.41-.11.52q.25.48,1.77.33a7.51,7.51,0,0,0,1.94-.38c.14-.06.23-.05.27,0s0,.13-.19.17a12.12,12.12,0,0,1-1.55.35,4,4,0,0,1-2.09-.12A.6.6,0,0,1,15,48a.68.68,0,0,1,0-.45,2.91,2.91,0,0,1,1.16-1.29Z"/><path class="cls-2" d="M14,47.14a3.34,3.34,0,0,0-2.12.34c-.92.38-1.37.77-1.35,1.18s.35.52,1,.66l2.32.28c.19,0,.27,0,.25.1s-.11.08-.26.09l-1.45-.15a5.62,5.62,0,0,1-1.68-.41.57.57,0,0,1-.33-.64,1.12,1.12,0,0,1,.43-.65,4.7,4.7,0,0,1,1.77-.85A3.64,3.64,0,0,1,14.12,47c.14,0,.19.07.13.14a.19.19,0,0,1-.22,0Z"/><path class="cls-2" d="M9.55,47.86a3.94,3.94,0,0,0-1.35-.45c-.68-.13-1.06-.06-1.15.2s.08.57.52,1A5,5,0,0,0,9,49.6a.2.2,0,0,1,.11.14c0,.07,0,.09-.11,0a4.72,4.72,0,0,1-1.28-.86,2.54,2.54,0,0,1-.77-1A.44.44,0,0,1,7,47.42a.69.69,0,0,1,.44-.19l.81.05a4.37,4.37,0,0,1,1.35.43.12.12,0,0,1,.07.14s-.07,0-.15,0Z"/><path class="cls-2" d="M4.06,44.83a2.33,2.33,0,0,1,.88.47,7.47,7.47,0,0,1,1.18,1c0,.06.07.11,0,.14s-.07,0-.15-.06c-.68-.59-1.12-1-1.33-1.1-.45-.32-.78-.4-1-.26s-.17.65.21,1.42A4,4,0,0,0,5.48,48.2a.16.16,0,0,1,.08.16q0,.12-.12,0A5.18,5.18,0,0,1,4,46.85a2.94,2.94,0,0,1-.53-1.45.61.61,0,0,1,.16-.47.56.56,0,0,1,.44-.1Z"/><path class="cls-2" d="M1.54,43.21a4.91,4.91,0,0,0,1,2.09s0,.07,0,.12-.07.07-.1,0a4.9,4.9,0,0,1-.85-1.64A4.2,4.2,0,0,1,1.32,42a.3.3,0,0,1,.14-.25h.23a3,3,0,0,1,1,1.08,8.76,8.76,0,0,1,.52.95.33.33,0,0,1,0,.17c0,.06,0,.06-.08,0-.68-1.38-1.2-2.08-1.56-2.08s-.24.45,0,1.34Z"/><path class="cls-2" d="M1.81,39.79l-.26-1.5c-.1-.54-.21-.79-.34-.77s-.4.47-.48,1.25A6.06,6.06,0,0,0,.89,41a.25.25,0,0,1,0,.17s-.06,0-.1-.07a4.94,4.94,0,0,1-.18-2.22c.1-1,.31-1.49.65-1.51.19,0,.34.31.47,1l.23,1.37c0,.13,0,.22,0,.28s-.08,0-.11-.18Z"/><path class="cls-2" d="M3.24,28.71q.31.16.24.9a5.15,5.15,0,0,1-.64,1.86.11.11,0,0,1-.13.08s0-.05,0-.1a4.86,4.86,0,0,0,.53-1.35c.17-.64.16-1,0-1.12s-.06-.08,0-.17,0-.12.08-.1Z"/><path class="cls-1" d="M24.6,5c.53.67.94,2.37,1.22,5.08.11,1,.17,2,.19,2.95a7.52,7.52,0,0,1-.07,1.69,1.66,1.66,0,0,1-.29.58c-.12.16-.21.2-.27.11a5.9,5.9,0,0,0-1.69-1.52c-.83-.54-1.39-.77-1.67-.67a26.56,26.56,0,0,0-1.79-3.73A25,25,0,0,0,18.71,7a.17.17,0,0,1,0-.26A.28.28,0,0,1,19,6.66,2.61,2.61,0,0,1,20,7.18a3.56,3.56,0,0,0,.52.37,8,8,0,0,0-.18-2.12,27.34,27.34,0,0,0-.51-2.94A20.25,20.25,0,0,0,19.19.31c0-.1.09-.16.36-.19a.79.79,0,0,1,.61.15,14.27,14.27,0,0,1,2.76,4.57l.74,2a3.63,3.63,0,0,0,.34.85c.14.06.19-.38.14-1.34a6.83,6.83,0,0,1,0-1.45h.25A.31.31,0,0,1,24.6,5Z"/><path class="cls-2" d="M24.69,4.82a7.65,7.65,0,0,1,.8,2.35A23.89,23.89,0,0,1,26,10.52a18,18,0,0,1,0,3.22,3.17,3.17,0,0,1-.64,1.92c-.05,0-.08.05-.07,0a.34.34,0,0,0,0-.19A5.06,5.06,0,0,0,23.55,14,2.54,2.54,0,0,0,22,13.4s-.14-.22-.31-.66l-.49-1.23a31.38,31.38,0,0,0-1.59-2.93c-.46-.78-.78-1.3-1-1.57-.07-.1,0-.22.12-.34a.49.49,0,0,1,.56,0l.65.35.61.39a.32.32,0,0,1,.09.3c0,.12-.08.14-.16.06a4.35,4.35,0,0,0-.74-.59A2.93,2.93,0,0,0,19,6.77s-.08,0-.13.05a.1.1,0,0,0,0,.12l.93,1.48a26.3,26.3,0,0,1,1.54,2.72l.28.64c.14.33.33.74.59,1.24a5.18,5.18,0,0,1,2.27,1.23,8.34,8.34,0,0,1,1,1A15.84,15.84,0,0,0,25.57,10a14.68,14.68,0,0,0-1-5,.28.28,0,0,0-.24-.16c-.11,0-.16,0-.16.09l.07,1.69a11.13,11.13,0,0,1,0,1.46c0,.26-.13.41-.25.45s-.17,0-.22-.18-.06-.23,0-.16.1.06.13,0A.67.67,0,0,0,24,8a12.52,12.52,0,0,0,0-1.81L23.93,4.9c0-.14.1-.21.32-.23a.43.43,0,0,1,.44.15Z"/><path class="cls-2" d="M20.11.37A.84.84,0,0,0,19.7.29c-.24,0-.36,0-.38,0a.33.33,0,0,0,0,.19l.13.27a19.93,19.93,0,0,1,1,3.86A10.06,10.06,0,0,1,20.76,8a.22.22,0,0,1-.16.15h-.26l-.13,0c-.06,0-.08-.07-.07-.11s.06-.05.17-.09a.2.2,0,0,0,.15-.22A29.72,29.72,0,0,0,20,3.72a15.31,15.31,0,0,0-.74-3L19.08.34a.23.23,0,0,1,0-.23A.77.77,0,0,1,19.66,0a1.09,1.09,0,0,1,.56.14,12.35,12.35,0,0,1,2.54,4.1,24.42,24.42,0,0,1,1.37,3.4.84.84,0,0,1,0,.5c-.07.16-.12.18-.15.09a37.26,37.26,0,0,0-1.39-3.78A13.43,13.43,0,0,0,20.11.37Z"/><path class="cls-5" d="M49.91,10.21a25.67,25.67,0,0,0-6.45,4.68c-1.11,1-2.08,2-2.91,2.92A10.84,10.84,0,0,0,38.93,20a.52.52,0,0,1-.46.3,1.05,1.05,0,0,1-.63-.15,1,1,0,0,1-.47-.46.68.68,0,0,1,0-.65q1.14-2.11,6.14-6,1.89-1.45,3.65-2.63a13.3,13.3,0,0,1,2.17-1.27.82.82,0,0,1,.58-.05.33.33,0,0,1,.2.25,1.61,1.61,0,0,1,.07.46.46.46,0,0,1-.28.42Z"/><path class="cls-1" d="M38.64,20.23q1-2,5.53-5.89,1.71-1.48,3.21-2.61A7.36,7.36,0,0,1,49.1,10.6,4.13,4.13,0,0,0,48.59,12a10,10,0,0,0-.16,1.57,5.59,5.59,0,0,0,.25,1.77,4.45,4.45,0,0,0,.64,1.41,1,1,0,0,1,.21.7.85.85,0,0,1-.43.64,6.83,6.83,0,0,1-.83.37c-.46.18-.78.31-1,.41a2.75,2.75,0,0,0-1.53,1.49,4.64,4.64,0,0,0-.3,1.3,1.06,1.06,0,0,0,.49,1,1.38,1.38,0,0,1,.54.61,1,1,0,0,1,.06.68.76.76,0,0,1-.35.51,1,1,0,0,1-.74.11,11.26,11.26,0,0,0-3.07-.05c-1.7.17-2.81.61-3.3,1.32s-.91.72-1.19,0a4.46,4.46,0,0,1-.25-2A11.33,11.33,0,0,1,38,22a8.32,8.32,0,0,1,.62-1.73Z"/><path class="cls-6" d="M43.64,14.85Q45.44,13.23,47,12a10.36,10.36,0,0,1,2.19-1.45,4.74,4.74,0,0,0-.62,1.79A9.22,9.22,0,0,0,48.39,14q-1.77,0-5.72,3.23a33.36,33.36,0,0,0-2.84,2.55,8.22,8.22,0,0,0-1.53,1.89c-.06.15,0,0,.16-.5l.37-1c.3-.87,1.91-2.61,4.81-5.23Z"/><path class="cls-6" d="M45.41,21.51a7.71,7.71,0,0,0-3.89,1.43A10.18,10.18,0,0,0,40,24.07a2.94,2.94,0,0,0-.75.88q0,.12-.12.09s-.08-.07-.11-.17a1,1,0,0,1,.05-.75,7.7,7.7,0,0,1,3.2-3.35,16.18,16.18,0,0,1,4.61-1.92c.18-.05.25,0,.22,0L47,19a4.21,4.21,0,0,0-1.22,1.25,1.6,1.6,0,0,0-.26.9v.24c0,.06,0,.09-.1.1Z"/><path class="cls-2" d="M50,10.29c-1.15.35-3.14,1.82-6,4.4q-1.8,1.65-3.2,3.15a14.24,14.24,0,0,0-1.92,2.41c-.06.12-.12.14-.19.07s0-.19.05-.38c.62-1.23,2.34-3.09,5.16-5.56,1.21-1.07,2.35-2,3.43-2.78A12.38,12.38,0,0,1,49.94,10c.07,0,.11-.11.12-.23a.62.62,0,0,0,0-.35.39.39,0,0,0-.61-.25A24.6,24.6,0,0,0,47,10.76c-1.21.84-2.43,1.75-3.67,2.71Q38.5,17.24,38,18.53c-.07.17-.18.23-.33.17s-.19-.16-.11-.3q.74-1.27,4.87-4.6a48.38,48.38,0,0,1,6.72-4.73A.89.89,0,0,1,49.87,9a.6.6,0,0,1,.39.34,1,1,0,0,1,.08.59.43.43,0,0,1-.32.4Z"/><path class="cls-2" d="M49.5,10.47a4.63,4.63,0,0,0-1,3.19,4.42,4.42,0,0,0,.84,2.77,1.3,1.3,0,0,1,.27.5,1.47,1.47,0,0,1,0,.53,1,1,0,0,1-.16.42l-.32.32a8.73,8.73,0,0,1-1.34.62,4.4,4.4,0,0,0-1.49.85,2.56,2.56,0,0,0-.73,1.87,1.25,1.25,0,0,0,.5,1.08,1.33,1.33,0,0,1,.6.67,1.08,1.08,0,0,1,0,.75,1,1,0,0,1-.47.56,1.22,1.22,0,0,1-.83.13,9.87,9.87,0,0,0-3.83,0,3.65,3.65,0,0,0-2.16,1,.82.82,0,0,1-.54.36c-.18,0-.09-.19.28-.6.52-.58,1.6-.94,3.25-1.09a11.68,11.68,0,0,1,3.14.05.66.66,0,0,0,.83-.53.82.82,0,0,0-.38-1,1.59,1.59,0,0,1-.73-1.53A2.71,2.71,0,0,1,46,19.67a4.43,4.43,0,0,1,1.68-1.1A5.06,5.06,0,0,0,49,17.92a1,1,0,0,0,.29-.58.73.73,0,0,0-.13-.61,5.12,5.12,0,0,1-.92-3.42,6,6,0,0,1,.29-1.73,2.17,2.17,0,0,1,.73-1.1,1.32,1.32,0,0,1,.27-.15c.07,0,.06,0,0,.14Z"/><path class="cls-5" d="M9.61,31.39a14.35,14.35,0,0,1,2-1c1.47-.65,3-1.27,4.52-1.87q6.74-2.58,8.7-2.18c1.36.27,1.92.7,1.68,1.27a1.13,1.13,0,0,1-.58.56,1.53,1.53,0,0,1-.83.19,21.34,21.34,0,0,0-8.75,1.38,35.21,35.21,0,0,0-5.8,2.71c-.22.12-.49.05-.8-.22s-.38-.56-.18-.83Z"/><path class="cls-1" d="M12.08,32.12a1.14,1.14,0,0,1-.69-.09c-.08-.07,0-.17.14-.28a18.13,18.13,0,0,1,2.73-1.28c1.23-.48,2.53-.92,3.89-1.32q5-1.44,7-.94a29,29,0,0,1,3.47,1.22c1.69.7,2.19,1.06,1.5,1.1s-1.66.73-2.77,2.06a8.2,8.2,0,0,0-1.86,3.15.55.55,0,0,1-.4.36,1.5,1.5,0,0,1-.67.09.87.87,0,0,1-.67-.43,3.58,3.58,0,0,1-.37-.78,1.32,1.32,0,0,0-.64-.65,4,4,0,0,0-1.28-.42,2.57,2.57,0,0,0-1.68.43,4,4,0,0,0-1.32,1.14.91.91,0,0,1-.84.38,1.26,1.26,0,0,1-1-.74,6.75,6.75,0,0,0-1.66-1.92,4.18,4.18,0,0,0-2.81-1.08Z"/><path class="cls-6" d="M14.13,32.81l-.32-.19a3.2,3.2,0,0,0-1.07-.47,3.61,3.61,0,0,0-.9-.13c-.18,0-.27-.06-.27-.17a.36.36,0,0,1,.24-.28,45.57,45.57,0,0,1,6.71-2.51c3-.86,5-1.15,6.17-.85.53.13,1,.28,1.58.45.77.24,1,.36.68.35a23,23,0,0,0-7.09,1.34q-4.1,1.32-5.3,2.53c-.07.07-.21,0-.43-.07Z"/><path class="cls-2" d="M43,20.55a9.66,9.66,0,0,0-3.28,2.61c-.13.17-.23.25-.3.25s-.06-.11.07-.34A8,8,0,0,1,43,20.21a17,17,0,0,1,4.76-1.61c.3-.06.36,0,.15.07a2.41,2.41,0,0,1-.56.22A20.31,20.31,0,0,0,43,20.55Z"/><path class="cls-6" d="M17.12,35.66a4.56,4.56,0,0,1,1.78-2.72,12.9,12.9,0,0,1,3.46-2,21.1,21.1,0,0,1,3.83-1.14,10.33,10.33,0,0,1,2.9-.27,17.69,17.69,0,0,0-5.23,2c-2.1,1.1-3.36,2-3.8,2.66a1.55,1.55,0,0,0-.63.28l-.44.35-.91.82c-.43.32-.75.31-1,0Z"/><path class="cls-2" d="M10.2,32.29c.13.05.21.05.27,0a12,12,0,0,1,2.63-1.47,38.06,38.06,0,0,1,4.08-1.53c3.56-1.15,6-1.55,7.42-1.23a2.37,2.37,0,0,1,.92.34c.12.13,0,.13-.3,0q-2.22-.8-8.1,1.2a41.55,41.55,0,0,0-4.19,1.67,8.94,8.94,0,0,0-2.31,1.35q-.16.16-.54,0a1.18,1.18,0,0,1-.6-.5.69.69,0,0,1-.07-.62A1.33,1.33,0,0,1,9.89,31a15.71,15.71,0,0,1,2-.95c1.3-.56,2.66-1.09,4.08-1.61,4-1.44,6.8-2.14,8.41-2.08.27,0,.41.08.4.21s-.14.18-.39.13q-1.73-.35-7.58,1.74c-1.51.54-2.94,1.1-4.3,1.69a19,19,0,0,0-2.6,1.27c-.27.18-.29.41,0,.69a.87.87,0,0,0,.31.24Z"/><path class="cls-2" d="M14.05,32.83a4.77,4.77,0,0,0-3.34-.51c-.08,0-.06,0,.06-.14L11,32a2.41,2.41,0,0,1,1.34-.06,6.17,6.17,0,0,1,1.69.58,5.32,5.32,0,0,1,2.69,2.57.78.78,0,0,0,.57.47l.54,0a1.74,1.74,0,0,0,.59-.34l.59-.5a3.57,3.57,0,0,1,1.78-.82,3,3,0,0,1,1.82.3,1.76,1.76,0,0,1,1,1.1,1.06,1.06,0,0,0,.74.66c.41.15.68.1.81-.14A21,21,0,0,1,26.89,33c1-1.43,1.95-2.22,2.78-2.36.37-.07.57,0,.58.08a.17.17,0,0,1-.08.12l-.21,0c-.66-.1-1.52.57-2.58,2a22.58,22.58,0,0,0-1.82,2.9,1,1,0,0,1-1.31.5,1.48,1.48,0,0,1-.61-.37.81.81,0,0,1-.3-.47,1.32,1.32,0,0,0-.7-.94,3,3,0,0,0-2-.29,2.23,2.23,0,0,0-1.28.61,10.94,10.94,0,0,1-1.22,1.08,1,1,0,0,1-.87.07,1.48,1.48,0,0,1-.86-.76,5.55,5.55,0,0,0-2.35-2.35Z"/><path class="cls-2" d="M17.89,34.22c-.18.24-.29.34-.36.27s0-.19.1-.38a10,10,0,0,1,5-3.49,17.12,17.12,0,0,1,5.56-1.11c.71,0,.95,0,.74.12a2,2,0,0,1-.85.13,8.35,8.35,0,0,0-1.68.18,20.21,20.21,0,0,0-2.88.72Q19.47,32,17.89,34.22Z"/><path class="cls-2" d="M30.53,31.19a.78.78,0,0,1,.77.4c.19.3.15.49-.13.55a1.35,1.35,0,0,0-.78.63A2.68,2.68,0,0,0,30,34a3.2,3.2,0,0,0,1.54,3,12.68,12.68,0,0,1,3.6,3.76,9.23,9.23,0,0,1,1.35,3.94A7.18,7.18,0,0,1,36,48.16a4.91,4.91,0,0,1-2,2.34,3.54,3.54,0,0,1-3.35.59,2.47,2.47,0,0,1-1.38-1.75c-.12-.5-.1-.78.07-.86s.31.07.44.44A1.94,1.94,0,0,0,31,50.24a2.47,2.47,0,0,0,2.21-.47,4.28,4.28,0,0,0,1.62-2.14,6.39,6.39,0,0,0,.31-3.1,8.36,8.36,0,0,0-1.31-3.43A10.84,10.84,0,0,0,30.6,38,4.28,4.28,0,0,1,29,36.1a4.53,4.53,0,0,1-.36-2.19,3.67,3.67,0,0,1,.6-1.86,1.79,1.79,0,0,1,1.31-.86Z"/><path class="cls-5" d="M30.68,31.25a.41.41,0,0,1,.53.17q.16.28-.15.39a2,2,0,0,0-1,.89,2.92,2.92,0,0,0-.38,1.42A3.54,3.54,0,0,0,30,35.67a2.89,2.89,0,0,0,1,1.24q4.46,3,5.11,7.21a7.26,7.26,0,0,1-.19,3.19,5.08,5.08,0,0,1-1.24,2.23A3.92,3.92,0,0,1,31.31,51a2.08,2.08,0,0,1-1.21-.62,2.42,2.42,0,0,1-.63-1.3c0-.2,0-.29,0-.28s.12.16.2.46a1.74,1.74,0,0,0,2,1.35,3.71,3.71,0,0,0,2.64-1.53,5.25,5.25,0,0,0,.93-1.88,6.91,6.91,0,0,0,.19-2.83c-.35-2.59-2-4.88-4.94-6.89a3.5,3.5,0,0,1-1.25-1.57A4.34,4.34,0,0,1,28.94,34a3.74,3.74,0,0,1,.51-1.75,2,2,0,0,1,1.23-1Z"/><path class="cls-2" d="M51.35,28.09a6.2,6.2,0,0,1,2.54,1.71,3.8,3.8,0,0,1,1,3.75,3.63,3.63,0,0,1-.81,1.37,3.55,3.55,0,0,1-1.15.84,5.36,5.36,0,0,1-2,.4,6.38,6.38,0,0,1-2.65-.54Q45,34.14,43.52,29.25a3.22,3.22,0,0,0-1.78-2.33,2.33,2.33,0,0,0-2.47.65c-.21.18-.44.12-.69-.2s-.27-.59,0-.83a3.61,3.61,0,0,1,1.58-1,3.46,3.46,0,0,1,3.61,1,5.07,5.07,0,0,1,1.18,2.27q1.16,4.52,3.91,5.65a4.45,4.45,0,0,0,3.09.15,2.72,2.72,0,0,0,1.83-1.51,2.93,2.93,0,0,0-.82-2.94,5,5,0,0,0-2.31-1.53,3.53,3.53,0,0,0-2.4-.11c-.4.15-.64.12-.7-.1s.1-.39.51-.52a5,5,0,0,1,3.34.17Z"/><path class="cls-5" d="M51.77,28.46a5.37,5.37,0,0,1,1.91,1.41,3.63,3.63,0,0,1,.91,3.72,3.42,3.42,0,0,1-1.74,1.87,4.56,4.56,0,0,1-2.07.43,5.78,5.78,0,0,1-2.56-.62q-3.13-1.56-4.4-6.25a3.22,3.22,0,0,0-2-2.38,2.44,2.44,0,0,0-2.63.51.28.28,0,0,1-.46-.07.35.35,0,0,1,.08-.54A3.37,3.37,0,0,1,42.21,26a3.61,3.61,0,0,1,1.47,1,4,4,0,0,1,.89,1.73q1.14,4.75,4,6a4.85,4.85,0,0,0,3.36.21,2.62,2.62,0,0,0,2.14-2.07,3.49,3.49,0,0,0-.9-2.79,5.12,5.12,0,0,0-2.11-1.47,4.43,4.43,0,0,0-2.68-.3l-.56,0q-.06-.09.45-.24a4.76,4.76,0,0,1,3.49.4Z"/><path class="cls-2" d="M41.28,14.79c-1,1.42-1.67,2.31-1.88,2.67-.61,1.05-.81,1.84-.58,2.37a6.61,6.61,0,0,0,.59,1.2.72.72,0,0,0,.51.1l.65,0c.15,0,.28.29.39.7a1.57,1.57,0,0,1,.11.69,13.08,13.08,0,0,1-.63,1.17A9.05,9.05,0,0,0,39.81,25a6.4,6.4,0,0,0,0,3.87l-7.3,4.73a5.7,5.7,0,0,0-1.27-1.65,6.73,6.73,0,0,0-2.83-1.55,3.74,3.74,0,0,0-1.84.05,6.85,6.85,0,0,1-1.33.31c-.16,0-.4-.17-.73-.53a2.88,2.88,0,0,1-.5-.67c0-.05.14-.2.49-.44s.52-.4.5-.48a2.8,2.8,0,0,0-.32-.73,2.18,2.18,0,0,0-1.49-1.1,10.6,10.6,0,0,0-3.12.36c-.09,0-.22,0-.41-.18a2.72,2.72,0,0,1-.52-.5c-.4-.52-.45-.88-.13-1.08a15.92,15.92,0,0,0,2.19-1.68,6,6,0,0,0,1.3-1.49,3.81,3.81,0,0,0,.22-1.53c0-.43,0-1,0-1.82a5.41,5.41,0,0,1,.74-3.28,7.9,7.9,0,0,1,2.48-2.23,6.7,6.7,0,0,1,3.51-1,5.88,5.88,0,0,1,3.89,1.22l1.17,1a2.4,2.4,0,0,0,1.09.55,6,6,0,0,0,2.55-.75c.64-.28,1.38-.64,2.24-1.05l.41,0a1.26,1.26,0,0,1,.54.68.9.9,0,0,1,0,.88Z"/><path class="cls-5" d="M41,14.5l-1.43,2.12a6.5,6.5,0,0,0-1.19,2.47,3.82,3.82,0,0,0,.19,1.15,4.35,4.35,0,0,0,.38,1,.59.59,0,0,0,.47.2,8.9,8.9,0,0,0,1,0c.07,0,.17.15.28.46s.14.51.07.6a8.56,8.56,0,0,0-1.54,3,9.14,9.14,0,0,0,0,3.64L32,32.66a8.71,8.71,0,0,0-1.3-1.39,8.82,8.82,0,0,0-1.4-.95,4.83,4.83,0,0,0-1.5-.47,4,4,0,0,0-1.53.24l-1,.33c-.09,0-.26-.14-.52-.43a2,2,0,0,1-.38-.51s.13-.15.42-.35.45-.36.45-.45a1.08,1.08,0,0,0-.08-.49,3.35,3.35,0,0,0-.32-.66,2.35,2.35,0,0,0-.44-.52,2.48,2.48,0,0,0-1.71-.58,19,19,0,0,0-2.62.38.38.38,0,0,1-.25-.09,1.68,1.68,0,0,1-.54-.63c-.15-.3-.15-.49,0-.57a8.1,8.1,0,0,0,1.92-1.44,20.08,20.08,0,0,0,1.45-1.51,1.23,1.23,0,0,0,.22-.63,3.48,3.48,0,0,0,0-.91q0-.36,0-1.71L23,18a4.24,4.24,0,0,1,1.13-2.75,9.86,9.86,0,0,1,2.41-1.84,6.3,6.3,0,0,1,3.1-.77,4.62,4.62,0,0,1,2.89.74c.38.28.89.71,1.54,1.29a2.8,2.8,0,0,0,1.63.68,7.63,7.63,0,0,0,2.67-.88l2.09-.94a.4.4,0,0,1,.33.17,1.1,1.1,0,0,1,.24.42.49.49,0,0,1,0,.34Z"/><path class="cls-7" d="M32,32.66a8.71,8.71,0,0,0-1.3-1.39,8.82,8.82,0,0,0-1.4-.95,4.83,4.83,0,0,0-1.5-.47,6.2,6.2,0,0,0-2.48.55,3.9,3.9,0,0,1,3.37-1,9.82,9.82,0,0,1,4.79,2.51L32,32.66Z"/><path class="cls-7" d="M39.2,25.59a9,9,0,0,0,.06,3.57l-1.44.7a10.7,10.7,0,0,1,.83-4.32,7.85,7.85,0,0,1,2-2.89,8,8,0,0,0-1.44,2.94Z"/><path class="cls-2" d="M32.72,17.65c.28-.51.51-.68.7-.51a3.1,3.1,0,0,1,1.06,2.23,2,2,0,0,1-.61,1.77,1.62,1.62,0,0,1-1.08.38,3.88,3.88,0,0,1-1.13-.23c-.22-.08-.26-.35-.11-.82l.62-1.56a12,12,0,0,1,.55-1.26Z"/><path class="cls-2" d="M24.34,21.92c0-.09.3-.09.93,0a8,8,0,0,1,1.29.29l1.18.42c.52.21.76.4.72.55A3.23,3.23,0,0,1,28,24.35c-.35.54-.75.74-1.2.61a3.32,3.32,0,0,1-1.7-1.43,4,4,0,0,1-.76-1.61Z"/><path class="cls-2" d="M43.49,34.6a1.73,1.73,0,0,1,0,1.13,2.63,2.63,0,0,1-.62,1.1A12.57,12.57,0,0,1,40,38.61,18.54,18.54,0,0,1,36.71,40a1.51,1.51,0,0,1-1.27-.19,2.75,2.75,0,0,1-.74-.88c-.11-.17-.55-1.08-1.35-2.72A36,36,0,0,0,31.69,33c-.69-1.08-1.28-2-1.78-2.62a14.11,14.11,0,0,0-2.07-2.31,1.89,1.89,0,0,1-.65-1.16A1.47,1.47,0,0,1,28,25.29,3.25,3.25,0,0,1,29.24,25a3.18,3.18,0,0,0,1.43-.42l1-.58c.41-.24.79-.47,1.15-.71a2.79,2.79,0,0,0,.85-.89,3.39,3.39,0,0,1,.53-.76,1.43,1.43,0,0,1,1.21-.39,1.39,1.39,0,0,1,1,.77c1.17,2.06,2.14,3.87,2.9,5.41.27.56,1,1.75,2.11,3.57a26.89,26.89,0,0,1,2,3.56Z"/><path class="cls-3" d="M43.09,34.45a1.73,1.73,0,0,1,.1,1.11,2,2,0,0,1-.67,1.13,15.74,15.74,0,0,1-2.74,1.61,16,16,0,0,1-3,1.29,1.82,1.82,0,0,1-1.15,0,1.74,1.74,0,0,1-.67-.68c-.09-.15-.57-1.11-1.42-2.86s-1.4-2.82-1.7-3.28C31.38,31.93,30.74,31,30,30a13.33,13.33,0,0,0-1.68-2,2,2,0,0,1-.75-1.12,1.17,1.17,0,0,1,.1-.94,1.28,1.28,0,0,1,.75-.51,3.25,3.25,0,0,1,1-.1,2.36,2.36,0,0,0,1-.28l1-.52c.34-.18.65-.36.92-.53a10.57,10.57,0,0,0,.93-.68,3.1,3.1,0,0,0,.71-.8,3.34,3.34,0,0,1,.5-.67,1,1,0,0,1,1.08-.19,2,2,0,0,1,1,1L37.81,25c.64,1.16,1.11,2,1.4,2.65s.94,1.71,2,3.44,1.64,2.77,1.9,3.33Z"/><path class="cls-2" d="M40.93,31.66a24.22,24.22,0,0,1,1.6,3.43,1,1,0,0,1,0,.45,1.24,1.24,0,0,1-.14.37,11,11,0,0,1-2.79,1.82,14.58,14.58,0,0,1-3.21,1.47L36,39.15a.77.77,0,0,1-.35-.27A20.76,20.76,0,0,1,34,35.94c-.69-1.52-1.13-2.45-1.32-2.8a33.79,33.79,0,0,0-2.23-3.05,32.41,32.41,0,0,1-2-2.73.73.73,0,0,1,.15-.83,1,1,0,0,1,.83-.38,3.63,3.63,0,0,0,1.17-.22,5.64,5.64,0,0,0,.94-.4,12,12,0,0,0,1.27-.79,4.54,4.54,0,0,0,.83-.68c.35-.39.58-.63.68-.72a1.32,1.32,0,0,1,.84-.38,1,1,0,0,1,.75.4,3.71,3.71,0,0,1,.4.59c.46.7,1.08,1.69,1.87,3l1.24,2c.31.48.81,1.38,1.52,2.71Z"/><path class="cls-8" d="M24.83,22.23c0-.07.22-.07.72,0a6.31,6.31,0,0,1,1,.23c.49.16.8.28.94.34.41.17.61.32.58.44a3,3,0,0,1-.32.94c-.25.46-.55.63-.91.53a2.78,2.78,0,0,1-1.36-1.17,3.23,3.23,0,0,1-.65-1.33Z"/><path class="cls-2" d="M27.42,22.83a3.14,3.14,0,0,1,.76.35,1.67,1.67,0,0,1-.11.69c-.11.4-.2.59-.28.55a2.26,2.26,0,0,1-.82-.77,1.7,1.7,0,0,1-.28-1s.25,0,.73.23Z"/><path class="cls-8" d="M32.79,18.05c.23-.43.42-.58.56-.44a2.56,2.56,0,0,1,.86,1.86,1.67,1.67,0,0,1-.46,1.5,1.26,1.26,0,0,1-.89.26,4.68,4.68,0,0,1-.93-.24c-.18-.06-.21-.28-.09-.65l.5-1.25a10.35,10.35,0,0,1,.45-1Z"/><path class="cls-2" d="M31.79,21c-.1,0-.1-.22,0-.56a3.28,3.28,0,0,1,.31-.68q.3-.54.39-.45a4.49,4.49,0,0,1,.65.94,2.24,2.24,0,0,1,.3,1q0,.27-1.65-.21Z"/><path class="cls-9" d="M27.64,22.89a3.22,3.22,0,0,1,.68.32s0,.22-.19.54-.26.46-.33.43a1.92,1.92,0,0,1-.61-.54,1.61,1.61,0,0,1-.21-.95s.22,0,.66.2Z"/><path class="cls-9" d="M32.69,21.32a1.33,1.33,0,0,1-.87-.24c-.07,0-.07-.2,0-.43A3.25,3.25,0,0,1,32.1,20c.18-.32.29-.45.34-.4a3.79,3.79,0,0,1,.56.78,1.72,1.72,0,0,1,.24.79c0,.08-.19.12-.55.12Z"/><path class="cls-2" d="M27.69,23a.86.86,0,0,1,.15.2l.09.23c0,.06,0,.11,0,.12s-.07,0-.12,0a1,1,0,0,1-.15-.19l-.09-.23c0-.07,0-.11,0-.13s.07,0,.12.05Z"/><path class="cls-2" d="M32.46,20.57l.1.27c0,.08,0,.14,0,.16s-.09,0-.16-.05a.88.88,0,0,1-.18-.23.9.9,0,0,1-.11-.28q0-.12,0-.15s.09,0,.16.05a.92.92,0,0,1,.18.23Z"/><path class="cls-10" d="M37,25.89c.58,1.05,1,1.82,1.31,2.3a2.44,2.44,0,0,0-2-.07A2.68,2.68,0,0,0,35,29.26a3.49,3.49,0,0,0-1.81.68,1.88,1.88,0,0,0-.74,2C31.16,30.22,30,28.76,29,27.51c-.31-.38-.34-.66-.07-.84a2.14,2.14,0,0,1,1-.22,5.35,5.35,0,0,0,2.22-.83A4.83,4.83,0,0,0,34,24.1a1.46,1.46,0,0,1,1-.78.76.76,0,0,1,.9.38L37,25.89Z"/><path class="cls-11" d="M40.5,31.83A11,11,0,0,1,42,35.22c0,.24-.18.53-.59.86a12.57,12.57,0,0,1-2.1,1.31c-.81.46-1.38.77-1.72.93a1.87,1.87,0,0,1-1.23.28c-.58-.16-1.31-1.2-2.2-3.11-.33-.73-.62-1.41-.87-2.06a8.11,8.11,0,0,1-.43-1.38,1.93,1.93,0,0,1,.28-1.45,2.3,2.3,0,0,1,.89-.68,2.35,2.35,0,0,1,1.17-.29,2.33,2.33,0,0,1,.9-.92,3.77,3.77,0,0,1,1.14-.41,1.44,1.44,0,0,1,1,.24,2.12,2.12,0,0,1,.66.64l1.58,2.65Z"/><path class="cls-2" d="M37.17,38.07a.69.69,0,0,1-.46.84.9.9,0,0,1-1-.24,3.19,3.19,0,0,1-.65-1.1c-.2-.54-.21-.87,0-1s.63,0,1.21.43.88.77.93,1.07Z"/><path class="cls-2" d="M40.69,33.62c.2-.09.51,0,.92.39a2.19,2.19,0,0,1,.8,1.28c.08.4-.13.73-.6,1a1.6,1.6,0,0,1-.57.19.48.48,0,0,1-.4-.08A2.66,2.66,0,0,1,40.51,35c-.06-.8,0-1.25.18-1.33Z"/><path class="cls-8" d="M36.78,38.05a.59.59,0,0,1-.39.6.62.62,0,0,1-.69-.18,2.07,2.07,0,0,1-.45-.86c-.13-.43-.12-.68,0-.76s.41.08.85.43.65.61.65.77Z"/><path class="cls-8" d="M40.89,33.92c.13,0,.35.14.65.45a1.19,1.19,0,0,1,.46.85.74.74,0,0,1-.44.65c-.26.13-.45.13-.58,0s-.19-.46-.21-1,0-.89.12-.9Z"/><path class="cls-2" d="M1.79,32.46l0-.21a.09.09,0,0,1,.06.07l0,.17a6.12,6.12,0,0,1,.18,1.82,3.38,3.38,0,0,1-.17,1.37H1.78a6.33,6.33,0,0,0,.11-1.34,6,6,0,0,0-.1-1.78l-.06-.13.06,0Z"/><path class="cls-1" d="M5.68,32.88a5.18,5.18,0,0,1-.46,1.52l.14-.08h.25c.06,0,.09.16.07.36a3.37,3.37,0,0,1-.13.63,9.84,9.84,0,0,1-.84,1.59l.17,0a.6.6,0,0,1,.27,0c.07,0,.08.18,0,.42a3.43,3.43,0,0,1-.35.77c-.41.71-.77,1-1.1.92s-.38-.46-.41-1.17a7.52,7.52,0,0,1,.2-2A6.07,6.07,0,0,1,4.28,34a5.11,5.11,0,0,1,1-1.3s.13,0,.24,0,.16.12.15.18Z"/><path class="cls-2" d="M5.33,34.22c.11-.08.23,0,.35.11a.61.61,0,0,1,.06.59c-.14.39-.4,1-.78,1.78-.1.22-.19.31-.25.28H4.64s0,0,0,0a.22.22,0,0,1,0-.09,15.74,15.74,0,0,0,1-2.05.34.34,0,0,0,0-.3c0-.12-.11-.15-.16-.11a5.37,5.37,0,0,0-.73.84c-.26.38-.43.54-.49.5s0-.25.31-.62a4.69,4.69,0,0,1,.82-.92Z"/><path class="cls-2" d="M4.24,33.87l.34-.54a4,4,0,0,1,.71-.83c.09-.07.2,0,.33.07a.41.41,0,0,1,.16.4,7.61,7.61,0,0,1-.41,1.38l-.14.22c-.07.1-.13.14-.17.13s0-.05,0-.12l.06-.15c.21-.65.36-1.14.43-1.48,0,0,0-.09-.08-.15s-.1-.07-.12,0a3.22,3.22,0,0,0-.45.52,6.87,6.87,0,0,0-.44.66,12.28,12.28,0,0,0-.66,1.27,4.35,4.35,0,0,0-.38,1.25,5.33,5.33,0,0,0,0,1.55c.08.44.18.69.3.77s.45-.06.73-.36a2.57,2.57,0,0,0,.58-.9.76.76,0,0,0,.06-.36.44.44,0,0,0-.06-.25s-.09,0-.19,0l-.23.12c-.37.23-.59.32-.64.27s.11-.2.5-.44.61-.3.75-.21a.51.51,0,0,1,.08.3,1.19,1.19,0,0,1-.07.56,3.07,3.07,0,0,1-.62,1.07,1.21,1.21,0,0,1-.91.5c-.05,0-.11,0-.19-.15a2,2,0,0,1-.31-1,6.21,6.21,0,0,1,0-1.55,7.05,7.05,0,0,1,1-2.55Z"/><path class="cls-1" d="M9.06,35.84c.15.09.23.15.24.2a16.22,16.22,0,0,1-.43,3l-.44,2,.27-.52c.2-.35.33-.52.39-.53s.13.05.21.14a.45.45,0,0,1,.12.27,7.13,7.13,0,0,1-.52,2.19A6,6,0,0,1,7.54,45s-.14-.12-.32-.44c-.27-.48-.49-.84-.65-1.07a6.22,6.22,0,0,0-.79-.93c-.24-.25-.35-.38-.33-.4a6.57,6.57,0,0,0,.48-1.46,14.24,14.24,0,0,0,.35-2.09.2.2,0,0,1,.14-.17q.13-.07.21.15a4.65,4.65,0,0,1,.23,1A8.15,8.15,0,0,0,7,38.38c0-.78.07-1.49.06-2.14,0-.09.06-.16.19-.22s.19-.05.21,0a8.15,8.15,0,0,0,.32,1c.15.42.23.62.25.59l.78-1.81c0-.07.12-.06.29,0Z"/><path class="cls-2" d="M7.15,35.92c.16-.11.27-.1.31,0l.29.73.34.62q.06.09-.06.21c-.07.08-.12.1-.14.06-.23-.56-.43-1.05-.58-1.46H7.19a.19.19,0,0,0-.09.16,16.77,16.77,0,0,1,0,2,5.07,5.07,0,0,1-.25,1.52c0,.09-.1.14-.16.15s-.06-.06,0-.22a8.94,8.94,0,0,0,.19-1.4,18.07,18.07,0,0,0,0-2.05c0-.12.07-.23.25-.34Z"/><path class="cls-2" d="M9.17,36.14A.25.25,0,0,0,9,35.91c-.1,0-.15-.06-.17,0L8.34,37a5.76,5.76,0,0,1-.43.85c-.1.14-.16.16-.17.09a.44.44,0,0,1,.08-.27l.42-.88.42-1c.05-.14.19-.16.42-.08s.33.21.32.37c0,.75-.12,1.48-.23,2.2l-.4,2.18-.26.49-.22.33c.24-1,.43-1.78.56-2.46a19.47,19.47,0,0,0,.32-2.64Z"/><path class="cls-2" d="M6.56,38.59s0-.05-.09,0-.08,0-.09.11l-.17,1.55a9.3,9.3,0,0,1-.51,2,5.27,5.27,0,0,1,1.08,1.22,5.91,5.91,0,0,1,.73,1.33,4.88,4.88,0,0,0,1.26-2.29,10.69,10.69,0,0,0,.47-2,.22.22,0,0,0-.06-.18c0-.07-.09-.07-.12,0a11.24,11.24,0,0,0-.65,1.11c-.09.18-.16.25-.2.2s0-.15.08-.34l.48-.88c.12-.22.2-.35.25-.37s.15,0,.26.1a.56.56,0,0,1,.19.34A6.61,6.61,0,0,1,9,42.7,5.84,5.84,0,0,1,7.7,45.08a.26.26,0,0,1-.2.07A.18.18,0,0,1,7.38,45L7,44.33a7.56,7.56,0,0,0-.55-.85l-.6-.67-.44-.47a.32.32,0,0,1,0-.3,11.87,11.87,0,0,0,.56-2c.09-.44.17-1,.25-1.62,0-.09.08-.15.2-.19s.19,0,.2,0l.28,1a.57.57,0,0,1,0,.29c0,.09-.06.1-.07,0-.08-.39-.17-.73-.26-1Z"/><path class="cls-2" d="M33.66,27a1.14,1.14,0,0,0,.34-.4,1.71,1.71,0,0,1,1.09-.81,1.5,1.5,0,0,1,1.22.15,2.33,2.33,0,0,1,.78.88A3.14,3.14,0,0,1,37.47,28a2.59,2.59,0,0,0-1.47.34,2.69,2.69,0,0,0-1,1,3.8,3.8,0,0,0-1.36.39,2.35,2.35,0,0,0-1.07,1,3.46,3.46,0,0,1-.7-.85,3,3,0,0,1-.41-1.08,1.27,1.27,0,0,1,.48-1.23,2,2,0,0,1,1.15-.42,1.1,1.1,0,0,0,.58-.16Z"/><path class="cls-12" d="M36.23,26.22a2.19,2.19,0,0,1,.68.73,2.92,2.92,0,0,1,.36,1A2.75,2.75,0,0,0,35,29.26a3.63,3.63,0,0,0-1.25.34,2.41,2.41,0,0,0-1.06.88,3.24,3.24,0,0,1-.57-.74,2.68,2.68,0,0,1-.31-.9,1.13,1.13,0,0,1,.44-1.12,1.71,1.71,0,0,1,1-.38.92.92,0,0,0,.84-.51,1.49,1.49,0,0,1,1-.74,1.38,1.38,0,0,1,1.12.13Z"/><path class="cls-2" d="M28.66,27.31a.74.74,0,0,1,.46-.88,1,1,0,0,1,.94-.11c.28.13.54.54.76,1.22s.27,1.06.13,1.2c-.27.29-.7.23-1.29-.2a2.3,2.3,0,0,1-1-1.23Z"/><path class="cls-8" d="M28.88,27.21a.52.52,0,0,1,.32-.61.72.72,0,0,1,.7-.08c.15.07.35.4.61,1s.34,1,.25,1.07-.55.08-1.06-.35a2.43,2.43,0,0,1-.82-1Z"/><path class="cls-2" d="M34.05,23.89c0-.35.29-.6.74-.74s.71-.1.89.08a2.45,2.45,0,0,1,.5,1.51c.07.75,0,1.17-.33,1.28s-.57-.14-1.07-.67a1.93,1.93,0,0,1-.73-1.46Z"/><path class="cls-8" d="M34.3,24a.65.65,0,0,1,.58-.62.78.78,0,0,1,.74.18A2.19,2.19,0,0,1,36,24.68c.06.63,0,1-.2,1.06s-.42-.18-.85-.69-.63-.89-.6-1.1Z"/><path class="cls-5" d="M20.71,22.16a21,21,0,0,0,2-2,5.07,5.07,0,0,1-.23,2,5.33,5.33,0,0,1-1,1.2,16.22,16.22,0,0,1-1.69,1.42l-.41-.44a4.05,4.05,0,0,1-.34-.47.6.6,0,0,1-.1-.21c0-.08.08-.17.23-.27a14.28,14.28,0,0,0,1.53-1.27Z"/><path class="cls-5" d="M39,12.62c.1,0,.24.36.39,1.06-.89.44-1.57.75-2,.94a4.53,4.53,0,0,1-1.84.44,1.57,1.57,0,0,1-.68-.26,7.19,7.19,0,0,1-.74-.55c.45-.11,1.4-.42,2.85-.94s2-.7,2.06-.69Z"/><path class="cls-2" d="M22.77,20.05a1.52,1.52,0,0,1,.06.36,15.22,15.22,0,0,1-2.22,2.1L19.09,23.7c0,.06.08.2.31.45a2.46,2.46,0,0,0,.7.55s0,.06,0,.12l-.1.09a2.59,2.59,0,0,1-.74-.58c-.26-.27-.4-.48-.4-.63a14.35,14.35,0,0,1,1.6-1.42,14.79,14.79,0,0,0,2.34-2.23Z"/><path class="cls-2" d="M39.13,12.44c.12,0,.2.13.26.34a6.87,6.87,0,0,1,.13,1s0,.07-.13.15-.14.1-.14.07l-.15-.9c0-.22-.08-.34-.13-.35-.53.22-1.14.46-1.83.71a23.08,23.08,0,0,1-3.22,1l-.05-.12c0-.09,0-.13,0-.14a21.28,21.28,0,0,0,3.22-1,18.88,18.88,0,0,1,2-.72Z"/><path class="cls-13" d="M36.52,8.83a.49.49,0,0,1,.75,0,.77.77,0,0,1,.17.9c-.1.27-.47,1-1.12,2.17-.87,1.54-1.53,2.75-2,3.62q-2.76,5.07-2.74,6.16a4.35,4.35,0,0,1-.93,1.78,1,1,0,0,1-.86.13c-1.85-.5-3.72-1-5.6-1.42l-4.49-1A10.82,10.82,0,0,1,17,20.46a.77.77,0,0,1-.27-.62c0-.3.11-.43.34-.41l4.31-.19a23.06,23.06,0,0,0,4.88-.6.2.2,0,0,0,.11-.26l-.14-.56q0-.3-2.42-5.32L21.4,7.35c0-.13.06-.28.31-.43s.43-.18.52-.06l3.34,4.31c2,2.58,3.23,4.06,3.64,4.46l.58.59a1,1,0,0,0,.44.28.52.52,0,0,0,.44-.14,2.8,2.8,0,0,0,.47-.49l2.65-3.53c1.64-2.17,2.54-3.34,2.73-3.51Z"/><path class="cls-14" d="M37.33,10q-.73,1.58-3.09,5.89C32.77,18.58,32,20,32,20l-.28,1.18A9.91,9.91,0,0,1,31.1,23a1.21,1.21,0,0,1-.84.65l-.74,0A63.87,63.87,0,0,0,23.26,22q-5.11-1.14-6-1.46a.79.79,0,0,1-.39-.31L16.79,20l5.28.91q5.16.91,5.45.91a8,8,0,0,1,1.21.39c.6.21,1,.25,1.2.11a1.77,1.77,0,0,0,.68-1.3l.08-.7a1.32,1.32,0,0,1,.11-.5q1.45-2.73,4-6.83A34,34,0,0,1,37.38,9.1c.06,0,.1.05.12.19a1.36,1.36,0,0,1-.17.71Z"/><path class="cls-14" d="M22.79,7.83a.18.18,0,0,1,.18,0s.08.07.11.16A40.78,40.78,0,0,0,26.23,12a40,40,0,0,0,4.05,4.52c.07.06.07.1,0,.13l-.38,0a1.48,1.48,0,0,1-1-.47q-.33-.39-3.2-4.3T22.79,7.83Z"/><path class="cls-2" d="M36,9.29a2.15,2.15,0,0,1,.59-.58.64.64,0,0,1,.64-.09.84.84,0,0,1,.43.58,1.15,1.15,0,0,1-.09.77L35,14.87,32.24,20c0,.07-.24.71-.61,1.94-.31,1-.61,1.63-.88,1.77a3.42,3.42,0,0,1-2.26-.2c-1.08-.38-1.68-.58-1.79-.6l-4.48-.95c-2.74-.59-4.33-.93-4.75-1a.88.88,0,0,1-.69-.47,1.29,1.29,0,0,1-.17-.78c0-.21.2-.35.54-.41a6.55,6.55,0,0,1,1.34,0A32.36,32.36,0,0,0,23.1,19c1.32-.15,2.43-.31,3.32-.49.08,0,.12,0,.11.15a.17.17,0,0,1-.15.19,26.48,26.48,0,0,1-3.54.5l-4.44.15h-1q-.42,0-.45.24a.65.65,0,0,0,.11.46,1.37,1.37,0,0,0,.78.41c.49.13,1.72.4,3.72.81,2.21.46,4,.84,5.31,1.16.38.1,1.05.3,2,.61a2.62,2.62,0,0,0,1.68.1c.3-.15.57-.66.8-1.52.32-1.15.52-1.8.58-1.94q1.05-2.12,3.19-6.07l2.19-4a.68.68,0,0,0,0-.46.55.55,0,0,0-.27-.42c-.13-.06-.28,0-.46.12a2.61,2.61,0,0,0-.51.56l-1.62,2.25Q32.94,14,31.69,15.53a4.2,4.2,0,0,1-1.1,1,1,1,0,0,1-1.18,0,.58.58,0,0,1-.17-.25q-.06-.17.12,0c.37.27.82.18,1.37-.28a9,9,0,0,0,.89-1L36,9.29Z"/><path class="cls-2" d="M22.12,7c-.1-.12-.22-.12-.38,0s-.21.25-.16.35l2.54,5.22a41.54,41.54,0,0,1,2.51,5.78l.09,1.41a4.55,4.55,0,0,0,.2,1.05A4.07,4.07,0,0,0,28,21.92a8.74,8.74,0,0,0,1.21.86c.12.06.17.11.15.16s-.12.06-.28,0a4.89,4.89,0,0,1-1.23-.73,4.49,4.49,0,0,1-1.27-1.17,3.28,3.28,0,0,1-.22-1.21l-.1-1.42A34.6,34.6,0,0,0,24,13.12q-2.28-4.71-2.66-5.6a.53.53,0,0,1,.22-.76c.29-.16.52-.14.69.07l4,5.06a35.66,35.66,0,0,0,4.11,4.58.3.3,0,0,1-.07.16s-.1,0-.18,0q-1.11-.71-4.59-5.11L22.12,7Z"/><path class="cls-5" d="M32.61,21.64a7.27,7.27,0,0,1,1.15.17c.12,0,.17.06.16.13s-.06.08-.16.06-.48.1-.78.47l-.61.72-.58.37c-.29.17-.6.32-.92.47-.12,0-.66.19-1.64.43-.75.18-1.14.36-1.18.55s-.06.18-.12.16-.08-.08-.06-.2a3.14,3.14,0,0,1,.31-.94c.15-.3.28-.48.4-.53l1.08,0a1.63,1.63,0,0,0,1,0,2.07,2.07,0,0,0,.64-.95,2.94,2.94,0,0,1,.46-.87,1.6,1.6,0,0,1,.84-.08Z"/><path class="cls-2" d="M31.42,22.62a1.67,1.67,0,0,1-.75.93,2,2,0,0,1-1.15,0l-.92,0a1.63,1.63,0,0,0-.52.95,2.72,2.72,0,0,0-.15.93c0,.08,0,.14,0,.16s-.07,0-.1-.12A2.14,2.14,0,0,1,28,24.2c.19-.48.37-.77.55-.84l1.08,0a1.49,1.49,0,0,0,1,0,2,2,0,0,0,.64-.95,3,3,0,0,1,.46-.86,2.2,2.2,0,0,1,1.24,0,6.51,6.51,0,0,1,1.29.26c.13.05.16.1.1.14h-.26a7,7,0,0,0-1-.21,2,2,0,0,0-1.2.05,3.47,3.47,0,0,0-.41.83Z"/><path class="cls-2" d="M29.62,24l-.35.14a.76.76,0,0,0-.24.13l-.09.09s-.06,0-.09-.12,0-.18,0-.23a.53.53,0,0,1,.39-.2.66.66,0,0,1,.39.09s0,0,0,.06l-.05,0Z"/><path class="cls-2" d="M31.94,22.65a2.35,2.35,0,0,0-.14.23c0,.08-.08.11-.11.08s-.07-.18,0-.38a.54.54,0,0,1,.35-.39.23.23,0,0,1,.22.06c.06.05.08.09.06.11l-.16.12a1.12,1.12,0,0,0-.22.17Z"/><path class="cls-2" d="M26.55,25.27c.14,0,.2.05.19.09s-.07.06-.19.05a1.64,1.64,0,0,1-.86-.32,1.77,1.77,0,0,1-.5-.52c-.06-.08-.08-.14-.05-.15s.07,0,.14.1a2.22,2.22,0,0,0,.6.5,2.12,2.12,0,0,0,.67.25Z"/><path class="cls-2" d="M34.93,19.26a2,2,0,0,1-.15,1.4c0,.09-.07.14-.11.13s0-.07,0-.18a3.66,3.66,0,0,0,.16-.73,1.81,1.81,0,0,0,0-.59c0-.1,0-.15,0-.16s.08,0,.11.13Z"/></g></g></svg>