<svg xmlns="http://www.w3.org/2000/svg" viewBox="0 0 38.4 44.14"><defs><style>.cls-1{fill:#cc5d00;}.cls-1,.cls-2,.cls-3,.cls-4,.cls-5,.cls-6,.cls-7,.cls-8,.cls-9{fill-rule:evenodd;}.cls-2{fill:#fff3c2;}.cls-3{fill:#fbd6a0;}.cls-4{fill:#0d131a;}.cls-5{fill:#f29739;}.cls-6{fill:#fff;}.cls-7{fill:#922f00;}.cls-8{fill:#ed8599;}.cls-9{fill:#f9be00;}</style></defs><title>Asset 25@</title><g id="Layer_2" data-name="Layer 2"><g id="Layer_1-2" data-name="Layer 1"><path class="cls-1" d="M7.42,21.73a3.38,3.38,0,0,1,2.17,2.74,3.61,3.61,0,0,1-.62,3A3.79,3.79,0,0,1,7.08,28.8a1.78,1.78,0,0,1-1.47-.07c-.28-.17-.45-.13-.51.13a1.67,1.67,0,0,0,0,.68l.31,1.11a4,4,0,0,0,.43,1c.1.09,0,.29-.18.58a1.59,1.59,0,0,1-.71.59L4.23,33a1,1,0,0,1-.72-.35,6.93,6.93,0,0,1-1.83-4.41,7.39,7.39,0,0,1,1-4.78,4.43,4.43,0,0,1,1.85-1.63,3.33,3.33,0,0,1,2.89-.11Z"/><path class="cls-2" d="M10.38,33.66a5.13,5.13,0,0,0,3.76-1.16c.2-.17.48,0,.82.53s.41.88.19,1.06A7.85,7.85,0,0,1,8.84,35.8,7.32,7.32,0,0,1,3.55,33a1.66,1.66,0,0,0,.89-.16,2.42,2.42,0,0,0,.78-.37,4.16,4.16,0,0,0,.68-.86,6.27,6.27,0,0,0,4.48,2.1Z"/><path class="cls-1" d="M5.61,31c-.13-.43-.09-.49.11-.15a2.08,2.08,0,0,1,.33.83c0,.39-.3.78-1,1.19a1.37,1.37,0,0,1-1.86-.1.7.7,0,0,1-.13-.44q0-.32.18,0,.51.74,1.56.12c.71-.42,1-.89.82-1.42Z"/><path class="cls-2" d="M16.84,39.85l-1.14,1-.12-.55a2.34,2.34,0,0,0-.43-.65A2.38,2.38,0,0,0,13.93,39a3.94,3.94,0,0,0-1.38-.16q1.69-1.05,2.91-1.65A2,2,0,0,1,17,37c.6.17.87.68.81,1.51,0,.22-.34.66-1,1.32Z"/><path class="cls-1" d="M9.61,43.13c-.22,0-.4-.27-.56-.75a2.17,2.17,0,0,1-.12-1.08c.09-.44.52-.9,1.29-1.39A7.4,7.4,0,0,1,12.09,39l1.18-.13.83.14a2,2,0,0,1,1.4,1.12,1.32,1.32,0,0,1-.05,1.27,9.69,9.69,0,0,1-1.21,1.46,3.64,3.64,0,0,1-1.17.92l-.67,0a.56.56,0,0,1-.38-.26l-.6.15-.71.06a1.24,1.24,0,0,1-.5-.33,1.07,1.07,0,0,0-.6-.33Z"/><path class="cls-1" d="M15.53,40.88a2.06,2.06,0,0,0-1.76-1.75L12,39.08c-.14,0-.13,0,0-.06l.39-.15a3.14,3.14,0,0,1,2.1.21,2.12,2.12,0,0,1,1.24,1.66q.06.33-.06.36c-.08,0-.13,0-.16-.22Z"/><path class="cls-3" d="M16.93,36.34c.72.36,1,.55.94.55s-.14.11-.26.28a1.4,1.4,0,0,0-.24.52c0,.26-.38.29-1,.09s-.91-.37-.72-.53A1.1,1.1,0,0,0,16,36.09c0-.16.28-.08.95.25Z"/><path class="cls-4" d="M17.8,36.82a.44.44,0,0,1,.38-.07c.08,0,0,.11-.11.2a1.14,1.14,0,0,0-.57,1c0,.13-.06.21-.16.23s-.15,0-.15-.18a1.21,1.21,0,0,1,.61-1.14Z"/><path class="cls-4" d="M17.42,39.44a37.58,37.58,0,0,0-3.46,4,1.38,1.38,0,0,1-1.59.59,1.42,1.42,0,0,1-.94-.72,1.51,1.51,0,0,1,.05-1.23,1.42,1.42,0,0,1,.74-.75l.33,0c0,.05,0,.11-.17.19a1.33,1.33,0,0,0-.7.9,1.2,1.2,0,0,0,.18.94.93.93,0,0,0,.77.46,1.39,1.39,0,0,0,1.06-.57l1.62-2a19.84,19.84,0,0,1,1.82-2.06,1.55,1.55,0,0,0,.46-.68.89.89,0,0,0-.23-.95s0-.09.05-.18l.12-.1A1.33,1.33,0,0,1,18,38.37a1.68,1.68,0,0,1-.56,1.07Z"/><path class="cls-4" d="M9.77,43.21a1.72,1.72,0,0,1-.17-1.4A2.06,2.06,0,0,1,11,40.38h.28c.06,0,0,.09-.11.16a2,2,0,0,0-1.27,1.52,1.6,1.6,0,0,0,.34,1.23,1,1,0,0,0,.71.37,1.53,1.53,0,0,0,.73-.14c.11,0,.2,0,.24,0s0,.1-.12.19a1.57,1.57,0,0,1-.93.21,1.35,1.35,0,0,1-1.12-.7Z"/><path class="cls-4" d="M15.87,36.19c0-.13,0-.2.16-.19s.18.09.18.25a1.44,1.44,0,0,1-.65,1.18L13.1,38.66c-1.66.84-2.66,1.38-3,1.61a1.81,1.81,0,0,0-.94,1.88c.12.66.42,1,.88,1,.05,0,.1,0,.16.12s.06.11,0,.11A1.48,1.48,0,0,1,9.09,43a1.57,1.57,0,0,1-.42-1A2,2,0,0,1,10,39.86l5.15-2.61.56-.43a.82.82,0,0,0,.16-.63Z"/><path class="cls-1" d="M28.42,38.46l1.56.28a6.12,6.12,0,0,1,1.78.45,1.6,1.6,0,0,1,1,1.11v.32a.55.55,0,0,0,0,.31,1.48,1.48,0,0,1-.25,1.21,1.07,1.07,0,0,1-1,.62l-.5.33-.83.08a10.08,10.08,0,0,1-2.1-.86c-1-.52-1.63-.88-2-1.07-.18-.08-.23-.39-.16-.93A2.18,2.18,0,0,1,26.48,39a2.56,2.56,0,0,1,.95-.49l1,0Z"/><path class="cls-2" d="M26.22,39.36a2.8,2.8,0,0,0-.29,1.91A16.39,16.39,0,0,0,23,40l-2.25-.84c-.48-.75-.25-1.46.67-2.12a3.15,3.15,0,0,1,1-.48c.34-.08.5,0,.5.1l-.05.33a.19.19,0,0,0,.13.17,16.91,16.91,0,0,0,2.77.69,9.56,9.56,0,0,1,2.28.58,1.56,1.56,0,0,0-.93.27,2.08,2.08,0,0,0-.89.66Z"/><path class="cls-1" d="M28.47,38.53l-1,.14a1.92,1.92,0,0,0-1.05.63,2,2,0,0,0-.34,1.82c0,.08,0,.12-.11.09a.27.27,0,0,1-.2-.2,2,2,0,0,1,0-.79,1.88,1.88,0,0,1,1.44-1.69,2.56,2.56,0,0,1,1.28-.11l.26.06-.22.05Z"/><path class="cls-3" d="M22.82,36.62a.93.93,0,0,0,.17.75c.06.06.05.14,0,.23a.76.76,0,0,1-.38.2l-.94,0q-.55,0-.51-.18l.09-.26a.41.41,0,0,0,0-.31c0-.1.21-.22.77-.37s.83-.17.83-.09Z"/><path class="cls-4" d="M21.36,37.14c.11,0,.11,0,0,.1a1.16,1.16,0,0,0-.69,1c-.08.5.06.79.43.89a29.42,29.42,0,0,1,3.94,1.56c1,.44,2.28,1.09,4,2a2,2,0,0,0,2.14.05c.62-.41.55-1-.21-1.87-.13-.15-.17-.23-.11-.26s.19.06.37.23A1.9,1.9,0,0,1,31.92,42a1.15,1.15,0,0,1-.44,1,1.87,1.87,0,0,1-1.18.4A2.7,2.7,0,0,1,28.78,43,53.1,53.1,0,0,0,21,39.57c-.5-.15-.74-.57-.7-1.25s.3-1.06.77-1.17Z"/><path class="cls-4" d="M28.88,38.27a8.32,8.32,0,0,1,3.19.82,1.44,1.44,0,0,1,.79,1.81c-.06.16-.12.22-.18.17a.2.2,0,0,1-.08-.2c.2-.71-.2-1.25-1.21-1.62a16,16,0,0,0-2.53-.54l-3.05-.62A24.11,24.11,0,0,1,23,37.33s-.07-.08-.07-.2,0-.2,0-.19a16.16,16.16,0,0,0,2.9.77l3,.56Z"/><path class="cls-4" d="M31.63,39.72a1.83,1.83,0,0,1,1.28,1.22,1.63,1.63,0,0,1-.15,1.19,1.3,1.3,0,0,1-.72.63l-.56.1a.13.13,0,0,1-.17-.06c0-.06,0-.1.12-.13a1.58,1.58,0,0,0,1-.72,1.29,1.29,0,0,0,.05-1.07,1.81,1.81,0,0,0-.84-.92.46.46,0,0,1-.2-.19c0-.07,0-.09.14-.05Z"/><path class="cls-4" d="M21.13,36.67a1.05,1.05,0,0,1,.12.43,1.16,1.16,0,0,1-.07.6l-.21.21c-.07,0-.09,0-.06-.19a1.06,1.06,0,0,0-.07-.86.18.18,0,0,1,.06-.26c.09-.07.17-.05.23.07Z"/><path class="cls-4" d="M23.34,36a1.85,1.85,0,0,0-.24.61.88.88,0,0,0,.08.68c.1.15.11.23,0,.25a.3.3,0,0,1-.26-.14,1,1,0,0,1-.19-.51.91.91,0,0,1,.14-.68,1.13,1.13,0,0,1,.43-.42c.14-.07.14,0,0,.21Z"/><path class="cls-2" d="M30.37,35.48l-1,.34a2.06,2.06,0,0,1-1.47-.32,2.8,2.8,0,0,1-.67-.72,3.73,3.73,0,0,1-.49-.91A4.23,4.23,0,0,1,25,32.29a21.84,21.84,0,0,1-1.29-4.1,9.49,9.49,0,0,1-.49-2.72,2.14,2.14,0,0,1,.71-.47c.41-.18.64-.09.69.29a12.7,12.7,0,0,0,1.74,3.76c1,1.75,1.72,2.65,2.06,2.72a5.74,5.74,0,0,1,1.85.61,1.86,1.86,0,0,1,1,1.19,1.81,1.81,0,0,1-.07,1.29,1.57,1.57,0,0,1-.84.62Z"/><path class="cls-4" d="M26.87,33.76c.14.36.14.49,0,.41A6.14,6.14,0,0,1,25.24,33a4.92,4.92,0,0,1-1.13-3.33.28.28,0,0,1,.09-.22q.07-.11.09.06a7.8,7.8,0,0,0,.64,2.19,4.37,4.37,0,0,0,1.94,2.08Z"/><path class="cls-4" d="M30.32,35.39c.37,0,.61-.33.75-.85a1.51,1.51,0,0,0-.35-1.44,2.68,2.68,0,0,0-1.38-.81,3.78,3.78,0,0,1-1.42-.64,11.51,11.51,0,0,1-2.44-3.44,12.34,12.34,0,0,1-1.13-2.75.16.16,0,0,1,.11-.21c.09,0,.15,0,.17.09a13.55,13.55,0,0,0,1.71,3.57,12.64,12.64,0,0,0,1.91,2.42,4.94,4.94,0,0,0,1.29.56,3.67,3.67,0,0,1,1.51.82,1.81,1.81,0,0,1,.53,1.5c-.06.71-.51,1.17-1.37,1.38q-.16,0-.12-.06c0-.08.11-.12.23-.14Z"/><path class="cls-2" d="M15.85,36a4.25,4.25,0,0,1-1.68-3.08,8.6,8.6,0,0,1,1.25-3.21,16.79,16.79,0,0,0,1.77-4.49c.09-.51.51-.87,1.27-1.08a7,7,0,0,1,1.77-.19,4.22,4.22,0,0,1,1.94.82A6.89,6.89,0,0,1,24,26.22a8,8,0,0,1,1.32,3.13,6.81,6.81,0,0,1-.57,4.85,5.56,5.56,0,0,1-2.66,2.67,8.28,8.28,0,0,1-2.88.33A5.14,5.14,0,0,1,15.85,36Z"/><path class="cls-3" d="M14.35,33.7a4.93,4.93,0,0,0,2.19,1.78,8.06,8.06,0,0,0,3.14.82,6.84,6.84,0,0,0,2.64-.42,5.79,5.79,0,0,0,1.73-1c-1.33,1.71-2.81,2.52-4.44,2.45a6.37,6.37,0,0,1-3.49-1.1,4.28,4.28,0,0,1-1.77-2.52Z"/><path class="cls-4" d="M30.78,34.48a1.36,1.36,0,0,1-.85,1.43,2.1,2.1,0,0,1-1.9-.18A2.37,2.37,0,0,1,26.77,34c0-.13,0-.2.09-.23s.1,0,.09.12c0,.41.27.85.86,1.33a1.73,1.73,0,0,0,1.83.42,1.06,1.06,0,0,0,.73-1.26,1.6,1.6,0,0,0-1.1-1.26c-.12,0-.15-.09-.1-.13a.32.32,0,0,1,.27,0,1.64,1.64,0,0,1,1.34,1.54Z"/><path class="cls-3" d="M20.29,25.28l2-.14c1.1,0,1.67.1,1.68.33a.81.81,0,0,1-.22.72,1.52,1.52,0,0,1-.93.26l-1.25-.16-1.42-.38q-.45-.14-.45-.33c0-.13.18-.23.55-.3Z"/><path class="cls-4" d="M17.23,36.62a6,6,0,0,0,3.34.36,4.88,4.88,0,0,0,3-1.61A5.8,5.8,0,0,0,24.94,33a10.11,10.11,0,0,0-.67-5.89c-.17-.48-.23-.75-.16-.79s.21.1.41.53a10.85,10.85,0,0,1,1.1,5,5.53,5.53,0,0,1-4.74,5.65,6,6,0,0,1-3.7-.58c-.16-.08-.24-.15-.22-.21s.11-.06.27,0Z"/><path class="cls-4" d="M16.48,36.23c.08.05.11.1.1.16s-.07.07-.17,0a3.87,3.87,0,0,1-1.71-1.18A3.14,3.14,0,0,1,14,33.39a6.11,6.11,0,0,1,.88-3.31,19.71,19.71,0,0,0,2-4.56c.08-.3.16-.39.25-.27a.51.51,0,0,1,.1.39A13.38,13.38,0,0,1,15.47,30a5.8,5.8,0,0,0-1,3.3,3.35,3.35,0,0,0,2,2.91Z"/><path class="cls-4" d="M14.13,32.24c.19-.17.28-.14.24.1a.66.66,0,0,1-.25.49A7.17,7.17,0,0,1,10.47,34a5.61,5.61,0,0,1-3.11-.83,5.25,5.25,0,0,1-2-2.24,4.94,4.94,0,0,1-.42-3.06c0-.1.07-.08.15,0a.88.88,0,0,1,.13.51,4.9,4.9,0,0,0,1,3.1A5.12,5.12,0,0,0,8.6,33.16a6.16,6.16,0,0,0,3,.26,4.9,4.9,0,0,0,2.58-1.18Z"/><path class="cls-4" d="M3.79,21.86a3.76,3.76,0,0,1,4-.26,3.66,3.66,0,0,1,2.07,3.2,4.22,4.22,0,0,1-.75,3A3.51,3.51,0,0,1,7.56,29a2.84,2.84,0,0,1-2,0,1.76,1.76,0,0,1-1.21-1.9,2.57,2.57,0,0,1,1-2.2c.16-.12.27-.18.34-.17s0,.13-.16.34a2.71,2.71,0,0,0-.74,2.09,1.68,1.68,0,0,0,1,1.34,1.83,1.83,0,0,0,1.38.07,3,3,0,0,0,1.49-1.16,3.4,3.4,0,0,0,.62-2.85,3.42,3.42,0,0,0-1.66-2.48,3.06,3.06,0,0,0-3.52.23A5.12,5.12,0,0,0,2,26.55,9,9,0,0,0,3,31.72a7.55,7.55,0,0,0,3.22,3.06,8.43,8.43,0,0,0,4.16.92,7.23,7.23,0,0,0,3.9-1.21c.18-.12.31-.12.38,0s0,.22-.14.33a8.83,8.83,0,0,1-4.78,1.35,8.29,8.29,0,0,1-4.4-1.28,8.38,8.38,0,0,1-3.12-3.4,9,9,0,0,1-.92-5,5.76,5.76,0,0,1,2.45-4.61Z"/><path class="cls-4" d="M10.91,8.58a13.06,13.06,0,0,1,5,1.54c.29.17-.63,1.66-2.74,4.46s-3.26,4.12-3.38,4a15.8,15.8,0,0,1-2.15-4.81q-1.12-3.73-.27-5c.27-.39,1.44-.44,3.52-.16Z"/><path class="cls-4" d="M29.66,4.25c.56.23,1,1.42,1.3,3.58a10,10,0,0,1-.3,5.11q-.24.59-4.7-1.52T21.73,9a13.81,13.81,0,0,1,4.55-3.52c1.82-1,2.95-1.36,3.38-1.19Z"/><path class="cls-5" d="M24.61,9.29a9.68,9.68,0,0,1,2.14-1.83c1-.66,1.62-1,1.89-.91s.51.77.58,2.13a6.11,6.11,0,0,1-.38,3c-.09.2-.87-.09-2.33-.87s-2.1-1.29-1.9-1.54Z"/><path class="cls-5" d="M12.18,11.1c1.59.4,2.4.71,2.41.93a8.73,8.73,0,0,1-1.38,2.57c-1,1.5-1.56,2.14-1.81,1.93A7.56,7.56,0,0,1,10,13.77c-.55-1.57-.73-2.53-.51-2.88s1.05-.19,2.66.21Z"/><path class="cls-4" d="M33.41,10.93c1.35-.59,2.18-.93,2.5-1s.54-.06.66.17,0,.46-.34.68c-2.53,1.73-4.16,2.86-4.9,3.41l.32.87a4.44,4.44,0,0,1,.16,2l3.05.19a22,22,0,0,1,3.2.4.44.44,0,0,1,.34.44.42.42,0,0,1-.39.42l-6.8.66a10.08,10.08,0,0,1-2.74,3.66,12,12,0,0,1-4.89,2.46,18.9,18.9,0,0,1-8.73.42q-4.11-.93-5.19-4.2c-.78-2.33-.29-4.75,1.45-7.25A13.66,13.66,0,0,1,18.31,9a11.27,11.27,0,0,1,6.91-.14,9.6,9.6,0,0,1,5.06,3.48c.57-.3,1.61-.77,3.13-1.42Z"/><path class="cls-2" d="M25.21,23.92a3.23,3.23,0,0,0,.95-1,.41.41,0,0,1,.32-.26c.13,0,.17.07.12.22a4.26,4.26,0,0,1-1.23,1.88,3.48,3.48,0,0,1-1.46.82,6.14,6.14,0,0,1-2.5.13A7.48,7.48,0,0,1,19.05,25c-.14-.08-.15-.18,0-.3a.42.42,0,0,1,.42-.12l1.61.33,2.31-.1a5.69,5.69,0,0,0,1.84-.89Z"/><path class="cls-2" d="M35.93,10.22c.12-.05.2,0,.25,0s0,.14-.1.23L30.66,14c-.05,0-.06.06-.05.1A8.34,8.34,0,0,1,31,15.19a4.89,4.89,0,0,1,.13,2.23l.08,0,3.42.13,3.08.29c.14,0,.21.08.22.15s-.06.13-.2.14l-6.89.5-.06,0a8.84,8.84,0,0,1-2.49,3.65,10.93,10.93,0,0,1-4.77,2.49,17.68,17.68,0,0,1-8.45.31q-3.82-.95-4.82-3.93-1.09-3.34,1.41-6.88a13,13,0,0,1,6.84-4.95,10.58,10.58,0,0,1,6.67-.06,8.94,8.94,0,0,1,4.73,3.57l.17,0c.95-.47,2.9-1.38,5.83-2.72Z"/><path class="cls-4" d="M26.34,23.24q.09-.14.21-.09a.13.13,0,0,1,.06.19,4.38,4.38,0,0,1-2.73,2.34,5.94,5.94,0,0,1-3.37,0l-.29-.14c-.12-.08-.14-.1,0-.09a6.68,6.68,0,0,0,3.72-.17,4.6,4.6,0,0,0,2.45-2.06Z"/><path class="cls-6" d="M24,16a4.14,4.14,0,0,1,.08-2.16c.27-1.06.75-1.69,1.43-1.88a2.31,2.31,0,0,1,2,.48,3.6,3.6,0,0,1,1.42,2.28,2.57,2.57,0,0,1-.37,1.88,2,2,0,0,1-1.18,1,3.67,3.67,0,0,1-1.74,0A2.26,2.26,0,0,1,24,16Z"/><path class="cls-2" d="M.69,20.29c-.23,0-.34-.07-.33-.25a.62.62,0,0,1,.37-.44c.19-.1,2-.38,5.36-.84l5.4-.68c.38,0,.54.25.49.84s-.19.9-.44.93L.69,20.29Z"/><path class="cls-2" d="M12.77,22c.39-.14.69.06.88.59s.19.86,0,1-1.89.82-5.19,2.13l-5.13,2c-.48.09-.66,0-.57-.32a35.09,35.09,0,0,1,5-2.82q4.59-2.39,5-2.57Z"/><path class="cls-7" d="M22.46,20.12c-.38-.1.18-.33,1.67-.69s2.2-.4,2.18-.16a7.87,7.87,0,0,1-1.26,3.66,2.75,2.75,0,0,0-1.18-2.12,3.85,3.85,0,0,0-1.41-.69Z"/><path class="cls-8" d="M19.94,21l2.11-.76a2,2,0,0,1,1.83.65,3,3,0,0,1,1.16,2,1,1,0,0,1-.48.88,5.55,5.55,0,0,1-1.29.62A4.09,4.09,0,0,1,20,23.87a6,6,0,0,1-2.56-2.28c-.15-.27-.06-.38.25-.3a4.48,4.48,0,0,0,2.3-.3Z"/><path class="cls-2" d="M12.49,2.31q.51-.23,2.71,3.9a28.31,28.31,0,0,1,2.16,4.42c0,.19-.27.52-.9,1s-1,.61-1.05.45q-.32-.64-1.7-4.89-1.52-4.69-1.22-4.86Z"/><path class="cls-2" d="M22.1,9.46A39.68,39.68,0,0,1,21.68,5,30,30,0,0,1,21.52.42c0-.09.13-.1.27,0a.41.41,0,0,1,.26.33l1.89,9c0,.19-.23.32-.76.36a.94.94,0,0,1-1.08-.56Z"/><path class="cls-4" d="M21.44,5.27,21.27.51a.41.41,0,0,1,.37-.5c.27,0,.45.1.54.44l1,4.17,1,4.31c.07.35,0,.53-.15.56s-.3-.14-.37-.49L22,1.4a1.69,1.69,0,0,0-.25-.71c-.08,0-.1.13-.07.55q.18,5.31.33,7.54,0,.36-.24.21l-.25-.12-.08-3.6Z"/><path class="cls-4" d="M12.15,2.92c-.11-.53,0-.85.31-1s.58,0,.85.36,1.08,1.83,2.48,4.4,2.15,4,2.39,4.49a.35.35,0,0,1-.09.47c-.15.11-.26.08-.34-.08A91.36,91.36,0,0,0,13,2.89c-.16-.21-.26-.28-.32-.24s-.06.15,0,.32q.81,2.66,2.9,8.82c.12.38.1.58-.07.6s-.31-.11-.4-.39L13.58,7.49c-.9-2.82-1.38-4.34-1.43-4.57Z"/><path class="cls-4" d="M.61,20.49q-.52,0-.6-.39c0-.23.07-.42.35-.57a26.69,26.69,0,0,1,5.43-1.09,33.62,33.62,0,0,1,5.2-.52c.26,0,.39.11.39.22s-.12.16-.36.17c-1.11,0-3,.24-5.63.62a30.24,30.24,0,0,0-4.54.83c-.17.08-.27.15-.3.23s.07.15.34.16l4.6-.23L11,19.68c.28,0,.43.07.46.23s-.13.23-.46.25L.61,20.49Z"/><path class="cls-4" d="M12.75,23.69l.4,0q.09.13-.12.24L3.1,27.9a.38.38,0,0,1-.53-.18.5.5,0,0,1,.16-.62,36.68,36.68,0,0,1,4.66-2.7c2.52-1.34,4.05-2.1,4.57-2.28q.29-.12.36.06t-.18.27c-.55.23-1.85.88-3.91,1.94q-3.49,1.8-4.89,2.66c-.19.12-.3.23-.32.33l.48,0,4.28-1.69q3.93-1.61,5-2Z"/><path class="cls-4" d="M28.71,14.37c-.05-.2,0-.28.09-.25l.19.16a2.78,2.78,0,0,1-.28,2.35,2.52,2.52,0,0,1-1.39,1.12,2.74,2.74,0,0,1-2-.1,2.68,2.68,0,0,1-1.5-1.51.3.3,0,0,1,.06-.14c.05-.06.09-.07.11,0a2.75,2.75,0,0,0,1.48,1.45,2.62,2.62,0,0,0,1.75,0,2,2,0,0,0,1.26-1.05,2.81,2.81,0,0,0,.2-2.06Z"/><path class="cls-4" d="M26.11,19.3c0-.15.09-.23.2-.25s.16.06.14.2A9.59,9.59,0,0,1,25.31,23a3.35,3.35,0,0,1-1.8,1.57A4.62,4.62,0,0,1,20,24.06a7.69,7.69,0,0,1-3-2.64c-.05-.07,0-.1.12-.08a.33.33,0,0,1,.28.15A6.7,6.7,0,0,0,20,23.68a4.2,4.2,0,0,0,3.49.57,3.63,3.63,0,0,0,2.06-2.33,16.15,16.15,0,0,0,.61-2.62Z"/><path class="cls-4" d="M27.23,12.06A3.75,3.75,0,0,1,29,14.27a.19.19,0,0,1-.07.23c-.09.07-.14,0-.18-.1a3.16,3.16,0,0,0-1.42-1.9,2.12,2.12,0,0,0-1.82-.38,2.16,2.16,0,0,0-1.26,1.49A5.12,5.12,0,0,0,24,16.06c0,.09,0,.13-.08.15s-.09,0-.11-.07A5.24,5.24,0,0,1,24,13.43a2.45,2.45,0,0,1,1.34-1.72,2.33,2.33,0,0,1,1.89.35Z"/><path class="cls-4" d="M19.14,18.36a4.25,4.25,0,0,0-2.71-1.82,3,3,0,0,0-3,1.26c-.07.08-.13.09-.17,0s0-.13,0-.23a2.87,2.87,0,0,1,3-1.58A4,4,0,0,1,19.3,18.2c.08.13.09.21,0,.24s-.12,0-.2-.08Z"/><path class="cls-4" d="M24.22,19.66c.06-.26.39-.42,1-.48s.93,0,1,.22a1.31,1.31,0,0,1-.22.87c-.2.39-.36.59-.49.6s-.36-.15-.74-.51-.56-.59-.54-.7Z"/><path class="cls-6" d="M24.6,19.68c0-.17.26-.28.67-.33s.62,0,.66.14a1,1,0,0,1-.15.59c-.13.26-.23.39-.32.4s-.24-.1-.5-.34-.38-.4-.36-.46Z"/><path class="cls-4" d="M17.34,21.6q0-.34,1-.42c.64-.06,1,0,1,.11a1.41,1.41,0,0,1-.31.89c-.23.36-.41.55-.54.58s-.31-.14-.64-.47-.5-.57-.5-.69Z"/><path class="cls-6" d="M17.67,21.62q0-.26.63-.33c.42-.06.64,0,.66.13a1,1,0,0,1-.23.59c-.16.23-.29.36-.37.38s-.2-.09-.4-.31-.3-.38-.29-.46Z"/><path class="cls-4" d="M20.19,20.71l2.74-1.07a18.23,18.23,0,0,1,3.35-.73.8.8,0,0,0,.71-.55c0-.12.08-.15.15-.11s.08.11.06.23a1.09,1.09,0,0,1-.39.6.85.85,0,0,1-.49.21l-1.5.26L23,20a23.27,23.27,0,0,1-2.19.94,7,7,0,0,1-3.47.54,1.2,1.2,0,0,1-.49-.22l-.35-.34c-.07-.09-.08-.16,0-.2s.12,0,.22,0a1.79,1.79,0,0,0,.69.33,5.82,5.82,0,0,0,2.8-.38Z"/><path class="cls-4" d="M26.42,15.08a8.68,8.68,0,0,1,.34,1.39c0,.4,0,.61-.05.64s-.23-.13-.42-.48a9.93,9.93,0,0,1-.53-1.33,7.61,7.61,0,0,1-.34-1.4c-.06-.39-.05-.61,0-.63s.23.13.42.49a7.79,7.79,0,0,1,.54,1.32Z"/><path class="cls-6" d="M25.87,14.06c.1.31.12.48.05.52s-.17-.13-.27-.44-.11-.47,0-.5.15.11.26.42Z"/><path class="cls-4" d="M23.82,20.87a2.72,2.72,0,0,0-1.92-.68c-.06,0-.06,0,0-.05l.25-.1.7.1a3,3,0,0,1,1.05.49,3.51,3.51,0,0,1,1,1.24A1.8,1.8,0,0,1,25.11,23l-.12.27s-.07,0-.06-.1A2.39,2.39,0,0,0,24.7,22a3.12,3.12,0,0,0-.88-1.17Z"/><path class="cls-2" d="M19.53,18A2.75,2.75,0,0,0,19,17a1.8,1.8,0,0,0-.71-.58l-.06-.06s.06,0,.13,0a1.33,1.33,0,0,1,.87.63,2.8,2.8,0,0,1,.44,1l0,.13s-.06,0-.09-.09Z"/><path class="cls-4" d="M22.78,10.65a2.4,2.4,0,0,1-.17,1.94,2.59,2.59,0,0,1-3.48,1.11,2.52,2.52,0,0,1-1.28-1.52L16.53,8.1a2.6,2.6,0,0,1,1.66-3.26,2.46,2.46,0,0,1,2,.16,2.5,2.5,0,0,1,1.28,1.51l1.34,4.14Z"/><path class="cls-9" d="M22.38,10.55a2.35,2.35,0,0,1-.08,1.77A2,2,0,0,1,21,13.48a2,2,0,0,1-1.78-.2,2.49,2.49,0,0,1-1.09-1.45L17,8.15A2.36,2.36,0,0,1,17,6.39a2,2,0,0,1,1.28-1.14,2.16,2.16,0,0,1,1.74.17,2.37,2.37,0,0,1,1.11,1.4l1.22,3.73Z"/><path class="cls-4" d="M20.88,6c.1,0,.19,0,.25.17s.06.23,0,.27L16.8,7.9c-.15,0-.23,0-.26-.18a.29.29,0,0,1,.18-.33L20.88,6Z"/><path class="cls-4" d="M21.4,7.56c.11,0,.18,0,.23.19s0,.27-.05.31L17.24,9.54A.18.18,0,0,1,17,9.38a.26.26,0,0,1,.17-.32l2.19-.78,2.07-.72Z"/><path class="cls-4" d="M22,9.24c.11,0,.19,0,.25.15s0,.2,0,.24l-2.07.77-2.23.8a.22.22,0,0,1-.31-.16c-.06-.16,0-.26.12-.32.89-.33,2.32-.83,4.28-1.48Z"/><path class="cls-4" d="M22.52,10.87c.11,0,.19,0,.24.14s0,.22-.05.26L18.4,12.72c-.15.06-.24,0-.28-.13a.2.2,0,0,1,.14-.28l2.19-.76,2.07-.68Z"/><path class="cls-2" d="M31.47,24a.76.76,0,0,1,.19.55,1.15,1.15,0,0,1-.11.64,2.46,2.46,0,0,1,.82.42,1.62,1.62,0,0,1,.45,1,1.13,1.13,0,0,1-.3.9,1.56,1.56,0,0,1-.64.46,2.16,2.16,0,0,0-.05.59,1.12,1.12,0,0,1-.33.88,1.54,1.54,0,0,1-1.09.4A1.94,1.94,0,0,1,29.12,29l-.45,0-.73.32a11.05,11.05,0,0,1-4.16.38,14,14,0,0,1-3.17-.64,8.65,8.65,0,0,1-2.35-1c-.33-.26-.11-.67.66-1.25a2.5,2.5,0,0,1,1.83-.72l1.42.17a10.46,10.46,0,0,0,1.66,0L26.67,26a4.1,4.1,0,0,0,2.27-1.15,3.67,3.67,0,0,1,1.23-1,1.16,1.16,0,0,1,1.3.17Z"/><path class="cls-4" d="M31.64,28.06a.2.2,0,0,1,.07-.23c.08-.07.15,0,.2.06a1.54,1.54,0,0,1-.06,1.45,1.41,1.41,0,0,1-1,.67A1.68,1.68,0,0,1,29.05,29c-.06-.1-.06-.16,0-.19s.11,0,.19.08c.57.6,1.09.82,1.59.66a1.26,1.26,0,0,0,.77-.56,1,1,0,0,0,.05-.89Z"/><path class="cls-4" d="M31.24,24.11a.94.94,0,0,0-1.11,0,2.82,2.82,0,0,0-.83.77,5.5,5.5,0,0,1-3.87,1.72,13.53,13.53,0,0,1-5.16-.41c-.11,0-.15-.09-.11-.17s.12-.1.28-.06a12.8,12.8,0,0,0,5.27.09c1.72-.31,2.83-.83,3.32-1.56a2.11,2.11,0,0,1,1.32-.95,1.23,1.23,0,0,1,1.23.35,1.12,1.12,0,0,1,.3.66.75.75,0,0,1-.18.67.31.31,0,0,1-.32.1c-.13,0-.16-.07-.11-.13a.79.79,0,0,0,.21-.64.62.62,0,0,0-.24-.42Z"/><path class="cls-4" d="M18.36,28.27,18.17,28c0-.09,0-.08.24,0a13.65,13.65,0,0,0,5.7,1.37q3.48.2,4.89-.73c.07,0,.14,0,.21.1s0,.2-.09.25a10.85,10.85,0,0,1-6.05.87q-3.37-.36-4.71-1.62Z"/><path class="cls-4" d="M32.35,25.33a1.34,1.34,0,0,1,.66.85,1.71,1.71,0,0,1-.13,1.2,1.35,1.35,0,0,1-1.31.74q-.21,0-.27-.12c0-.08,0-.13.16-.14a1,1,0,0,0,.7-.31,1.26,1.26,0,0,0,.33-1.24,1,1,0,0,0-.38-.62,1.48,1.48,0,0,0-.92-.22c-.15,0-.22,0-.21-.1s.06-.11.17-.14a1.31,1.31,0,0,1,1.2.1Z"/></g></g></svg>