<svg xmlns="http://www.w3.org/2000/svg" viewBox="0 0 54.5 50.09"><defs><style>.cls-1{fill:#e50012;}.cls-1,.cls-10,.cls-11,.cls-12,.cls-13,.cls-14,.cls-2,.cls-3,.cls-4,.cls-5,.cls-6,.cls-7,.cls-8,.cls-9{fill-rule:evenodd;}.cls-2{fill:#f2e100;}.cls-3{fill:#fff;}.cls-4{fill:#f9bf3d;}.cls-5{fill:#ed8599;}.cls-6{fill:#eeeeef;}.cls-7{fill:#3e4e57;}.cls-8{fill:#cbbd00;}.cls-9{fill:#c6000b;}.cls-10{fill:#c8c9ca;}.cls-11{fill:#27333a;}.cls-12{fill:#94a1a8;}.cls-13{fill:#d6a535;}.cls-14{fill:#0d131a;}</style></defs><title>Asset 30@</title><g id="Layer_2" data-name="Layer 2"><g id="Layer_1-2" data-name="Layer 1"><path class="cls-1" d="M38,21.38a13.33,13.33,0,0,1,1.22,5.09,11,11,0,0,1-1.71,6.9,7.52,7.52,0,0,1-5.06,3.35,9.68,9.68,0,0,1-5.07-.3,11.5,11.5,0,0,1-4.16-2.27,9.3,9.3,0,0,1-2.88-5.53,7.2,7.2,0,0,1,1.35-5.81,7.11,7.11,0,0,1,2-1.92L38,21.38Z"/><path class="cls-2" d="M3.48,14.78A2.14,2.14,0,0,0,3.22,16a.6.6,0,0,0,.52.46c.28,0,.5-.22.64-.71l.32.57a1.56,1.56,0,0,1,.24.85,5.18,5.18,0,0,1-.66.8c-.35.39-.45.68-.3.84a1.81,1.81,0,0,0,.55.32l.83.34c.71.34,1,.73,1,1.18a6.44,6.44,0,0,1-.2,1.06.79.79,0,0,0,.28.61l.52.6a.61.61,0,0,1-.11.61,2.92,2.92,0,0,0-.64,2l.76.81A18.66,18.66,0,0,0,9.2,28.11a19.25,19.25,0,0,0,8.66,3.43l-.16.66a7.42,7.42,0,0,0-.12,1.61,4.78,4.78,0,0,0,2,3.89l-.32.83A21.1,21.1,0,0,1,8.64,31.68,20.7,20.7,0,0,1,6.37,28.4L5.67,27a2.52,2.52,0,0,0-.78-.31l-.69-.21s.07-.11.2-.2l.2-.11a6.3,6.3,0,0,0-1.8-.55L.9,25.18c-.21-.1-.24-.42-.09-1l.38-1c0-.12-.12-.36-.48-.71l-.57-.51a1.52,1.52,0,0,1,.85,0,1.87,1.87,0,0,1,.4.14c.08-.14,0-.37-.13-.69l-.48-.8c-.13-.21-.09-.48.14-.81A2.91,2.91,0,0,1,1.68,19c.23-.17.2-.52-.09-1.06a6.69,6.69,0,0,0-.77-1.08c-.15-.2-.11-.47.14-.83a7.31,7.31,0,0,1,.82-.9c.22-.22.26-.63.12-1.21l-.27-.81.54.28A1.93,1.93,0,0,1,3,14.47l.31-.26a1.09,1.09,0,0,1,.62-.27l-.4.84Z"/><path class="cls-1" d="M38.5.29a2,2,0,0,1,1-.18l-.76,1.17,1-.08c-.76.85-1.09,1.49-1,1.92s.57.71,1.42,1.15,1.14.81,1.12,1.24-.38.87-1.1,1.39-.75.85-.53,1.31a1.52,1.52,0,0,0,.51.56,6,6,0,0,1,2.71,1.09,2.93,2.93,0,0,1,1.09,2.42,2.54,2.54,0,0,1-1.37,2.2,4.32,4.32,0,0,1-.94.46l-.43.13L36.41,20l-.91.09a7.35,7.35,0,0,1-2.73-.79,6.26,6.26,0,0,1-2.51-3A8.41,8.41,0,0,1,29.85,15l-.09-.52-1.11-.62a2.39,2.39,0,0,0,.48-.6l-.58-1c-.36-.62-.47-.94-.34-.95a2.58,2.58,0,0,1,.92.38l.68.41a1.66,1.66,0,0,1,0-.48l.06-.31c.07,0-.05-.1-.37-.38a.45.45,0,0,1-.15-.58,1.23,1.23,0,0,0,.22-.48,2.33,2.33,0,0,0-.18-.68A3.5,3.5,0,0,0,29,8.42a4.27,4.27,0,0,0-1.2-.72A13.83,13.83,0,0,1,26.42,7c-.21-.16-.2-.46,0-.91L27,5.14a1.05,1.05,0,0,0,.15-.58q-.09-.33-.9-.87A2.11,2.11,0,0,1,25.4,2a3.65,3.65,0,0,1,0-1.06A3.85,3.85,0,0,0,26.6,2.29a.76.76,0,0,0,.47.15,1.61,1.61,0,0,1-.16-.58l0-.33a2.94,2.94,0,0,0,.77.72,1.53,1.53,0,0,0,1.16.11c.43-.1.67,0,.74.42a11.53,11.53,0,0,1-.07,1.49.73.73,0,0,0,.72.87L32.12,5c.84-.08,1.34,0,1.5.1s.22.77,0,1.71a1.58,1.58,0,0,0,.54,1.84,1.71,1.71,0,0,0,.9.33,1,1,0,0,0,.3-1l-.22-.65a1.54,1.54,0,0,1,.9.36,2.48,2.48,0,0,0-.3-.78l-.28-.51a3.75,3.75,0,0,1,1.15.28V6q0-.24-.63-.51a4.34,4.34,0,0,1-1-.58.7.7,0,0,1-.1-.89,5.66,5.66,0,0,1,.56-.86c.12-.19,0-.44-.23-.76L34.7,2a1.83,1.83,0,0,1,1.42-.16,2.24,2.24,0,0,1,.64.27A3.4,3.4,0,0,1,38.5.29Z"/><path class="cls-2" d="M38.5.29a2,2,0,0,1,1-.18l-.76,1.17,1-.08c-.71.79-1,1.41-.93,1.85s.54.79,1.37,1.22,1.14.81,1.12,1.24-.38.87-1.1,1.39-.75.85-.53,1.31a1.52,1.52,0,0,0,.51.56,6.58,6.58,0,0,1,2.47.91,4.71,4.71,0,0,0-1.21-.27h-.71a3.64,3.64,0,0,1,.61.7A3.74,3.74,0,0,0,40,9.84H39.3a4.77,4.77,0,0,1,.66.61,3.15,3.15,0,0,0-1.28-.32l-.78,0A13.94,13.94,0,0,0,35.09,9a1.06,1.06,0,0,0,.3-1l-.18-.59a1.38,1.38,0,0,1,.82.28,2.86,2.86,0,0,0-.25-.75l-.24-.47a3.73,3.73,0,0,1,1.06.21V6q0-.24-.63-.51a4.34,4.34,0,0,1-1-.58.72.72,0,0,1-.1-.92l.56-.9c.12-.19,0-.43-.23-.72L34.7,2a1.83,1.83,0,0,1,1.42-.16,2.24,2.24,0,0,1,.64.27A3.4,3.4,0,0,1,38.5.29Z"/><path class="cls-2" d="M32.12,5c.84-.08,1.34,0,1.5.1s.22.77,0,1.71a1.68,1.68,0,0,0,.3,1.64,1.72,1.72,0,0,0,.94.5,3.45,3.45,0,0,1,.88.87,3,3,0,0,0-1.18-.22h-.79a2.37,2.37,0,0,1,.79.56l.4.43a1,1,0,0,0-.47-.24l-.82-.23a2.53,2.53,0,0,1-.86-.46l-.26-.26a2,2,0,0,0,.2.75l.2.38a1.85,1.85,0,0,0-.65-.47l-.94-.37a5.4,5.4,0,0,1-.86-.46L30.19,9l.13.24.26.6a2.79,2.79,0,0,0,.88,1.39.88.88,0,0,1-.5-.07,3.11,3.11,0,0,1-1.27-1,.7.7,0,0,0-.1-.3,2.33,2.33,0,0,0-.18-.68A3.5,3.5,0,0,0,29,8.42a3.79,3.79,0,0,0-1.16-.7c-.76-.38-1.21-.61-1.34-.7s-.22-.48,0-.94L27,5.14a1.07,1.07,0,0,0,.14-.69,2.6,2.6,0,0,0-.93-.85A2,2,0,0,1,25.38,2a3.29,3.29,0,0,1,.06-1A3.85,3.85,0,0,0,26.6,2.29a.76.76,0,0,0,.47.15,1.61,1.61,0,0,1-.16-.58l0-.33a3,3,0,0,0,.71.69,2.17,2.17,0,0,0,1.28.18c.44,0,.67.11.72.45l-.11,1.42a.73.73,0,0,0,.72.87L32.12,5Z"/><path class="cls-3" d="M35.86,15.76l1.19-.07a1.54,1.54,0,0,1-.26.7,1.69,1.69,0,0,1-1.46.74,1.38,1.38,0,0,1-1.4-.85,2.89,2.89,0,0,1-.18-.61l0-.29a5.26,5.26,0,0,0,2.14.38Z"/><path class="cls-3" d="M39.34,15a3.89,3.89,0,0,0,1.76.1l.85-.18a2.54,2.54,0,0,1-.34.92,1.23,1.23,0,0,1-1.18.63,1,1,0,0,1-1-.76l-.1-.71Z"/><path class="cls-4" d="M33.8,18.37v-.15c.07-.12.25-.2.56-.26a5.88,5.88,0,0,0,3.11-1.24,4.49,4.49,0,0,1,1.2-.94,1,1,0,0,1,1.18.18c.25.25.51.52.77.83a1.7,1.7,0,0,0,.79.41,5.17,5.17,0,0,1,.9.27.4.4,0,0,1,.23.49,2.14,2.14,0,0,1-.37.78q-.31.41-.57.33a1.79,1.79,0,0,1-.43-.26.45.45,0,0,0-.4-.09l-.47.15-.14,1.57a.81.81,0,0,1-.33.5,1.59,1.59,0,0,1-1.3.2,2.94,2.94,0,0,1-1.25-.6,8,8,0,0,0-1.42-1l-1.58-.69c-.35-.16-.51-.33-.48-.52Z"/><path class="cls-5" d="M37.87,19.92l-.33-.67,1.39.05.69-.15a3.6,3.6,0,0,1,0,1.14c0,.09-.21.17-.5.25l-.69.07c-.14,0-.34-.24-.59-.69Z"/><path class="cls-1" d="M6.44,22.28l.52.6a.61.61,0,0,1-.11.61,2.92,2.92,0,0,0-.64,2l.5.54a19.12,19.12,0,0,0,1.46,1.33l1.29,1.75a7.25,7.25,0,0,1-1.84-.75l-.93-.55c.06.29.24,1,.56,2.06a20.06,20.06,0,0,1-1.21-2L5.67,27a2.52,2.52,0,0,0-.78-.31l-.69-.21s.07-.11.2-.2l.2-.11a6.3,6.3,0,0,0-1.8-.55L.9,25.18c-.21-.1-.24-.42-.09-1l.38-1c0-.12-.12-.36-.48-.71l-.57-.51,1,0a2,2,0,0,1,.63.89,4.34,4.34,0,0,0,.17.59,1.73,1.73,0,0,0,.9.29l-.25-.22c-.15-.17-.2-.27-.15-.33s.28,0,.65.17a1.78,1.78,0,0,1,.75.53,1.24,1.24,0,0,0-.38-.81,8.5,8.5,0,0,0-.87-.9A1.63,1.63,0,0,1,2.38,21l.09-.9a3.1,3.1,0,0,0,.91,1.16.78.78,0,0,0,.39.17A1,1,0,0,1,3.62,21l0-.21a1.58,1.58,0,0,0,.7.48,1.8,1.8,0,0,0-.23-.58l-.36-.43-.45-.47a1.4,1.4,0,0,1-.18-.85,1.12,1.12,0,0,1,.55-.81,3.74,3.74,0,0,1,.94-.48,4.61,4.61,0,0,0-.53.61c-.15.22-.17.4-.05.52a1.81,1.81,0,0,0,.55.32l.83.34c.71.34,1,.73,1,1.18a6.44,6.44,0,0,1-.2,1.06.79.79,0,0,0,.28.61Z"/><path class="cls-2" d="M21.81,28.07a5,5,0,0,1,1.86,0,5.85,5.85,0,0,1,3.74,3.06,5.53,5.53,0,0,1,.38,3.45,4.37,4.37,0,0,1-.67,1.55,6,6,0,0,1-1.4,1.48,5,5,0,0,1-4.54.84A4.55,4.55,0,0,1,17.83,35a5.86,5.86,0,0,1-.13-2.47,5.77,5.77,0,0,1,.88-2.34,4.6,4.6,0,0,1,3.23-2.12Z"/><path class="cls-2" d="M40.79,29.8a4.44,4.44,0,0,1,.61,4.4,4.1,4.1,0,0,1-3.68,3.06,5.6,5.6,0,0,1-2.15-.21,3.67,3.67,0,0,1-1.51-.84,7.25,7.25,0,0,0,2.41-1.68,8.81,8.81,0,0,0,2.7-6l.54.3a4.65,4.65,0,0,1,1.08,1Z"/><path class="cls-2" d="M24.33,38.89l-.75,0,0-.36a5.15,5.15,0,0,0,2.53-1.31l.68-.71.24-.3a5.52,5.52,0,0,0,2.55.74l1.55,0a14.1,14.1,0,0,1-5,1.65l-1.89.22Z"/><path class="cls-2" d="M22,26.13l-.37.48a2.34,2.34,0,0,0-.41.69l.41.23a.85.85,0,0,1,.43.58l-.64.09a2.47,2.47,0,0,0-1.13.52l-.11-.4a1.59,1.59,0,0,1,0-.68,2.12,2.12,0,0,1,1.05-1.18,3.18,3.18,0,0,1,.79-.33Z"/><path class="cls-2" d="M27.52,30l.6.24.06.27-.57,1.18-.51-1.09a.56.56,0,0,0,.36-.36l.06-.24Z"/><path class="cls-2" d="M35.08,30.57a8,8,0,0,0-1.51,1.26,1.47,1.47,0,0,0-.17.4c0,.06.09.09.33.1l.53,0q.12.06-.06.36l-.29.36s.08.12.36.28a3.07,3.07,0,0,1,.54.33c.07.1,0,.34-.12.74L36,33.68,35.8,33a.47.47,0,0,1,.12-.47,2.81,2.81,0,0,1,.57-.31c.24-.12.33-.25.27-.41a2.56,2.56,0,0,0-.57-.67.79.79,0,0,1-.19-.92,1.2,1.2,0,0,1,.55-.62l.52-.27a.45.45,0,0,0,.17-.45,4.27,4.27,0,0,0-.4-.8.85.85,0,0,1-.14-.86,2.5,2.5,0,0,1,1-.81,4.9,4.9,0,0,1,.74-.31c-.33.86-.38,1.39-.13,1.6a5.39,5.39,0,0,1,.75,1.21,11.09,11.09,0,0,1-1,3.64,8.4,8.4,0,0,1-3.73,3.55,8.3,8.3,0,0,1-6.65.41l-.6-.26a3.26,3.26,0,0,0,.79-2.32l-.07-1.53L29,31.7a7.7,7.7,0,0,0,4.07-1,5.28,5.28,0,0,0,1.35-1.06c.51.53.73.85.66.95Z"/><path class="cls-2" d="M32.3,20.86l-7.22,2.5A12.25,12.25,0,0,1,24,21.77a4.8,4.8,0,0,1-.3-2.95,3.8,3.8,0,0,1,1.93-2.63,5.28,5.28,0,0,1,1.59-.66l.46,0,1.12,0a4.36,4.36,0,0,1,2.87,1.62,5,5,0,0,1,.85,2.67,2.44,2.44,0,0,1-.18,1Z"/><path class="cls-1" d="M32,20.45a12.34,12.34,0,0,1,.77,1.31c0,.06-.23.21-.7.46l.13.11.17.19c0,.06,0,.21-.17.43l.47.27a3.6,3.6,0,0,1,.54.37c.07.08-.07.32-.4.73.8.55,1.19.88,1.18,1a1.66,1.66,0,0,1-.42.57c.44.31.66.51.64.59a3.11,3.11,0,0,1-.34.69,2.11,2.11,0,0,1,.55.78,1.45,1.45,0,0,1,.1,1.27,3.55,3.55,0,0,1-1.47,1.46,7.4,7.4,0,0,1-2.81,1.06,1.82,1.82,0,0,1-1.92-.6,1.87,1.87,0,0,1-.27-.57L28,30.27l-.58-.4a2.5,2.5,0,0,1-.6-.46c0-.05.09-.17.28-.35l.26-.27c-1.1,0-1.66-.08-1.68-.25a2.84,2.84,0,0,1,.21-1.08,2.31,2.31,0,0,1,.33-.78,1.41,1.41,0,0,1,.66.1l.34-.68L26.55,26l-.76-.14s0-.22.11-.62l.16-.61-.87-.22c-.05,0,0-.12,0-.29l.15-.25L25,23.36a2.07,2.07,0,0,1-.35-.6c0-.06.14-.13.41-.21l.41-.1L25,22.27c-.35-.13-.51-.25-.5-.35A5.36,5.36,0,0,1,24.8,21c.21-.48.34-.73.39-.73s.22.08.5.28l.41.3.35-.36-.65-.79a3.12,3.12,0,0,1,.95-.63c.22-.1.41-.18.58-.24s.22.08.37.43a3.16,3.16,0,0,1,.2.54l1-.13-.07-.48c0-.31,0-.47.07-.47A5.66,5.66,0,0,1,30,19a2.62,2.62,0,0,1,.91.3c0,.08,0,.34-.19.78a2.59,2.59,0,0,1,.9.75l.39-.33Z"/><path class="cls-6" d="M28.34,31a1.6,1.6,0,0,0,.53.56v.18l-1.51.9c.06-.24.14-.51.23-.8a3.9,3.9,0,0,1,.57-1.21l.18.37Z"/><path class="cls-6" d="M29.57,30.49l.33.06c.22.06.33.15.34.27A6.75,6.75,0,0,1,30,32.66L29.6,34A4.41,4.41,0,0,1,29,32.09a4.37,4.37,0,0,1-.05-1.31c0-.13.13-.21.34-.26l.3,0Z"/><path class="cls-6" d="M30.7,30.6A.56.56,0,0,1,31,30a1.14,1.14,0,0,1,.34-.15l.42-.07c.29,0,.43.11.44.33A7.91,7.91,0,0,1,32.36,32v1.23A5,5,0,0,1,31.41,32a4.67,4.67,0,0,1-.71-1.42Z"/><path class="cls-6" d="M34.49,30.73a11,11,0,0,1,.22,1.52c0,.14-.29-.13-.86-.82L33,30.35a1.38,1.38,0,0,1-.26-.36.49.49,0,0,1,0-.64,1.42,1.42,0,0,1,.75-.38c.32-.06.51,0,.58.19a11.68,11.68,0,0,1,.36,1.57Z"/><path class="cls-6" d="M33.92,27l1.31.51c.87.36,1.28.58,1.24.66s-.65.3-1.78.46a2.69,2.69,0,0,0-.15-.57A3,3,0,0,0,33.92,27Z"/><path class="cls-7" d="M32.43,19.11l1.27.59a5.49,5.49,0,0,0,2.75.34l1.76,1.09a4.23,4.23,0,0,1-1.67.89,4.29,4.29,0,0,1-4-.81l-.24-.36a5.43,5.43,0,0,0,.1-1.74Z"/><path class="cls-2" d="M42.16,18.78l.2,1A3.41,3.41,0,0,1,42,21.8a3.13,3.13,0,0,1-1.69,1.38,4.66,4.66,0,0,1-1.69.29l-.18-.89a3.5,3.5,0,0,0-.43-1.2l.2-.22h.89c.6-.08.95-.27,1-.58a4.7,4.7,0,0,0,.17-1.08V19l.64-.3.31.25a.75.75,0,0,0,.51.22.56.56,0,0,0,.42-.35Z"/><path class="cls-1" d="M51.17,18.85a3.52,3.52,0,0,1-2.11-.41,9.49,9.49,0,0,1-.53,1.41c-.06.09-.35,0-.86-.23a4,4,0,0,1-.52.95c-.1.08-.32-.05-.67-.38a1.39,1.39,0,0,1,0,.6,2.45,2.45,0,0,1-1,.11l-.27-.76-.55,1-.88-.38a8.09,8.09,0,0,1-1,1.05c-.06,0-.16-.05-.32-.25l-.21-.3.11-.92a2.67,2.67,0,0,0-.2-1.44,3.35,3.35,0,0,0,.32-.66c.16-.45.1-.72-.16-.8l-1.14-.3a1.28,1.28,0,0,1-.88-.62l.27-.06a2.42,2.42,0,0,0,.59-.23A1.32,1.32,0,0,0,42,14.88l.52-.26a2.64,2.64,0,0,0,.71-.49l.53.38.36-.54c.26-.33.47-.45.62-.34l.57.45.22-.18q.23-.18.36-.06l.33.31.22-.32c.16-.21.28-.29.37-.22a8.37,8.37,0,0,1,1.11,1.14L48,14.6a1.92,1.92,0,0,1,.46-.27,2,2,0,0,1,1.72.15A5.18,5.18,0,0,1,52,16a1.73,1.73,0,0,1,.32,1.8,1.66,1.66,0,0,1-1.18,1.05Z"/><path class="cls-6" d="M48.68,14.24l.34-.49q.38-.5.48-.45c.12,0,.11.37,0,1l-.8,0Z"/><path class="cls-6" d="M50.84,14.81l-.91-.51.69-.49c.45-.32.69-.45.73-.38s-.11.55-.51,1.38Z"/><path class="cls-6" d="M53,14.3a6.11,6.11,0,0,1-1.08,1.53l-.9-.95c1.29-.47,2-.67,2-.58Z"/><path class="cls-6" d="M52.07,16l1.18,0c.79.06,1.18.14,1.18.24s-.35.31-1,.65l-1,.46v-.57a1.26,1.26,0,0,0-.32-.83Z"/><path class="cls-6" d="M51,18.81l.4-.55q.46-.54.75-.51c.11,0,.35.31.72.89s.53.89.49.92A16.33,16.33,0,0,1,51,18.81Z"/><path class="cls-1" d="M15.55,45.79a6.77,6.77,0,0,1,.67-2c.1-.23.38-.73.82-1.52l1-1.58a1.4,1.4,0,0,1,.52-.51l.24-.08c2.58.5,4,.76,4.22.76s.35.44.56,1.33a27.31,27.31,0,0,1,.5,3,3.63,3.63,0,0,1-.18,2,.69.69,0,0,1-.38.39,6.5,6.5,0,0,1-3.6.7l-2.37-.16c-1.39-.34-2-1.1-2-2.29Z"/><path class="cls-1" d="M38.93,38.24a2.65,2.65,0,0,0,.72.45,7.37,7.37,0,0,0,1.41.54l1.65.49a3.46,3.46,0,0,1,1.22.71,3.05,3.05,0,0,1,.67,1.34c.16.59.17,1,0,1.2a5.61,5.61,0,0,1-1.4.94L42,44.55a4,4,0,0,1-2.76-.06,8.16,8.16,0,0,1-1.82-1,3.27,3.27,0,0,0-1.18-.54L35,42.63A3.11,3.11,0,0,1,33.63,42,2.49,2.49,0,0,1,33,40.29a2,2,0,0,1,.88-1.79,3,3,0,0,1,1-.48l4.13.22Z"/><path class="cls-6" d="M40.59,43.58a1.46,1.46,0,0,1,0-.55c.07-.38.23-.59.5-.63.42-.12,1,.17,1.73.86A3,3,0,0,1,44,45.1c0,.11-.26.09-.71-.05l-.81-.21-1.08-.34a1.32,1.32,0,0,1-.69-.57l-.1-.35Z"/><path class="cls-6" d="M43.64,40.84a1.88,1.88,0,0,1,.9.4,6.12,6.12,0,0,1,1.31,1.36c.44.6.62,1,.52,1.13s-.59,0-1.53-.33a6.28,6.28,0,0,1-1.48-.67,2.22,2.22,0,0,1-.22-.63,1.47,1.47,0,0,1,.24-1.2l.26-.06Z"/><path class="cls-6" d="M17.84,45.94a1.52,1.52,0,0,1,.13.91,1.5,1.5,0,0,1-.46.83l-.88.87-.61.63-.23.18h-.18a6.1,6.1,0,0,1-.08-1.1,3.88,3.88,0,0,1,.43-2,1.4,1.4,0,0,1,1.09-.84.79.79,0,0,1,.79.49Z"/><path class="cls-6" d="M22.18,45.65a.85.85,0,0,1,.74.48,2,2,0,0,1,.17,1.4,3.68,3.68,0,0,1-.9,1.65,6.14,6.14,0,0,1-.74.72,8.46,8.46,0,0,1-.34-1,5.31,5.31,0,0,1-.18-2,1.36,1.36,0,0,1,.71-1.11l.54-.11Z"/><path class="cls-7" d="M19.51,37.75a5.49,5.49,0,0,0,2.79,1l1.34-.06-.28.89-.46,1.34a2.24,2.24,0,0,1-2.58,1.5,1.62,1.62,0,0,1-1.45-1,1.63,1.63,0,0,1-.1-1l.74-2.62Z"/><path class="cls-7" d="M38.11,37.26a1.79,1.79,0,0,0,.88-.35l-.23,2.37a.78.78,0,0,1-.32.45,2.47,2.47,0,0,1-1.57.33,3.09,3.09,0,0,1-1.67-.49l-.42-.44.07-2.26a7.17,7.17,0,0,0,3.26.39Z"/><path class="cls-1" d="M26.32,15.74l-.34.14-1.49-7c-.06-.28,0-.44,0-.5h.15a.63.63,0,0,1,.39.27l.17.26,4.44,6.26.32.71a4.12,4.12,0,0,0-2.76-.39,4.18,4.18,0,0,0-.92.25Z"/><path class="cls-1" d="M19,12l.11-.08a1,1,0,0,1,.59.27l5.47,4.26a4.68,4.68,0,0,0-1.56,4.43L23.4,21l-4.3-8.24L19,12.42c-.07-.21-.06-.35,0-.41Z"/><path class="cls-1" d="M14.86,18.44c.07-.11.27-.11.59,0a2.89,2.89,0,0,1,.47.2L23,21.44a5.21,5.21,0,0,0-1.6,1.83,12.18,12.18,0,0,0-.77,1.37l-5.49-5.58a.93.93,0,0,1-.3-.49l0-.13Z"/><path class="cls-1" d="M13.46,25a.1.1,0,0,1,0-.13c.06-.08.23-.11.52-.1l6.46.37-.18,1.1a8.25,8.25,0,0,0,0,2.29l-.86.69-5.6-3.73-.21-.17c-.13-.13-.18-.24-.15-.32Z"/><path class="cls-8" d="M23.59,38.85v-.24a5,5,0,0,0,2.63-1.32,5.4,5.4,0,0,0,.59-.69l.18-.3a11.88,11.88,0,0,0,4.27.71,12.22,12.22,0,0,1-2.11.88,19.25,19.25,0,0,1-5.56,1Z"/><path class="cls-8" d="M7.56,29.88a18.06,18.06,0,0,0,2.08,1.74A19.46,19.46,0,0,0,17.79,35l.38,1a4.07,4.07,0,0,0,1.42,1.71l-.36.74A18.3,18.3,0,0,1,9.9,33.12a20.66,20.66,0,0,1-2.28-2.78l-.75-1.2.69.74Z"/><path class="cls-8" d="M17.72,32.33l.17.52a6.69,6.69,0,0,0,.64,1.21A5.48,5.48,0,0,0,22,36.36a7.76,7.76,0,0,0,4-.07,4.26,4.26,0,0,0,1.37-.66A5.31,5.31,0,0,1,26,37.37a5.62,5.62,0,0,1-4.76,1.16,4.63,4.63,0,0,1-3.49-3.62,6.76,6.76,0,0,1-.12-1.81l.11-.77Z"/><path class="cls-9" d="M35.73,32.66l.19,1.05a4.68,4.68,0,0,1-1.24.73,5.24,5.24,0,0,1,.14-.58c0-.14,0-.27-.24-.4l-.31-.15a8.32,8.32,0,0,0,1.46-.65Z"/><path class="cls-8" d="M38.94,30.16a8.19,8.19,0,0,1-.52,1.51,9,9,0,0,1-3.25,3.89,8.14,8.14,0,0,1-5.46,1.38,9.83,9.83,0,0,1-1.89-.33l-.72-.25a4.07,4.07,0,0,0,.65-2.06l.08-1.36a13.43,13.43,0,0,0,1.51.49c.09.37.18.56.26.55s.14-.17.19-.45a8.58,8.58,0,0,0,4.48-.22l.32.14c.21.12.3.23.26.34l-.17.66,1.19-.7c.05-.06.05-.18,0-.34l-.12-.51c0-.23,0-.36.11-.4a3.17,3.17,0,0,0,.88-.5,9.7,9.7,0,0,0,1.73-1.66,5.52,5.52,0,0,0,.58-.79l-.11.61Z"/><path class="cls-8" d="M40.73,35.25a4.42,4.42,0,0,1-3.41,2.09,4.79,4.79,0,0,1-2.53-.58,3.46,3.46,0,0,1-.55-.42l-.16-.19c.33-.16.69-.36,1.08-.59a6.31,6.31,0,0,0,1.57-1.21l.51.15,1.26.17a3.76,3.76,0,0,0,3.13-1.31,6,6,0,0,1-.9,1.89Z"/><path class="cls-9" d="M19.2,46.87l1.73-.07L21,48.14l-2.11.12A4.63,4.63,0,0,1,17.25,48a1.8,1.8,0,0,0,.58-.75l.15-.45,1.22.08Z"/><path class="cls-9" d="M23.08,47.75V46.53a1.55,1.55,0,0,0,1-.87A2.41,2.41,0,0,1,24,47a1.56,1.56,0,0,1-.89.71Z"/><path class="cls-9" d="M15.54,45.67l.2-.64.09.28a2.42,2.42,0,0,0,.38.6l-.49,1a1.79,1.79,0,0,1-.18-1.27Z"/><path class="cls-10" d="M17.73,46l.17.51a1.37,1.37,0,0,1-.28,1.09q-.33.39-2,1.83a3.05,3.05,0,0,1,.47-1.12A5.41,5.41,0,0,1,17,47.13a2.89,2.89,0,0,0,.58-.78l.15-.4Z"/><path class="cls-10" d="M22.52,45.82l.31.28a1.77,1.77,0,0,1,.34,1,2.86,2.86,0,0,1-.56,1.46,5.22,5.22,0,0,1-.82,1.1c-.13.12-.22.18-.28.18l-.07,0A6.83,6.83,0,0,0,22.52,47l0-.86,0-.32Z"/><path class="cls-9" d="M41.9,44.57a4.26,4.26,0,0,1-.95.2L40,44.7a4.55,4.55,0,0,1-1.83-.76,5.5,5.5,0,0,0-1.39-.85A16.35,16.35,0,0,0,35,42.6a3.47,3.47,0,0,1-1.24-.46A2.15,2.15,0,0,1,33,41,1.48,1.48,0,0,1,33,39.68l.06.23a2.1,2.1,0,0,0,.31.54,3.33,3.33,0,0,0,2,1.1,10.49,10.49,0,0,1,2.23.65l.87.48.69.43a3.65,3.65,0,0,0,1.4.41l.17.52a1.25,1.25,0,0,0,1.11.53Z"/><path class="cls-9" d="M43.36,43.9l-.6-.76a7.09,7.09,0,0,0,.82-.39l.72.47-.94.68Z"/><path class="cls-10" d="M40.76,42.82l.06.29a1.55,1.55,0,0,0,.79.58A5.28,5.28,0,0,1,44,45.14a11.67,11.67,0,0,1-2.39-.59,1.57,1.57,0,0,1-.89-.77,1,1,0,0,1,.07-1Z"/><path class="cls-10" d="M43.15,41.61l1.24.67a9.2,9.2,0,0,1,2,1.46l-.93-.2a8.9,8.9,0,0,1-2.11-.86,1.24,1.24,0,0,1-.2-.73l0-.34Z"/><path class="cls-11" d="M23.46,39.28a10,10,0,0,1-.5,1.61,2.39,2.39,0,0,1-1.1,1.21,2.53,2.53,0,0,1-.72.28l1.08-3.65a3.15,3.15,0,0,0,1.37-.13l-.13.68Z"/><path class="cls-11" d="M36.05,37.28l-.17,2.6-.49-.23a1.26,1.26,0,0,1-.62-.62,4,4,0,0,1-.05-1.26l.08-.9.44.21a2.36,2.36,0,0,0,.81.2Z"/><path class="cls-12" d="M38.42,37.11l.6-.2q-.21,2.19-.27,2.43c0,.16-.22.32-.54.5l.21-2.73Z"/><path class="cls-12" d="M19.92,38.09l-1,3.24c-.07,0-.12-.08-.16-.21a2.6,2.6,0,0,1,.16-1.28l.47-1.56.14-.5.4.31Z"/><path class="cls-12" d="M33.72,19.77l.68.23-.48,2a2.54,2.54,0,0,1-.42-.21l-.3-.19.52-1.83Z"/><path class="cls-11" d="M36,20.17l.54-.1,1.68,1-.55.48a13.14,13.14,0,0,1-1.26-1l-.41-.4Z"/><polygon class="cls-9" points="26 15.96 24.55 9.02 26.62 15.62 26 15.96 26 15.96"/><path class="cls-9" d="M21.13,16.75A29.72,29.72,0,0,1,19,12.32l4.46,7.46.06.5a2,2,0,0,0,.14.65l-.28.11-2.26-4.29Z"/><path class="cls-9" d="M14.86,18.64l6.08,5.29-.26.79-2.93-2.94a25.68,25.68,0,0,1-2.89-3.14Z"/><path class="cls-9" d="M13.49,25.08l6.37,3.79-.44.34-3.05-1.93c-2-1.31-3-2.05-2.88-2.2Z"/><path class="cls-9" d="M28.9,30.88a1.25,1.25,0,0,0,0,.69l-.11-.09a1.91,1.91,0,0,1-.63-1l0-.5.2.24a1.89,1.89,0,0,0,.65.43l-.11.25Z"/><polygon class="cls-9" points="33.21 30.61 33.16 30.63 32.27 31.03 32.19 30.27 32.81 30.01 33.21 30.61 33.21 30.61"/><path class="cls-9" d="M34.24,29.8l-.14-.61a2.24,2.24,0,0,0,.56-.68l0,.4a2.11,2.11,0,0,1-.4.89Z"/><polygon class="cls-9" points="30.26 30.79 30.75 30.71 31.06 31.5 30.16 31.71 30.26 30.79 30.26 30.79"/><path class="cls-9" d="M50.86,18.89l-.67-.05a2.39,2.39,0,0,1-1.15-.4l.23-.84.54.27a4.08,4.08,0,0,0,1.67.18l-.62.84Z"/><path class="cls-10" d="M51.44,18.24l1.82,1.32L51,18.81l.13-.22a1,1,0,0,1,.34-.35Z"/><polygon class="cls-10" points="52.44 16.82 54.39 16.27 52.41 17.39 52.44 16.82 52.44 16.82"/><polygon class="cls-10" points="53.03 14.36 51.94 15.78 51.72 15.46 53.03 14.36 53.03 14.36"/><path class="cls-10" d="M34.53,28l.79.06,1.14.18-.46.14a6.55,6.55,0,0,1-1.3.2L34.53,28Z"/><path class="cls-10" d="M28.42,31.23l.45.38,0,.17-1.46.88a5,5,0,0,1,.6-.9l.43-.53Z"/><path class="cls-8" d="M41.88,21.85a3.62,3.62,0,0,1-3.27,1.65l-.4-1.56.4.06,1-.05a4.17,4.17,0,0,0,2.72-1.76,3.15,3.15,0,0,1-.45,1.66Z"/><path class="cls-8" d="M24.73,17l-.11.34a4.34,4.34,0,0,0-.15.85,2.39,2.39,0,0,0,.79,2.08l-.41.75c-.27.52-.38.84-.33,1s.24.24.57.36l.47.15-.44.08c-.29.09-.39.21-.31.36a2.8,2.8,0,0,1-.71-.84,4.36,4.36,0,0,1-.56-2.7,4.12,4.12,0,0,1,.69-1.83,2.53,2.53,0,0,1,.5-.55Z"/><path class="cls-9" d="M39.43,12.82l0,.32a2.32,2.32,0,0,1-.16.79,2.86,2.86,0,0,1-2,1.7,5.53,5.53,0,0,1-3.17-.17,4.16,4.16,0,0,1-.82-.4L33,14.85a6.64,6.64,0,0,0,3.9,0c1.46-.41,2.3-1.09,2.52-2Z"/><path class="cls-9" d="M39.35,14.08l.47.14,1.15.11a3.52,3.52,0,0,0,2.92-1.64,3.38,3.38,0,0,1-1,1.54,3.8,3.8,0,0,1-4,.51l.55-.66Z"/><path class="cls-9" d="M38.54,15.44a14.26,14.26,0,0,0-1.6.81,2.55,2.55,0,0,0,.13-.62,2.49,2.49,0,0,0,1.26-.47l.52-.44.48.27a1.84,1.84,0,0,0,.06.44,1.52,1.52,0,0,0-.85,0Z"/><polygon class="cls-9" points="33.3 15.29 33.16 15.05 33.73 15.31 33.77 15.84 33.3 15.29 33.3 15.29"/><path class="cls-13" d="M36.4,18.39l.9.27a4.76,4.76,0,0,0,2,0l1.41-.37a.54.54,0,0,1,.52.08l.38.36A.71.71,0,0,0,42,19a.38.38,0,0,1-.16.11.36.36,0,0,1-.38-.07l-.3-.24a.26.26,0,0,0-.2-.07L40,19a3.59,3.59,0,0,1-1.57.24,2.47,2.47,0,0,1-1.53-.43l-.51-.45Z"/><path class="cls-13" d="M33.89,18.24l.2.13a4.59,4.59,0,0,0,.7.34,6.44,6.44,0,0,0,.84.27,3.27,3.27,0,0,1,.93.5,10.08,10.08,0,0,1,1,1,1.63,1.63,0,0,0,1,.6h-.27a1.69,1.69,0,0,1-.7-.28l-.89-.64a7.59,7.59,0,0,0-1.18-.67,12.24,12.24,0,0,1-1.26-.59c-.36-.22-.49-.43-.41-.65Z"/><polygon class="cls-13" points="39.69 19.74 39.58 19.13 40.28 18.94 40.23 19.6 39.84 19.71 39.69 19.74 39.69 19.74"/><path class="cls-9" d="M47.28,18.44,48,19l-.18.3a2,2,0,0,1-.37-.54l-.15-.34Z"/><path class="cls-9" d="M45.88,16.26a7.7,7.7,0,0,1-1.49,0s-.08-.1-.07-.22v-.17l1.55.39Z"/><path class="cls-9" d="M45.56,18.5a.22.22,0,0,1-.29,0,2.39,2.39,0,0,1-.2-.8L45,17l.59,1.52Z"/><path class="cls-9" d="M46.66,15.77l.52,1.64-.26,0a2.76,2.76,0,0,1-.18-.88l-.08-.74Z"/><path class="cls-9" d="M47.33,18.28l.28.22c.21.14.36.18.45.13a2.84,2.84,0,0,0,.62-.73c-.19.75-.34,1.14-.45,1.19s-.4-.22-.9-.81Z"/><path class="cls-9" d="M46.92,15.64l.18.61a4.2,4.2,0,0,0,.24.7c.06.1.31.05.75-.14a4.65,4.65,0,0,1-.87.53s-.16-.26-.31-.8a2.84,2.84,0,0,1-.18-.93c0-.06.06-.07.12,0l.07.07Z"/><path class="cls-9" d="M45.14,16.65l.24.72a3,3,0,0,0,.32.75c.08,0,.34-.09.77-.36-.46.5-.74.76-.84.76s-.2-.3-.39-.9a3.43,3.43,0,0,1-.26-1c0-.05.06-.06.11,0l0,0Z"/><path class="cls-9" d="M42.79,18.71l.21.5c.15.34.25.5.29.5a5.26,5.26,0,0,0,1-.4c-.63.59-1,.85-1.06.8a2.3,2.3,0,0,1-.4-.66c-.2-.41-.28-.63-.23-.68a.27.27,0,0,1,.18-.06Z"/><path class="cls-9" d="M41.77,15.84l.77,1.6.21.11a1.72,1.72,0,0,0,.93-.19l-1.08.7,0-.33a.53.53,0,0,0-.4-.4l-.61-1.41.21-.08Z"/><path class="cls-9" d="M45.18,16l-.92-.25s0-.06,0-.11l.06-.09,1.73.67L45.18,16Z"/><path class="cls-9" d="M25.77,28.14l2.07.65a8.41,8.41,0,0,1-2.14-.23.26.26,0,0,1,0-.25l.08-.17Z"/><path class="cls-9" d="M27,29.26l.37.21a3.14,3.14,0,0,0,.75.27l0,.48a4.21,4.21,0,0,1-1.27-.75.15.15,0,0,1,0-.17l.09,0Z"/><path class="cls-9" d="M34,26.21l.15.07c.09,0,.13.11.12.16a3.37,3.37,0,0,1-.33.69l-.37-.28a1.26,1.26,0,0,0,.43-.64Z"/><path class="cls-9" d="M25.89,25.51l.43.14,1.07.21-.15.25a3.85,3.85,0,0,1-1.44-.25c-.06-.06-.06-.13,0-.23l.1-.12Z"/><path class="cls-9" d="M26.78,24.65a6.17,6.17,0,0,1-1.58-.26c-.08-.06-.07-.13,0-.24l.15-.14.43.24a7.82,7.82,0,0,0,1,.4Z"/><path class="cls-9" d="M25.39,23.81l-.32-.44c-.21-.31-.3-.51-.26-.6l.25.25a1.58,1.58,0,0,0,.6.35l-.27.44Z"/><path class="cls-9" d="M24.65,21.61l.39.31a9.37,9.37,0,0,0,.93.62,3.69,3.69,0,0,1-1.45-.64q-.11-.16,0-.24a.21.21,0,0,1,.13-.05Z"/><polygon class="cls-9" points="32.65 21.58 32.82 21.79 32.11 22.25 31.93 22.09 32.65 21.58 32.65 21.58"/><path class="cls-9" d="M33.09,23.49l.1,0c.07,0,.11.06.11.11a2.36,2.36,0,0,1-.4.68l-.27-.16.46-.67Z"/><path class="cls-9" d="M33.84,25.15l.12.07c.09.05.13.1.13.14a4.2,4.2,0,0,1-.9.87l.65-1.08Z"/><path class="cls-9" d="M32.11,18.09a4.84,4.84,0,0,0-.68-1.2l.51.5a3.81,3.81,0,0,0,1.92.79l.08.38a1.6,1.6,0,0,0,1,.66,4.92,4.92,0,0,1,1.26.56,1.77,1.77,0,0,1,.36.29L35.17,20a7,7,0,0,1-2.72-.91l-.34-1Z"/><polygon class="cls-9" points="28.71 13.79 29.79 13.94 29.75 14.46 28.76 13.94 28.71 13.79 28.71 13.79"/><path class="cls-9" d="M25.93,25.2a1.61,1.61,0,0,0-.13.66,2.33,2.33,0,0,0,.75.16l.69.09-.32.75a1.5,1.5,0,0,0-.48-.17l-.24,0a1.2,1.2,0,0,1-.52-.27c-.07-.07-.05-.28.06-.65l.18-.54a2.18,2.18,0,0,1-.8-.16c-.08-.05-.08-.17,0-.35l.15-.27.84.21-.18.58Z"/><path class="cls-9" d="M25.88,28.86l0-.21,1.51.16-.57.66q-.06.08.3.3l.36.2a.51.51,0,0,1-.18.41l-.23.18-1.19-1.37a.47.47,0,0,1,0-.33Z"/><path class="cls-8" d="M27.52,30l.62.38.05.29-.56,1.09-.52-1.17a.55.55,0,0,0,.34-.33l.07-.26Z"/><path class="cls-9" d="M49.24,17.27A4.33,4.33,0,0,1,49,18.79a3.73,3.73,0,0,1-.42,1.11c-.07.05-.35,0-.85-.27-.29.62-.48.93-.55.94a.89.89,0,0,1-.38-.15l-.28-.17a1.29,1.29,0,0,1-.07.56l-.49.05a1.08,1.08,0,0,1-.48-.07l-.16-.38-.09-.32a3.58,3.58,0,0,1-.58,1c-.07,0-.36-.1-.87-.38-.52.77-.84,1.14-1,1.12s-.19-.12-.32-.32l-.18-.28.09-1.45.41-.39.46.76,1-.81a1.81,1.81,0,0,1,.76-.25l.82-.16a8.1,8.1,0,0,0,1.38-.62c.57.57.89.84,1,.82a2.06,2.06,0,0,0,.3-.67l.28-.7.47-.45Z"/><polygon class="cls-10" points="50.88 14.79 50.54 14.57 51.3 13.72 50.88 14.79 50.88 14.79"/><polygon class="cls-10" points="49.2 14.2 49.54 13.57 49.52 14.15 49.2 14.2 49.2 14.2"/><path class="cls-14" d="M39.67,1.07l.16,0s0,.08-.07.16l-.56.63a2,2,0,0,0-.42,1q0,.33.51.69a5,5,0,0,0,.77.46,3.41,3.41,0,0,1,.89.6A1.1,1.1,0,0,1,41,6.29l-.57.47-.55.47a.78.78,0,0,0-.26.51.85.85,0,0,0,.22.54,1.6,1.6,0,0,0,.62.52l-.18,0H40a2.32,2.32,0,0,1-.47-.49.94.94,0,0,1-.19-.63,1,1,0,0,1,.3-.62,4.91,4.91,0,0,1,.59-.5l.53-.5a1,1,0,0,0,.25-.48.94.94,0,0,0-.36-.82,5.21,5.21,0,0,0-.86-.55A4.74,4.74,0,0,1,39,3.73,1,1,0,0,1,38.57,3a1.59,1.59,0,0,1,.33-1,7.33,7.33,0,0,1,.65-.71L39,1.38l-.3.08c-.07,0-.12,0-.14,0V1.33a1.77,1.77,0,0,1,.34-.62l.43-.52a2,2,0,0,0-.89.23,3.51,3.51,0,0,0-1.6,1.87l-.08.11a.24.24,0,0,1-.11-.06,1.68,1.68,0,0,0-1-.4,2,2,0,0,0-.77.09,1.7,1.7,0,0,1,.45.37.79.79,0,0,1,.23.55,2,2,0,0,1-.34.66,1.76,1.76,0,0,0-.34.82.67.67,0,0,0,.15.49,1.73,1.73,0,0,0,.53.33l.26.12a4.62,4.62,0,0,1,.72.35.64.64,0,0,1,.18.52v.29c0,.17,0,.26-.08.28l-.25,0-.8-.28a3,3,0,0,1,.59,1.26c0,.11,0,.17,0,.17L36,7.88a3.88,3.88,0,0,0-.72-.43,1.81,1.81,0,0,1,.14,1,1.07,1.07,0,0,1-.22.61l-.14,0C35,9,35,8.94,35,8.91a1.32,1.32,0,0,0,.25-1l-.18-.48c-.07-.1-.08-.16,0-.18h.18l.7.28a2.71,2.71,0,0,0-.29-.66l-.2-.32c0-.09-.06-.15,0-.18l.16,0,.6.13.38.11,0-.29a.54.54,0,0,0-.19-.44,3.19,3.19,0,0,0-.64-.32l-.34-.11c-.51-.23-.77-.55-.77-.94A1.43,1.43,0,0,1,35,3.63,1.56,1.56,0,0,0,35.33,3c0-.21-.22-.5-.66-.85-.1-.07-.1-.14,0-.2l.67-.18a1.85,1.85,0,0,1,1.33.33A3.36,3.36,0,0,1,37.56.81,2.57,2.57,0,0,1,39.46,0c.09,0,.13,0,.12.09l-.18.3-.25.36a2.36,2.36,0,0,0-.22.4l.74-.08Z"/><path class="cls-14" d="M29.55,9.77s0,0,.09,0,.06.07,0,.1a1.77,1.77,0,0,0-.22.47c-.05.13-.05.22,0,.26l.11.12.34.34a.24.24,0,0,1,.1.17l-.1.16c-.06.06-.1.08-.1.05l-.17-.26-.23-.3-.12-.13c-.09-.1-.09-.28,0-.52l.27-.48Z"/><path class="cls-14" d="M29.93,11.13c.09-.12.15-.17.2-.14v.12l-.07.14a2.22,2.22,0,0,0-.14.85c0,.13-.07.17-.18.1a12,12,0,0,0-1.48-.82,1.94,1.94,0,0,0,.27.57l.46.79.28.51,0,.06-.24.28-.22.24.42.2.52.21.05.37a7.91,7.91,0,0,1-.71-.36L28.64,14c-.06,0-.1-.07-.1-.1l.06-.11.42-.48-.23-.43-.57-1a1.26,1.26,0,0,1-.16-.45.17.17,0,0,1,.05-.12h.29a6.39,6.39,0,0,1,1.29.63,1.78,1.78,0,0,1,.14-.54l.1-.19Z"/><path class="cls-14" d="M41.27,8.89A4.24,4.24,0,0,1,43,9.76a2.94,2.94,0,0,1,.83,1,2.79,2.79,0,0,1,.3,1.19,2.85,2.85,0,0,1-.35,1.49,3.14,3.14,0,0,1-1.06,1.14,3.87,3.87,0,0,1-2,.6,4.4,4.4,0,0,1-2.07-.42s0-.06,0-.13.06-.09.09-.08a4,4,0,0,0,3.82-.24,2.75,2.75,0,0,0,1-1A2.61,2.61,0,0,0,43.76,12a2.58,2.58,0,0,0-.29-1.1,3.44,3.44,0,0,0-.79-1,4.25,4.25,0,0,0-1.55-.81,5.12,5.12,0,0,0-1.75-.19c-.17,0-.26,0-.27-.07s.07-.09.24-.11a4.53,4.53,0,0,1,1.92.15Z"/><path class="cls-14" d="M33.62,15.36s0,0,.1,0,.11,0,.1.05l0,.28a2,2,0,0,0,.18.54,1.55,1.55,0,0,0,1.43.8,1.39,1.39,0,0,0,1.13-.51,1.57,1.57,0,0,0,.44-.87s0,0,.1,0,.09,0,.08.06a1.91,1.91,0,0,1-.47,1.08,1.62,1.62,0,0,1-1.29.52,1.68,1.68,0,0,1-1.61-1,1.91,1.91,0,0,1-.19-.64l0-.3Z"/><path class="cls-14" d="M39.26,15s0,0,.09,0,.08,0,.08.06v.22a2.3,2.3,0,0,0,.1.47s0,.05-.1.07h-.12a1.91,1.91,0,0,1-.08-.54,1,1,0,0,1,0-.25Z"/><path class="cls-14" d="M41.88,14.82s0,0,.09,0l.09.06a1.85,1.85,0,0,1-.47,1.21,1.58,1.58,0,0,1-1.25.47s-.05,0,0-.11,0-.12,0-.12a1.41,1.41,0,0,0,1-.42,1.53,1.53,0,0,0,.49-1.06Z"/><path class="cls-14" d="M34.71,15.56l0,.17c0,.19,0,.28-.12.28s-.11-.09-.11-.28l0-.21.18,0Z"/><path class="cls-14" d="M40.3,15v.13c0,.19,0,.28-.08.28s-.09-.09-.09-.28l0-.15.15,0Z"/><path class="cls-14" d="M36.42,18.52c-.11-.13-.15-.2-.11-.22s.11,0,.2.12a2.79,2.79,0,0,0,1.77.73,6.29,6.29,0,0,0,2.56-.59l.24,0,.22.16c.21.18.37.26.49.23s.21-.14.33-.34a1.72,1.72,0,0,0,.26-.63c0-.23,0-.39-.09-.47a1.46,1.46,0,0,0-.59-.18l-.65-.1a1.16,1.16,0,0,1-.62-.4l-.61-.75a1.06,1.06,0,0,0-.64-.32,1,1,0,0,0-.51.16l-.53.4a9.93,9.93,0,0,1-1.3,1,5.34,5.34,0,0,1-1.19.46l-1,.19-.6.12c-.11,0-.17.09-.17.18s.14.25.4.38a4.72,4.72,0,0,0,.78.33,5.77,5.77,0,0,1,.86.38l1.26.88a3.57,3.57,0,0,0,1.18.7,2.45,2.45,0,0,0,1.12-.14c.31-.13.48-.3.51-.52l.15-1.3a4,4,0,0,1-2.12.36,2.57,2.57,0,0,1-1.64-.9Zm-.85-.95a4.76,4.76,0,0,0,1.16-.46A8.19,8.19,0,0,0,38,16a1.6,1.6,0,0,1,1.18-.47,2.33,2.33,0,0,1,1.45,1,1.29,1.29,0,0,0,.43.39l.67.14.43.08a.79.79,0,0,1,.39.15c.15.12.2.35.13.7a1.63,1.63,0,0,1-.33.71,1.12,1.12,0,0,1-.51.43.57.57,0,0,1-.4-.05l-.3-.22-.23-.16-.47.18-.15,1.41a.9.9,0,0,1-.64.75,2.27,2.27,0,0,1-1.28.15,3.4,3.4,0,0,1-1.27-.66c-.52-.39-.94-.69-1.27-.89a6,6,0,0,0-.72-.35L34.38,19a3.41,3.41,0,0,1-.49-.32.45.45,0,0,1-.19-.35.42.42,0,0,1,.26-.41,3.36,3.36,0,0,1,.68-.18l.93-.19Z"/><path class="cls-14" d="M37.73,20a6.14,6.14,0,0,1-.51-.89s0,0,.15-.05l.19,0a10,10,0,0,0,.5.93,1.35,1.35,0,0,0,.36.47l.7-.05c.24-.07.37-.14.39-.2a2.94,2.94,0,0,0-.06-1.14s0-.05.13-.07l.15,0,0,.53a1.91,1.91,0,0,1-.05.7c-.06.14-.23.26-.53.35l-.81.05c-.15,0-.37-.26-.65-.69Z"/><path class="cls-14" d="M29.68,14v-.14c0-.07,0-.1.06-.1s.07.05.09.18a8.21,8.21,0,0,0,.55,2.27L30,16a7.42,7.42,0,0,1-.3-2Z"/><path class="cls-14" d="M32.39,19.24l-.11-.51a5.68,5.68,0,0,0,2,1,5.57,5.57,0,0,0,2.23.15l.12.12c0,.08.05.13,0,.13l-2.16-.07a6.14,6.14,0,0,1-2.09-.83Z"/><path class="cls-14" d="M32.1,20.72s0-.06,0-.11.07-.07.09-.05a3.93,3.93,0,0,0,1.33,1.05,4.37,4.37,0,0,0,1.68.45,3.7,3.7,0,0,0,1.57-.22,3.4,3.4,0,0,0,1.26-.73s.07,0,.15,0,.11.07.08.09a4.19,4.19,0,0,1-1.37.85,4.07,4.07,0,0,1-1.71.3,4.16,4.16,0,0,1-1.74-.51,4.29,4.29,0,0,1-1.37-1.14Z"/><path class="cls-14" d="M23.63,20.75s.06,0,.1.07.06.09,0,.11A8.68,8.68,0,0,0,21,24.32a8.1,8.1,0,0,0-.59,4.27l-.16.13c-.11.06-.17.07-.17,0a8.61,8.61,0,0,1,.64-4.59,8.34,8.34,0,0,1,2.92-3.42Z"/><path class="cls-14" d="M37.86,21.44s0-.07.08-.14.1-.08.11-.05a15,15,0,0,1,1.2,5,11.43,11.43,0,0,1-.52,5.1,8.8,8.8,0,0,1-4.84,5.07,8.94,8.94,0,0,1-7,0s0-.07.05-.17.12-.15.15-.14a8.46,8.46,0,0,0,6.66,0,8.8,8.8,0,0,0,4.64-4.91,11,11,0,0,0,.49-4.71,14.72,14.72,0,0,0-1-5.09Z"/><path class="cls-14" d="M42.1,19s0-.09.09-.16.1-.1.11-.07a6.26,6.26,0,0,1,.21,1.55,3.36,3.36,0,0,1-.89,2.2,3.17,3.17,0,0,1-1.84.95l-1.1.07s0,0,0-.11,0-.12.06-.12l1-.08a3,3,0,0,0,1.69-.89,3.29,3.29,0,0,0,.89-2A4.11,4.11,0,0,0,42.1,19Z"/><path class="cls-14" d="M39,28.57a.25.25,0,0,1-.07-.18c0-.11,0-.15,0-.14a4.73,4.73,0,0,1,1.76,1.3,4.48,4.48,0,0,1,1,2.7,5,5,0,0,1-1,3.38,4.45,4.45,0,0,1-2,1.56,5,5,0,0,1-2.51.21,4,4,0,0,1-2.36-1s0,0,.12-.1.16-.08.18,0a3.52,3.52,0,0,0,2,.91,4.33,4.33,0,0,0,2.24-.18,4.41,4.41,0,0,0,1.92-1.49,4.69,4.69,0,0,0,.95-3.21A4.11,4.11,0,0,0,39,28.57Z"/><path class="cls-14" d="M19.72,28.79A4.92,4.92,0,0,1,21.6,28a5,5,0,0,1,2-.05,5.25,5.25,0,0,1,1.79.69,5.51,5.51,0,0,1,1.78,1.68,5.15,5.15,0,0,1,.59,1.3L27.5,32a5.07,5.07,0,0,0-.69-1.58,5.4,5.4,0,0,0-1.62-1.57,4.18,4.18,0,0,0-3.54-.62,5.18,5.18,0,0,0-1.74.84,5.35,5.35,0,0,0-1.38,1.47,4.55,4.55,0,0,0-.68,1.77,5.57,5.57,0,0,0,.88,4.24,4.64,4.64,0,0,0,3,1.86,4.93,4.93,0,0,0,3.6-.72,4.47,4.47,0,0,0,2.15-2.84,6.18,6.18,0,0,0,.12-2.33l.32-.19a7.09,7.09,0,0,1,.1,1.16,7.44,7.44,0,0,1-.25,1.57A4.55,4.55,0,0,1,25.44,38a5.47,5.47,0,0,1-3.86.71,4.92,4.92,0,0,1-3.17-1.91,5.63,5.63,0,0,1-1-4.4,5.16,5.16,0,0,1,.78-2,5.79,5.79,0,0,1,1.5-1.64Z"/><path class="cls-14" d="M29.12,14.17l1,1.35-.17.42L25.05,8.8c-.19-.28-.32-.4-.41-.36s0,.06-.05.13a1.47,1.47,0,0,0,.05.38l1.53,6.91-.35.24-1.39-7a1.52,1.52,0,0,1,0-.63.31.31,0,0,1,.13-.24c.18-.08.42.12.75.58l3.5,4.91-.12.15.45.31Z"/><path class="cls-14" d="M19,12.71c-.19-.43-.21-.71-.05-.85s.4,0,.76.21,2.2,1.64,5.66,4.26c0,0,0,.07-.11.14s-.14.11-.17.09l-2.64-2.07-2.94-2.28-.28-.15h-.14c-.07.06,0,.24.11.55l2.25,4.32,2.13,4-.13.13c-.11.06-.17.07-.18.05L21.16,17,19,12.71Z"/><path class="cls-14" d="M23.18,21.31s0,.06-.12.15-.2.12-.22.11l-7.49-3c-.24-.09-.39-.11-.43-.05s.05.2.25.44l2.9,2.91,2.76,2.73s0,.08-.09.17-.14.13-.17.1L17.8,22,15,19.05c-.25-.31-.33-.54-.23-.7s.36-.16.76,0,3,1.16,7.69,3Z"/><path class="cls-14" d="M13.33,24.9c.07-.16.26-.24.59-.23l3.44.17,3.21.17v.33l-6.68-.44-.24,0c-.06,0-.1,0-.11.07s.07.23.32.4l5.74,3.76s0,.06-.12.14-.18.11-.2.09L13.72,25.6a1.12,1.12,0,0,1-.36-.42.36.36,0,0,1,0-.28Z"/><path class="cls-14" d="M52.37,18l-.23-.19a1.57,1.57,0,0,0,.08-1.24,3.23,3.23,0,0,0-.79-1.18,4.12,4.12,0,0,0-1.3-.85,2.26,2.26,0,0,0-1.61-.13,1.28,1.28,0,0,0-.38.21l-.13.14s-.06,0-.12,0-.09-.08-.07-.11l.16-.15a1.73,1.73,0,0,1,.43-.27,2.38,2.38,0,0,1,1.8.11,4.22,4.22,0,0,1,1.38.9,3.32,3.32,0,0,1,.84,1.26,2.22,2.22,0,0,1,.13.81,1.92,1.92,0,0,1-.19.73Z"/><path class="cls-14" d="M51.16,18.92a2.39,2.39,0,0,1-1.1,0A3.24,3.24,0,0,1,49,18.52s0-.05,0-.11.06-.07.08-.05a2.74,2.74,0,0,0,.86.31,2.6,2.6,0,0,0,1,0l0,.15.15.1Z"/><path class="cls-14" d="M31,31.37l.15.31-1,.18.06-.29.78-.2Zm1.29-.5a6.61,6.61,0,0,0,.84-.41l.17.27a9.07,9.07,0,0,1-1,.5l0-.36Zm-1.79-4a3.89,3.89,0,0,0-1.64,1.33,2.8,2.8,0,0,0-.56,1.8,1.64,1.64,0,0,0,.62,1.37l.08.33a1.22,1.22,0,0,1-.28-.14,1.31,1.31,0,0,1-.51-.65,2.79,2.79,0,0,1-.2-1,3,3,0,0,1,.57-1.79,4.19,4.19,0,0,1,1.78-1.44,3.72,3.72,0,0,1,2.47-.23,2.4,2.4,0,0,1,1.51.92,2.08,2.08,0,0,1,.43,1.78,1.89,1.89,0,0,1-.46.75l-.06-.33a1.28,1.28,0,0,0,.26-.47,1.83,1.83,0,0,0-.37-1.53,2.32,2.32,0,0,0-1.56-.94,3.4,3.4,0,0,0-2.08.25Z"/><path class="cls-14" d="M33.92,27c0-.08,0-.11.08-.1,1.8.62,2.65,1.05,2.56,1.29,0,.08-.2.16-.53.25l-1.38.25s0,0,0-.11,0-.12,0-.12l1.31-.18c.28,0,.43-.09.43-.13s-.28-.18-.83-.42-1.09-.44-1.61-.62c0,0,0-.05,0-.11Z"/><path class="cls-14" d="M30.81,30.49v.15a5.79,5.79,0,0,0,.7,1.43,7.66,7.66,0,0,0,.74,1v-.22c0-.38,0-.93-.1-1.64A7.1,7.1,0,0,0,32,30s-.09-.07-.22-.09l-.47.06c-.34.12-.51.29-.51.52Zm-.26.11a.75.75,0,0,1,.08-.47,1.21,1.21,0,0,1,.59-.39,1.08,1.08,0,0,1,.61-.06.59.59,0,0,1,.42.23,6.66,6.66,0,0,1,.22,1.71,5.3,5.3,0,0,1,0,1.64.1.1,0,0,1-.11.05,3.78,3.78,0,0,1-1-1.11,4.38,4.38,0,0,1-.81-1.6Z"/><path class="cls-14" d="M32.79,29.7a.28.28,0,0,0,0,.15,10.3,10.3,0,0,0,.94,1.33,7.6,7.6,0,0,0,.87,1c0-.28-.14-.84-.33-1.7L34,29.16a.18.18,0,0,0-.16-.11,1.17,1.17,0,0,0-.51.1,1.07,1.07,0,0,0-.47.36.41.41,0,0,0-.06.19Zm1.05-.89a.43.43,0,0,1,.36.19,9.83,9.83,0,0,1,.38,1.6,6.16,6.16,0,0,1,.23,1.72.09.09,0,0,1-.08,0q-.21,0-1.11-1a7.4,7.4,0,0,1-1-1.41.54.54,0,0,1-.07-.3.48.48,0,0,1,.11-.25,1.1,1.1,0,0,1,.55-.42,1.22,1.22,0,0,1,.64-.13Z"/><path class="cls-14" d="M29.27,30.64A.37.37,0,0,0,29,31v0a7.15,7.15,0,0,0,.24,1.5,9.26,9.26,0,0,0,.37,1.25L30,32.08a7.59,7.59,0,0,0,.18-1.25.55.55,0,0,0-.32-.18,1.1,1.1,0,0,0-.54,0Zm.27-.27a1.19,1.19,0,0,1,.51.12.53.53,0,0,1,.31.32,6.84,6.84,0,0,1-.24,1.73,6.28,6.28,0,0,1-.42,1.53.11.11,0,0,1-.11,0c-.12,0-.3-.44-.54-1.23a6.7,6.7,0,0,1-.33-1.78.72.72,0,0,1,.14-.46.79.79,0,0,1,.68-.26Z"/><path class="cls-14" d="M28.07,30.42s.06,0,.12.11l.09.17-.35.64a5.54,5.54,0,0,0-.46,1.13l.76-.52.53-.38s.06,0,.12.1.07.12.05.14l-1.49.9c-.12.08-.18,0-.17-.1a4.21,4.21,0,0,1,.4-1.33c.17-.39.31-.68.4-.86Z"/><path class="cls-14" d="M49.54,13.21c.05,0,.08.08.09.17a4.73,4.73,0,0,1,0,.87s0,0-.11,0-.11,0-.11-.06h0l.07-.5c0-.22,0-.33,0-.34s-.12.09-.27.3l-.38.59-.2,0c-.12,0-.17,0-.15,0,.57-.8.93-1.16,1.09-1.07Z"/><path class="cls-14" d="M51.41,13.33c.06,0,.07.13,0,.26A8.91,8.91,0,0,1,51,14.88s-.09,0-.22-.09l.36-.79c.15-.31.2-.48.18-.49a8.05,8.05,0,0,0-1.28.9s-.08,0-.16,0-.12-.09-.09-.11q1.44-1.08,1.65-.93Z"/><path class="cls-14" d="M50.93,14.82c.42-.18.8-.33,1.16-.45.56-.19.89-.23,1-.13s0,.18,0,.34a7.3,7.3,0,0,1-1,1.33s-.1,0-.2-.21l.74-.83c.27-.32.39-.49.37-.52s-.25.05-.68.21-.75.31-1.14.49c0,0-.07,0-.13-.1s-.08-.11,0-.13Z"/><path class="cls-14" d="M54.5,16.22c0,.09,0,.19-.24.33a16.32,16.32,0,0,1-1.81,1s-.05,0-.05-.14,0-.17,0-.18l1.24-.59a4.13,4.13,0,0,0,.66-.36s-.25-.08-.72-.13a8.51,8.51,0,0,0-1.52,0s-.07,0-.1-.13,0-.14,0-.14a11.37,11.37,0,0,1,1.45,0c.64,0,1,.15,1.07.32Z"/><path class="cls-14" d="M51.56,18.22a4.07,4.07,0,0,0-.45.51,16.64,16.64,0,0,0,2.07.73s-.1-.23-.38-.62a11,11,0,0,0-.78-1,1.85,1.85,0,0,0-.46.38Zm.66-.57a5.46,5.46,0,0,1,.65.91c.38.6.55.94.51,1l-.07,0a13.61,13.61,0,0,1-2.41-.75.12.12,0,0,1-.06-.1,1.07,1.07,0,0,1,.31-.57,2.16,2.16,0,0,1,.76-.6l.31,0Z"/><path class="cls-14" d="M19.46,37.45s.08,0,.19.09.15.14.13.16-.2.51-.4,1.11S19,40,18.91,40.35a1.36,1.36,0,0,0,.23,1.17,1.84,1.84,0,0,0,.93.58A2.41,2.41,0,0,0,21.62,42,1.67,1.67,0,0,0,22.7,41l.47-1.5.28-.88s.1-.07.26-.11l.22,0-.32,1L23.08,41a2.25,2.25,0,0,1-1.3,1.35,2.55,2.55,0,0,1-1.78.11,2,2,0,0,1-1.16-.83,1.62,1.62,0,0,1-.23-1.3l.44-1.63a9,9,0,0,1,.41-1.25Z"/><path class="cls-14" d="M38.78,36.89s.07-.07.2-.1h.19l-.28,2.41c0,.34-.29.6-.74.8a3,3,0,0,1-1.31.23,3.34,3.34,0,0,1-1.5-.39c-.47-.25-.71-.54-.73-.88s0-.66,0-1.29l0-.93s.06,0,.17.1S35,37,35,37l-.07.78A9.38,9.38,0,0,0,34.91,39c0,.26.22.49.63.66a3.56,3.56,0,0,0,1.32.28A3.1,3.1,0,0,0,38,39.75c.36-.12.56-.31.59-.56l.12-1.36.06-.94Z"/><path class="cls-14" d="M39.64,44.76a8.45,8.45,0,0,1-1.94-1l-.65-.4A4.24,4.24,0,0,0,35.88,43a6.32,6.32,0,0,1-1.44-.35,2.78,2.78,0,0,1-1.18-.76,2.08,2.08,0,0,1-.46-.94,2.38,2.38,0,0,1,.06-1.35,2.49,2.49,0,0,1,.71-1.07,2.37,2.37,0,0,1,1.17-.61v.25a2.44,2.44,0,0,0-.93.56,2.17,2.17,0,0,0-.56.88,2.22,2.22,0,0,0-.08,1.14,2.09,2.09,0,0,0,.49,1,2.21,2.21,0,0,0,1,.64,7.11,7.11,0,0,0,1.14.26,5,5,0,0,1,1.24.33,7.25,7.25,0,0,1,.68.42,9.24,9.24,0,0,0,1.78,1,4.05,4.05,0,0,0,2.37.18s0,0,.07.1,0,.12,0,.13a3.79,3.79,0,0,1-2.26,0Z"/><path class="cls-14" d="M43.36,43.65a3.93,3.93,0,0,0,.81-.52h.21c.08.05.1.1.07.15l-.56.45-.35.25s-.07,0-.13-.14-.07-.17,0-.18Z"/><path class="cls-14" d="M38.77,38.26s0-.08,0-.16,0-.13.06-.11a3.14,3.14,0,0,0,1.2.73c.33.13.87.32,1.64.56a14.23,14.23,0,0,1,1.79.62,2.16,2.16,0,0,1,1.12,1.22l-.09.08h-.13a2.44,2.44,0,0,0-1.22-1.07,13.39,13.39,0,0,0-1.86-.68c-.73-.23-1.22-.4-1.47-.5a2.79,2.79,0,0,1-1-.7Z"/><path class="cls-14" d="M40.73,43.08a1.12,1.12,0,0,0,0,.57,1.14,1.14,0,0,0,.8.73l.86.24.89.29.55.13a4.29,4.29,0,0,0-2.08-2.4.71.71,0,0,0-.8,0,.91.91,0,0,0-.25.41Zm.15,1.27a1.34,1.34,0,0,1-.37-.63,1.37,1.37,0,0,1,0-.75,1,1,0,0,1,.3-.56,1,1,0,0,1,1.1-.06,4,4,0,0,1,1.6,1.37A2.69,2.69,0,0,1,44.1,45a.21.21,0,0,1-.11.21l-.52,0-1.17-.34-.82-.23a1.06,1.06,0,0,1-.6-.29Z"/><path class="cls-14" d="M43.84,41c-.21-.09-.36-.06-.45.08a1.25,1.25,0,0,0-.16.83,1.17,1.17,0,0,0,.17.66,5.42,5.42,0,0,0,1.57.75q1.28.47,1.35.36c.07-.09-.17-.47-.72-1.16A4.93,4.93,0,0,0,43.84,41Zm-.72-.13a.54.54,0,0,1,.27-.18l.52,0a4.13,4.13,0,0,1,1.78,1.44,3.58,3.58,0,0,1,.81,1.44v.07l0,.14a.29.29,0,0,1-.22.06,6.19,6.19,0,0,1-1.58-.4,4,4,0,0,1-1.44-.69,1.4,1.4,0,0,1-.29-.81,1.68,1.68,0,0,1,.19-1.11Z"/><path class="cls-14" d="M17.76,46.28a.84.84,0,0,0-.55-.68.62.62,0,0,0-.59.16,2.32,2.32,0,0,0-.58.75,4.29,4.29,0,0,0-.41,1.91c0,.54,0,.82.08.83L16,49l.52-.52.79-.78a1.45,1.45,0,0,0,.48-1.09l0-.32Zm-2,0a1.94,1.94,0,0,1,.71-.82,1,1,0,0,1,.76-.12.92.92,0,0,1,.49.29,1.27,1.27,0,0,1,.29.55,1.71,1.71,0,0,1,0,.87,1.58,1.58,0,0,1-.43.75l-.84.82-.47.49-.32.32c-.21.18-.34.26-.41.24s-.07-.06-.11-.18a4.15,4.15,0,0,1-.09-1.26,4.54,4.54,0,0,1,.43-1.95Z"/><path class="cls-14" d="M22.64,46a.72.72,0,0,0-.54-.28.88.88,0,0,0-.62.29,1.5,1.5,0,0,0-.38.74,1.72,1.72,0,0,0,0,.45,9.82,9.82,0,0,0,.17,1.58,3,3,0,0,0,.24,1c.11,0,.38-.28.81-.91A3.36,3.36,0,0,0,23,47.08l0-.3a1.63,1.63,0,0,0-.33-.75ZM21.3,45.8a1.21,1.21,0,0,1,.8-.31,1,1,0,0,1,.72.32,1.83,1.83,0,0,1,.45.9,2.7,2.7,0,0,1-.46,1.87,5.1,5.1,0,0,1-1.09,1.35c-.16.14-.27.19-.34.15a.81.81,0,0,1-.19-.35,8.13,8.13,0,0,1-.29-1.25,8.31,8.31,0,0,1-.13-1.36,2.37,2.37,0,0,1,0-.49,1.5,1.5,0,0,1,.49-.83Z"/><path class="cls-14" d="M18.71,40.18c-.12,0-.35.26-.7.77a13.8,13.8,0,0,0-1.21,2.23l-.5,1a6,6,0,0,0-.61,1.33,2.19,2.19,0,0,0,.15,1.5l-.09.08h-.12a2.31,2.31,0,0,1-.32-1.64A5,5,0,0,1,15.92,44c.55-1.11,1-2,1.34-2.57.64-1.11,1.15-1.62,1.54-1.54,0,0,0,.06,0,.16s-.07.15-.1.15Z"/><path class="cls-14" d="M22.86,40.76a.39.39,0,0,1,.3.06,1.84,1.84,0,0,1,.48.92A10.51,10.51,0,0,1,24,43.37l.14,1a6.49,6.49,0,0,1,0,2.66A1.42,1.42,0,0,1,23,48s0,0,0-.16,0-.17,0-.18a1,1,0,0,0,.78-.81,8.07,8.07,0,0,0-.12-2.68l-.14-1-.21-1.37c-.1-.43-.2-.68-.32-.76l-.1,0s-.06,0-.08-.1,0-.11,0-.13Z"/><path class="cls-14" d="M19.22,48.05,21,47.94s.06,0,.08.14,0,.16,0,.16a7.42,7.42,0,0,1-1.62.2,6.83,6.83,0,0,1-2.37-.28s0,0,.07-.13l.16-.11,1.9.13Z"/><path class="cls-14" d="M21.87,26.05l.24,0s0,.11-.1.22a2.22,2.22,0,0,0-.66,1l0,.05a2.12,2.12,0,0,1,.59.39.56.56,0,0,1,.13.24L22,28a.09.09,0,0,1-.1,0c0-.09-.26-.23-.67-.44-.12-.05-.18-.13-.17-.22a1.09,1.09,0,0,1,.23-.46,3,3,0,0,1,.47-.55,3.17,3.17,0,0,0-1.49,1.18s0,0-.1,0-.08-.09-.07-.11a1.56,1.56,0,0,1,.34-.51,2.82,2.82,0,0,1,1.39-.75Z"/><path class="cls-14" d="M27,30.58c0-.07,0-.11,0-.12a.46.46,0,0,0,.35-.21.43.43,0,0,0,.06-.33s0-.05.11-.06.11,0,.11,0a.7.7,0,0,1-.05.53.62.62,0,0,1-.3.22l-.18,0s-.06,0-.09-.09Z"/><path class="cls-14" d="M34.35,29.69s0,0,0-.07.07,0,.09,0a3.2,3.2,0,0,1,.47.45,1.1,1.1,0,0,1,.3.45.19.19,0,0,1-.1.18l-.58.42,0-.23A2.49,2.49,0,0,1,35,30.5a.78.78,0,0,0-.2-.33l-.46-.48Z"/><path class="cls-14" d="M37.34,29l0,.17a.55.55,0,0,1-.33.3,2,2,0,0,0-.65.49.87.87,0,0,0-.29.57l0,.13a2.37,2.37,0,0,0,.41.63,1.43,1.43,0,0,1,.4.68l-.07.17a1.85,1.85,0,0,1-.44.26l-.34.15c-.12.07-.19.12-.19.17l.08.37.12.49,0,.18-.13.13-1.1.62c-.15.09-.21,0-.18-.12l.14-.58a.19.19,0,0,0-.09-.15l-.32-.19-.17-.09c-.21-.11-.32-.21-.34-.29s0-.12.11-.24l.1-.12.13-.18s0-.09,0-.11l-.24,0c-.37,0-.58,0-.63-.16a.48.48,0,0,1,.08-.39,2.23,2.23,0,0,1,.4-.45l.16.17a1.35,1.35,0,0,0-.4.39c-.08.11-.1.18-.08.21s.19.1.46.07.34,0,.39.08l0,.1,0,.18-.18.27-.12.17.13.1.32.15a2.39,2.39,0,0,1,.35.19.38.38,0,0,1,.16.3l0,.23-.13.31,1-.66,0-.08-.08-.47-.07-.39a.37.37,0,0,1,.15-.3l.46-.25.27-.12.16-.11a.57.57,0,0,0-.15-.24l-.25-.28a2.51,2.51,0,0,1-.45-.72l0-.19a1,1,0,0,1,.27-.68,1.86,1.86,0,0,1,.81-.54c.14-.06.22-.12.25-.2V29a.67.67,0,0,0-.11-.32l-.21-.39a3.3,3.3,0,0,1-.29-.68l0-.13c0-.46.59-.94,1.76-1.46h.2s0,.08,0,.15a2.27,2.27,0,0,0-.21,1.12,1.42,1.42,0,0,0,.29.57l.31.46a2,2,0,0,1,.21.7.27.27,0,0,1-.11.16c-.07.07-.11.09-.11.06A2.45,2.45,0,0,0,38.39,28l-.26-.38a.93.93,0,0,1-.09-.5,2.54,2.54,0,0,1,.1-.45l.18-.48a5.43,5.43,0,0,0-1,.62c-.36.27-.54.5-.54.68v.08l.29.63.2.42a1.08,1.08,0,0,1,.09.38Z"/><path class="cls-14" d="M5.2,24.12c-.09-.15-.12-.24-.08-.26s.11,0,.2.19a14.65,14.65,0,0,0,5.22,4.78A19.38,19.38,0,0,0,18,31.3l-.15.38a18.87,18.87,0,0,1-7.49-2.53,14.23,14.23,0,0,1-5.18-5Z"/><path class="cls-14" d="M23.46,39l.14-.36a19.79,19.79,0,0,0,7.5-1.77l.53,0h.43A21.79,21.79,0,0,1,23.46,39Z"/><path class="cls-14" d="M4.53,23.94a26.58,26.58,0,0,0,4.53,8A18.9,18.9,0,0,0,15.78,37a19.57,19.57,0,0,0,3.63,1.21l-.1.4a18.47,18.47,0,0,1-3.64-1.2,18.77,18.77,0,0,1-6.88-5.29A23.81,23.81,0,0,1,4.39,24c0-.16,0-.24,0-.25s.1,0,.15.19Z"/><path class="cls-14" d="M39.61,12.39a3,3,0,0,1-.08,1.26,2.72,2.72,0,0,1-.59,1.08,3.34,3.34,0,0,1-1.39.91,5,5,0,0,1-3.2,0A3.39,3.39,0,0,1,33,15c-.11-.1-.15-.17-.13-.2l.11,0,.12.07a3.85,3.85,0,0,0,1.29.58,5.82,5.82,0,0,0,1.67.18,3.39,3.39,0,0,0,2.54-1.08,2.68,2.68,0,0,0,.64-2.14,3.21,3.21,0,0,0-1.69-2.26,8,8,0,0,0-1.22-.57l-1-.33-1-.32a1.74,1.74,0,0,1-.76-.58,1.58,1.58,0,0,1-.19-1,8.43,8.43,0,0,1,.16-1.08c.1-.49.07-.81-.08-1a1.53,1.53,0,0,0-1.08-.17l-1.27.11a2.45,2.45,0,0,1-1.46-.2,1.6,1.6,0,0,1-.33-1.35l.07-.65a.56.56,0,0,0-.11-.46.46.46,0,0,0-.36-.09h-.69A1.58,1.58,0,0,1,27,1.79a3.87,3.87,0,0,0,.21.75c0,.08,0,.14,0,.16h-.14A3,3,0,0,1,26,2a2.69,2.69,0,0,1-.51-.79,3.51,3.51,0,0,0,.1,1.27,2.07,2.07,0,0,0,.75,1.11l.82.58a.41.41,0,0,1,.21.37,2.67,2.67,0,0,1-.42.89c-.36.59-.52,1-.46,1.23s.43.56,1.1.84a7.07,7.07,0,0,1,1.21.6,1.66,1.66,0,0,1,.68.88l.18.69a2,2,0,0,0,.28.71,2.47,2.47,0,0,0,.92.63c.11.05.16.1.14.14s-.07,0-.2,0a2.32,2.32,0,0,1-1.12-.64,1.92,1.92,0,0,1-.3-.75,3.08,3.08,0,0,0-.53-1.34,5.86,5.86,0,0,0-1.38-.71l-.73-.33a1.32,1.32,0,0,1-.49-.48,1.14,1.14,0,0,1,.15-1l.6-1a.42.42,0,0,0,0-.48,4.39,4.39,0,0,0-.62-.44A2.34,2.34,0,0,1,25.3,2.46a4,4,0,0,1,0-1.42c0-.14.07-.22.14-.22s.14.09.24.27a2.94,2.94,0,0,0,1.18,1.26,2.64,2.64,0,0,1-.13-.78c0-.16,0-.25.09-.25l.13.11.37.45a1.31,1.31,0,0,0,.88.45l.8-.07a.61.61,0,0,1,.49.1.86.86,0,0,1,.16.65l-.07.71a4.7,4.7,0,0,0,0,.77.73.73,0,0,0,.23.42A2,2,0,0,0,31.07,5l1.44-.14c.68,0,1.1,0,1.27.23s.2.55.09,1.13l-.2,1a1.3,1.3,0,0,0,.12.87,1.6,1.6,0,0,0,.72.52l1,.31,1.07.35a9.32,9.32,0,0,1,1.27.61,3.43,3.43,0,0,1,1.77,2.45Z"/><path class="cls-14" d="M1.68,12.94a2.13,2.13,0,0,1,.58.35,2,2,0,0,1,.72,1,1.55,1.55,0,0,1,.86-.48l.16,0S4,13.9,4,14a5.91,5.91,0,0,0-.48,1,1.47,1.47,0,0,0-.13,1,.72.72,0,0,0,.22.29.33.33,0,0,0,.22.08c.18,0,.35-.25.52-.7.06-.17.13-.17.21,0l.43,1q.19.53.09.66l-.19.21-.56.58c-.22.28-.28.47-.19.58a1.64,1.64,0,0,0,.88.47c.81.25,1.3.56,1.47.94a1.59,1.59,0,0,1,0,.77,3.7,3.7,0,0,0-.1.77.93.93,0,0,0,.3.62,2.19,2.19,0,0,1,.52.72,1.22,1.22,0,0,1-.32.84,3.67,3.67,0,0,0-.46.86,1.42,1.42,0,0,0-.06.81l-.12-.08a.37.37,0,0,1-.12-.22,2.8,2.8,0,0,1,.5-1.51A1.65,1.65,0,0,0,6.89,23a.45.45,0,0,0-.16-.28l-.38-.37A1.52,1.52,0,0,1,6,21.94.8.8,0,0,1,6,21.5l.14-.72a.89.89,0,0,0-.35-1,6.46,6.46,0,0,0-.89-.41l-.63-.28a1,1,0,0,1-.36-.28.4.4,0,0,1-.08-.29,2.37,2.37,0,0,1,.81-1.21l.16-.17v-.05l-.11-.52-.26-.77c-.16.45-.36.69-.61.7a.72.72,0,0,1-.69-.46.86.86,0,0,1-.07-.34,2.39,2.39,0,0,1,.19-.84A4.06,4.06,0,0,1,3.73,14a4.06,4.06,0,0,0-.71.6c-.1.1-.16.08-.2-.06a2.8,2.8,0,0,0-1.07-1.38l.22.53a2,2,0,0,1,.14.62,1.49,1.49,0,0,1-.21.82l-.31.38-.31.32L1,16.24a.58.58,0,0,0-.12.32.53.53,0,0,0,.13.33,12.31,12.31,0,0,1,.75,1,1.45,1.45,0,0,1,.28.7.34.34,0,0,1-.11.29,6.07,6.07,0,0,0-.71.75,1.29,1.29,0,0,0-.38.71l.09.22.35.52a1.79,1.79,0,0,1,.3.83c0,.19-.07.26-.19.22L1,22l-.71-.1q1.08.82,1.08,1.23l0,.1a4.24,4.24,0,0,0-.47,1.45.44.44,0,0,0,.13.37,2.47,2.47,0,0,0,.82.22l1.11.17a6.12,6.12,0,0,1,1.72.58l.14.14c0,.06,0,.1-.07.14l-.35.11a5.23,5.23,0,0,1,1.35.43V27c0,.08,0,.11,0,.09a6.85,6.85,0,0,0-.89-.34,5.86,5.86,0,0,0-.61-.18c-.12,0-.14-.1,0-.19l.33-.19A4,4,0,0,0,3.7,26l-.85-.19a5.79,5.79,0,0,1-2-.5.61.61,0,0,1-.24-.56,2.7,2.7,0,0,1,.21-1l.22-.56a1,1,0,0,0-.29-.49A7.9,7.9,0,0,0,.06,22,.13.13,0,0,1,0,21.89s0-.07.1-.09a1.85,1.85,0,0,1,1.26.12A1.86,1.86,0,0,0,1,21.26L.7,20.73a.63.63,0,0,1-.14-.35,1.6,1.6,0,0,1,.43-1l.64-.65a.14.14,0,0,0,.05-.12A3.57,3.57,0,0,0,.79,17a.87.87,0,0,1-.19-.48.82.82,0,0,1,.16-.44l.35-.42.53-.64a1.36,1.36,0,0,0,.17-.69,3.16,3.16,0,0,0-.14-.88l-.14-.39c-.05-.09-.05-.15,0-.17Z"/><path class="cls-14" d="M43,14.19s0-.07,0-.16.09-.12.11-.1L44.47,15s0,.06,0,.11-.1.06-.13,0l-1.32-1Z"/><path class="cls-14" d="M44,14.39l-.14.2-.16,0-.12-.1a6.11,6.11,0,0,1,.51-.63c.23-.24.39-.37.49-.38s.7.4,1.45,1.27c.1.11.14.19.11.23s-.1,0-.22-.11L45,14.05c-.27-.25-.42-.37-.46-.36s-.26.24-.59.7Z"/><path class="cls-14" d="M45.23,14c.23-.23.39-.35.47-.35s.25.13.51.39t-.06.12c0,.06-.09.07-.11.05l-.33-.38-.14.13-.19.21s-.06,0-.11-.06-.06-.09,0-.11Z"/><path class="cls-14" d="M46.66,13.43c.17,0,.61.37,1.33,1.23L49,16l0,0a1.84,1.84,0,0,1,.27.59,2.64,2.64,0,0,1,0,1.24A6.9,6.9,0,0,1,48.62,20a.78.78,0,0,1-.45-.07,2.35,2.35,0,0,1-.52-.23s0-.07,0-.14.06-.1.08-.08a4.68,4.68,0,0,0,.69.28l.28-.73.37-1.23a3.68,3.68,0,0,0,.08-.71,1.62,1.62,0,0,0-.28-.94l0,0a13.26,13.26,0,0,0-1.08-1.32c-.62-.73-1-1.08-1.09-1.05a5.24,5.24,0,0,0-.68,1s-.05,0-.11,0-.1-.11-.08-.14l.38-.65a1.46,1.46,0,0,1,.48-.51Z"/><path class="cls-14" d="M44.05,20.18c.11-.13.19-.19.22-.18s0,.11-.09.28a8.76,8.76,0,0,1-.68.95c-.36.44-.6.67-.72.68s-.29-.2-.62-.63c0,0,0-.08.05-.17s.1-.11.12-.09l.25.39c.1.16.17.24.2.24a3.67,3.67,0,0,0,.58-.65l.69-.82Z"/><path class="cls-14" d="M45.61,19.24c.1-.17.17-.23.2-.21s0,.15-.08.35a16,16,0,0,1-1,1.71c-.06.08-.13.11-.2.08l-.81-.31s0-.07,0-.17.07-.13.1-.12l.7.36a12.86,12.86,0,0,0,1-1.69Z"/><path class="cls-14" d="M46.38,19.28q0-.21.06-.21s.07.08.08.21l.06.86c0,.45,0,.7-.08.75L46,21h-.55l-.1-.09a4.57,4.57,0,0,1-.21-.62s0-.07.11-.11l.14,0,.1.4.1.23h.39l.4-.05a2,2,0,0,0,0-.63v-.79Z"/><path class="cls-14" d="M47.9,18.92s.06,0,.11,0,.08.1.07.12c-.47,1-.78,1.57-.95,1.61a2,2,0,0,1-.64-.32s0-.09,0-.2,0-.17,0-.15l.33.25c.14.12.22.17.25.17l.33-.53.5-1Z"/><path class="cls-14" d="M41.68,15.64l1.07,0a4.37,4.37,0,0,1,.83.29c.11,0,.16.09.15.14l-.22,0-.9-.2-1,0s0,0,0-.12,0-.13.07-.14Z"/><path class="cls-14" d="M41.47,16.05s0-.08.07-.14.09-.08.11-.06l.65,1.41s0,.06-.11.09h-.14l-.58-1.31Z"/><path class="cls-14" d="M43.65,17.33c.17-.09.26-.12.3-.07s0,.1-.14.2l-.67.43-.52.31s0,0-.07-.11,0-.14,0-.15l1.08-.61Z"/><path class="cls-14" d="M42.51,18.7a1.32,1.32,0,0,1,.54-.28l.71-.22.25,0s0,.1-.19.15l-.64.22c-.29.1-.44.17-.44.22a2.23,2.23,0,0,0,.24.61,2,2,0,0,0,.31.53,5.71,5.71,0,0,0,.92-.66q.21-.15.27-.12c.05,0,0,.1-.15.25-.57.54-.93.81-1.08.79a.24.24,0,0,1-.15-.09,2.29,2.29,0,0,1-.36-.6c-.22-.45-.3-.73-.23-.82Z"/><path class="cls-14" d="M44.15,15.45a.91.91,0,0,1,.18-.43.2.2,0,0,1,.2-.07l.58.19.64.24c.14.06.2.1.18.14s-.1,0-.24,0a7.8,7.8,0,0,0-1.18-.34s-.06.09-.1.24a.58.58,0,0,0,0,.26,9.84,9.84,0,0,0,1.56.49c.13,0,.2.09.19.13l-.22,0-.84-.2a2.75,2.75,0,0,1-.9-.31.52.52,0,0,1,0-.36Z"/><path class="cls-14" d="M46.24,16.43c.15,0,.23,0,.23.07s-.07.07-.2.08l-.67.05-.51.07a3.68,3.68,0,0,0,.26.85,4.92,4.92,0,0,0,.34.82l.28-.21.44-.4c.16-.12.26-.17.3-.14s0,.13-.16.28l-.75.69a.22.22,0,0,1-.2.06c-.11,0-.28-.38-.49-1a2.66,2.66,0,0,1-.25-1.07c0-.09.26-.13.61-.14Z"/><path class="cls-14" d="M48,15.76c.13,0,.19.09.17.13s-.09.06-.2,0l-.72-.16-.43-.08a3.68,3.68,0,0,0,.19.77,3.62,3.62,0,0,0,.26.75s.13,0,.31-.14l.5-.31c.11-.06.18-.08.22-.05s0,.09-.12.18l-.8.53-.22,0c-.11,0-.28-.47-.49-1.29-.1-.37-.11-.59,0-.66a.25.25,0,0,1,.22-.05,11.48,11.48,0,0,1,1.15.31Z"/><path class="cls-14" d="M48,17.42q.18-.12.21-.06s0,.1-.11.19a4.55,4.55,0,0,0-.72.69l.38.39.42.32.2-.43.33-.83c0-.1.09-.14.13-.11s0,.12,0,.25A8.82,8.82,0,0,1,48.4,19c-.07.15-.14.22-.2.22a2,2,0,0,1-.56-.39,1.54,1.54,0,0,1-.55-.61c0-.12.28-.39.89-.82Z"/><path class="cls-14" d="M25.85,20.55l.67.58c.11.1.15.17.11.2l-.18,0-.64-.48-.56-.41a3.58,3.58,0,0,0-.35.71,2.9,2.9,0,0,0-.29.78,1.94,1.94,0,0,0,.58.3l.79.32q.12.06.09.12h-.16l-.75-.25q-.73-.28-.78-.45a2.13,2.13,0,0,1,.29-1c.22-.51.39-.76.51-.76a1.77,1.77,0,0,1,.67.41Z"/><path class="cls-14" d="M25.54,22.33l.11.08c0,.05,0,.09,0,.09-.5.1-.76.19-.78.26a4,4,0,0,0,.63,1l-.05.11-.09.07c-.55-.66-.79-1.08-.72-1.27s.33-.25.89-.36Z"/><path class="cls-14" d="M25.87,23a.2.2,0,0,1,.2-.05,2,2,0,0,1,.57.25l.55.34c.12.09.18.16.19.21s-.06.05-.21,0l-.6-.32a1.74,1.74,0,0,0-.5-.21,2.2,2.2,0,0,0-.41.51c-.23.34-.33.54-.32.63a2,2,0,0,0,.64.17l.75.13c.1,0,.15.06.15.1s-.09.07-.27.07l-.9-.1c-.4-.08-.6-.15-.63-.23s.07-.44.32-.83l.47-.64Z"/><path class="cls-14" d="M26,24.61h.11l.11.06a9,9,0,0,0-.28,1.09l.52.13.77.09s0,0,0,.12,0,.12-.05.11c-.94-.06-1.44-.18-1.5-.35A5.17,5.17,0,0,1,26,24.61Z"/><path class="cls-14" d="M30.74,20.17s0-.07,0-.14.07-.11.09-.1a2.42,2.42,0,0,1,.9.79s0,.05-.06.09-.08.05-.1,0a2.24,2.24,0,0,0-.85-.66Z"/><path class="cls-14" d="M28.9,19.6s.05,0,.05.11,0,.11-.05.11l-1,.1s-.06,0-.07-.09,0-.12,0-.13a2.06,2.06,0,0,1,1.07-.1Z"/><path class="cls-14" d="M26.35,20.43s.07,0,.12.06.06.09,0,.12l-.19.19-.06.08-.1,0-.11,0c-.05-.1.05-.24.3-.43Z"/><path class="cls-14" d="M26.52,19c.53-.27.87-.38,1-.33a1.79,1.79,0,0,1,.31.71l.26,1q0,.21,0,.21s-.07-.05-.12-.16l-.27-.84a2.05,2.05,0,0,0-.26-.68c-.06,0-.33.08-.79.33s-.69.41-.69.47a7.28,7.28,0,0,0,1,1.16c.08.07.1.13.08.17s-.08,0-.18,0a4.76,4.76,0,0,1-.69-.63c-.35-.36-.52-.59-.52-.68s.28-.4.84-.68Z"/><path class="cls-14" d="M28.77,18.68c.09-.11.48-.09,1.16.05s1.08.32,1.16.51a2.13,2.13,0,0,1-.19.68l-.36.86c-.07.12-.12.17-.16.14s0-.1,0-.23a8.5,8.5,0,0,0,.45-1.37c0-.08-.36-.19-.94-.33a3.06,3.06,0,0,0-.93-.14,1.86,1.86,0,0,0,0,.64l.1,1c0,.09,0,.14,0,.16s-.08,0-.11-.13a5.35,5.35,0,0,1-.14-.91,2.17,2.17,0,0,1,0-.95Z"/><path class="cls-14" d="M31.94,20.35a.1.1,0,0,1,.1,0,.09.09,0,0,1,.08.06l.36.52a2.66,2.66,0,0,1,.43.81q0,.11,0,.15l-.66.44s0,0-.09,0-.05-.08,0-.09l.56-.44a2,2,0,0,0-.3-.6L32,20.62l-.3.25-.37.32c-.1.08-.17.1-.2.09s0-.08.09-.19l.72-.74Z"/><path class="cls-14" d="M28.8,22c0-.07.14-.1.32-.11a3.93,3.93,0,0,1,1.29.18s0,0,0,.1,0,.08-.06.08l-.94-.14-.43,0s0,.11,0,.26l.23.69c0,.09,0,.15,0,.16s-.09,0-.14-.14a4.52,4.52,0,0,1-.33-.81.46.46,0,0,1,0-.29Z"/><path class="cls-14" d="M31.71,21.81a3.28,3.28,0,0,1,.83.67q0,.12-.21.51l-.3.44c-.09.11-.15.15-.18.11s0-.1,0-.19l.28-.47.16-.32a3.71,3.71,0,0,0-.77-.55,2.9,2.9,0,0,0-.85-.47c-.05,0-.11.24-.18.68l-.16,1c0,.12-.06.17-.11.14s-.08-.09-.07-.2c.1-1.18.25-1.78.43-1.82s.57.14,1.11.52Z"/><path class="cls-14" d="M32.22,23.06s0,0,0-.09.06-.07.08-.06a3.14,3.14,0,0,1,.78.4.78.78,0,0,1,.28.29.54.54,0,0,1-.13.37l-.29.39-.11,0-.07-.08c.26-.33.39-.53.37-.59a3.94,3.94,0,0,0-.91-.6Z"/><path class="cls-14" d="M33.23,24.76a2.72,2.72,0,0,0-.76-.52s-.14.2-.29.58l-.28.77q-.11.22-.18.18s0-.11,0-.27q.36-1.48.72-1.5c.17,0,.5.17,1,.55a2.51,2.51,0,0,1,.74.78c0,.05-.08.19-.28.4l-.51.48c-.13.11-.22.14-.25.11s0-.1.1-.21l.42-.42.28-.32a2.94,2.94,0,0,0-.68-.61Z"/><path class="cls-14" d="M33.55,26s0,0,0-.08a.13.13,0,0,1,.11-.07,1.47,1.47,0,0,1,.38.27c.22.18.33.3.34.36a.51.51,0,0,1-.09.25l-.3.38s-.08,0-.18-.1c.2-.28.3-.44.29-.49l-.2-.22-.38-.3Z"/><path class="cls-14" d="M27.48,21.23a1.67,1.67,0,0,1,.6-.12.46.46,0,0,1,.19.23,7.49,7.49,0,0,1,.38,1.52.31.31,0,0,1,0,.23s-.07,0-.12-.13l-.29-1.05c-.1-.37-.18-.56-.22-.57a2.49,2.49,0,0,0-.82.28c-.48.2-.72.33-.72.4a1.58,1.58,0,0,0,.4.5l.8.79q.14.15.09.21s-.09,0-.2-.06a6,6,0,0,1-1.19-1.12c-.11-.16-.16-.29-.13-.36s.19-.29.48-.44a3.94,3.94,0,0,1,.77-.31Z"/><path class="cls-14" d="M31.6,23.9l-.9-.06c-.55,0-.84.05-.88.12a3.2,3.2,0,0,0,.16.72l.23.94c0,.15,0,.23,0,.23s-.11-.08-.17-.24l-.28-.89c-.14-.54-.17-.86-.1-.94a1.92,1.92,0,0,1,1-.19c.62,0,1,0,1.12.18a1.2,1.2,0,0,1,0,.77l-.14.79c0,.12-.07.18-.11.18s-.05-.06,0-.16a8.28,8.28,0,0,0,.07-1.45Z"/><path class="cls-14" d="M28.85,23.89a2.73,2.73,0,0,1,.53.94,12,12,0,0,1,.46,1.11c0,.15,0,.22,0,.22L29.68,26l-.45-1a3.29,3.29,0,0,0-.47-.89,2.88,2.88,0,0,0-.8.52c-.49.37-.72.61-.71.7a9.91,9.91,0,0,0,1.28,1.21c.11.12.15.2.12.25s-.14,0-.3-.12l-.81-.7a2.9,2.9,0,0,1-.55-.6c0-.27.29-.6.87-1s.87-.55,1-.5Z"/><path class="cls-14" d="M27.3,25.76l.12,0c.07,0,.1.08.08.1l-.48,1s-.06,0-.13,0-.1-.07-.08-.1l.32-.65.17-.33Z"/><path class="cls-14" d="M26.19,26.58c.09,0,.34,0,.77.17a5.88,5.88,0,0,1,.83.37c.11.06.15.11.14.16s-.08,0-.2,0L26.88,27a1.69,1.69,0,0,0-.59-.15c-.06,0-.16.29-.31.8a2.55,2.55,0,0,0-.18.84s.2.08.55.12l1.4.15c.15,0,.22.05.21.1s-.08.08-.22.08l-1.9-.13c-.16-.05-.25-.12-.26-.2a2.74,2.74,0,0,1,.22-1.26q.25-.66.39-.72Z"/><path class="cls-14" d="M27.31,28.72h.11l.08.07,0,.09c-.3.28-.44.46-.43.53l.39.31.77.49s0,.05,0,.12-.07.1-.1.08a9.82,9.82,0,0,1-1.21-.76c-.11-.1-.17-.17-.16-.23a2.21,2.21,0,0,1,.61-.71Z"/><path class="cls-14" d="M32.58,19.92a5.71,5.71,0,0,1-.12,1s-.05,0-.13,0-.1,0-.1-.07a4.06,4.06,0,0,0,.09-.89,4.24,4.24,0,0,0-1.26-3.08,4.26,4.26,0,0,0-6.09,0A4.21,4.21,0,0,0,23.7,20,4.35,4.35,0,0,0,24,21.6,4.52,4.52,0,0,0,24.9,23l.18.49a4.69,4.69,0,0,1-1.22-1.62,4.77,4.77,0,0,1-.44-2,4.45,4.45,0,0,1,1.34-3.24A4.33,4.33,0,0,1,28,15.29a4.56,4.56,0,0,1,3.27,1.29,4.37,4.37,0,0,1,1.35,3.34Z"/></g></g></svg>